<?xml version="1.0" encoding="UTF-8"?>
<svg width="60px" height="60px" viewBox="0 0 60 60" version="1.1" xmlns="http://www.w3.org/2000/svg" xmlns:xlink="http://www.w3.org/1999/xlink">
    <!-- Generator: Sketch 51.2 (57519) - http://www.bohemiancoding.com/sketch -->
    <title>icon_framework copy</title>
    <desc>Created with Sketch.</desc>
    <defs>
        <linearGradient x1="50%" y1="-2.48949813e-15%" x2="50%" y2="100%" id="linearGradient-1">
            <stop stop-color="#F6A61F" offset="0%"></stop>
            <stop stop-color="#7390A0" offset="100%"></stop>
        </linearGradient>
    </defs>
    <g id="icon_framework-copy" stroke="none" stroke-width="1" fill="none" fill-rule="evenodd">
        <path d="M29.6,0 C34.0184,0 37.6,3.5824 37.6,8 C37.6,12.4176 34.0184,16 29.6,16 C25.1816,16 21.6,12.4176 21.6,8 C21.6,3.5824 25.1816,0 29.6,0 Z M8.14528,10.40392 C10.64528,7.90472 14.69648,7.90472 17.19648,10.40392 C19.69568,12.90312 19.69568,16.95512 17.19648,19.45432 C14.69648,21.95432 10.64528,21.95432 8.14528,19.45432 C5.64608,16.95512 5.64608,12.90312 8.14528,10.40392 Z M9.23705556e-14,31.8 C9.23705556e-14,28.7072 2.5072,26.2 5.6,26.2 C8.6928,26.2 11.2,28.7072 11.2,31.8 C11.2,34.8928 8.6928,37.4 5.6,37.4 C2.5072,37.4 9.23705556e-14,34.8928 9.23705556e-14,31.8 Z M9.13512,52.12344 C7.26072,50.24824 7.26072,47.20904 9.13512,45.33544 C11.00952,43.46024 14.04952,43.46024 15.92312,45.33544 C17.79832,47.20904 17.79832,50.24824 15.92312,52.12344 C14.04952,53.99784 11.00952,53.99784 9.13512,52.12344 Z M29.4,59.8 C27.1912,59.8 25.4,58.0096 25.4,55.8 C25.4,53.5904 27.1912,51.8 29.4,51.8 C31.6088,51.8 33.4,53.5904 33.4,55.8 C33.4,58.0096 31.6088,59.8 29.4,59.8 Z M48.59176,51.1336 C47.34216,52.3832 45.31576,52.3832 44.06616,51.1336 C42.81656,49.884 42.81656,47.8576 44.06616,46.608 C45.31576,45.3576 47.34216,45.3576 48.59176,46.608 C49.84136,47.8576 49.84136,49.884 48.59176,51.1336 Z M55.8,32 C55.8,33.3256 54.7256,34.4 53.4,34.4 C52.0744,34.4 51,33.3256 51,32 C51,30.6744 52.0744,29.6 53.4,29.6 C54.7256,29.6 55.8,30.6744 55.8,32 Z M47.60192,13.93984 C48.22672,14.56384 48.22672,15.57744 47.60192,16.20224 C46.97712,16.82704 45.96432,16.82704 45.33872,16.20224 C44.71472,15.57744 44.71472,14.56384 45.33872,13.93984 C45.96432,13.31504 46.97712,13.31504 47.60192,13.93984 Z" id="Combined-Shape" fill="url(#linearGradient-1)" style="mix-blend-mode: lighten;"></path>
    </g>
</svg>