<?xml version="1.0" encoding="UTF-8"?>
<svg width="60px" height="60px" viewBox="0 0 60 60" version="1.1" xmlns="http://www.w3.org/2000/svg" xmlns:xlink="http://www.w3.org/1999/xlink">
    <!-- Generator: Sketch 51.2 (57519) - http://www.bohemiancoding.com/sketch -->
    <title>icon_model copy</title>
    <desc>Created with Sketch.</desc>
    <defs>
        <linearGradient x1="50%" y1="-2.48949813e-15%" x2="50%" y2="100%" id="linearGradient-1">
            <stop stop-color="#E84A27" offset="0%"></stop>
            <stop stop-color="#7390A0" offset="100%"></stop>
        </linearGradient>
    </defs>
    <g id="icon_model-copy" stroke="none" stroke-width="1" fill="none" fill-rule="evenodd">
        <path d="M34.1478519,0.000148148148 C40.5708148,0.000148148148 45.7774815,5.20681481 45.7774815,11.6297778 C45.7774815,18.0527407 40.5708148,23.2594074 34.1478519,23.2594074 C27.7256296,23.2594074 22.5182222,18.0527407 22.5182222,11.6297778 C22.5182222,5.20681481 27.7256296,0.000148148148 34.1478519,0.000148148148 Z M50.2965926,20.0739259 C53.8143704,20.0739259 56.666963,22.9265185 56.666963,26.4442963 C56.666963,29.9628148 53.8143704,32.8146667 50.2965926,32.8146667 C46.7780741,32.8146667 43.9254815,29.9628148 43.9254815,26.4442963 C43.9254815,22.9265185 46.7780741,20.0739259 50.2965926,20.0739259 Z M16.5925185,19.3331852 C23.5473333,19.3331852 29.1851111,24.970963 29.1851111,31.9257778 C29.1851111,38.8805926 23.5473333,44.5183704 16.5925185,44.5183704 C9.6377037,44.5183704 3.99992593,38.8805926 3.99992593,31.9257778 C3.99992593,24.970963 9.6377037,19.3331852 16.5925185,19.3331852 Z M40.7407407,34.148 C47.8185185,34.148 53.5555556,39.8857778 53.5555556,46.9628148 C53.5555556,54.0398519 47.8185185,59.7783704 40.7407407,59.7783704 C33.662963,59.7783704 27.9259259,54.0398519 27.9259259,46.9628148 C27.9259259,39.8857778 33.662963,34.148 40.7407407,34.148 Z" id="Combined-Shape" fill="url(#linearGradient-1)" style="mix-blend-mode: lighten;"></path>
    </g>
</svg>