<?xml version="1.0" encoding="UTF-8"?>
<svg width="292px" height="481px" viewBox="0 0 292 481" version="1.1" xmlns="http://www.w3.org/2000/svg" xmlns:xlink="http://www.w3.org/1999/xlink">
    <!-- Generator: Sketch 51.2 (57519) - http://www.bohemiancoding.com/sketch -->
    <title>background pattern</title>
    <desc>Created with Sketch.</desc>
    <defs></defs>
    <g id="Style-guide" stroke="none" stroke-width="1" fill="none" fill-rule="evenodd" opacity="0.8">
        <g id="spacing-8" transform="translate(-1148.000000, -300.000000)" fill="#D1D7F4">
            <g id="section-1" transform="translate(0.000000, 45.000000)">
                <g id="background-artifacts" transform="translate(120.000000, 0.000000)">
                    <g id="background-pattern" style="mix-blend-mode: multiply;" transform="translate(1174.000000, 495.500000) scale(-1, 1) rotate(90.000000) translate(-1174.000000, -495.500000) translate(934.000000, 350.000000)">
                        <circle id="Oval-5-Copy-10" cx="4.89795918" cy="246.857143" r="4.89795918"></circle>
                        <circle id="Oval-5-Copy-37" cx="357.55102" cy="256.653061" r="4.89795918"></circle>
                        <circle id="Oval-5-Copy-20" cx="34.2857143" cy="246.857143" r="4.89795918"></circle>
                        <circle id="Oval-5-Copy-46" cx="416.326531" cy="246.857143" r="4.89795918"></circle>
                        <circle id="Oval-5-Copy-11" cx="4.89795918" cy="197.877551" r="4.89795918"></circle>
                        <circle id="Oval-5-Copy-21" cx="34.2857143" cy="207.673469" r="4.89795918"></circle>
                        <circle id="Oval-5-Copy-47" cx="416.326531" cy="207.673469" r="4.89795918"></circle>
                        <circle id="Oval-5-Copy-30" cx="240" cy="207.673469" r="4.89795918"></circle>
                        <circle id="Oval-5-Copy-12" cx="4.89795918" cy="168.489796" r="4.89795918"></circle>
                        <circle id="Oval-5-Copy-22" cx="34.2857143" cy="178.285714" r="4.89795918"></circle>
                        <circle id="Oval-5-Copy-48" cx="416.326531" cy="178.285714" r="4.89795918"></circle>
                        <circle id="Oval-5-Copy-31" cx="240" cy="222.367347" r="4.89795918"></circle>
                        <circle id="Oval-5-Copy-13" cx="4.89795918" cy="163.591837" r="4.89795918"></circle>
                        <circle id="Oval-5-Copy-23" cx="34.2857143" cy="173.387755" r="4.89795918"></circle>
                        <circle id="Oval-5-Copy-49" cx="416.326531" cy="173.387755" r="4.89795918"></circle>
                        <circle id="Oval-5-Copy-32" cx="240" cy="173.387755" r="4.89795918"></circle>
                        <circle id="Oval-5-Copy-14" cx="4.89795918" cy="124.408163" r="4.89795918"></circle>
                        <circle id="Oval-5-Copy-41" cx="210.612245" cy="153.795918" r="14.6938776"></circle>
                        <circle id="Oval-5-Copy-45" cx="151.836735" cy="146.938776" r="9.79591837"></circle>
                        <circle id="Oval-5-Copy-42" cx="210.612245" cy="244.897959" r="9.79591837"></circle>
                        <circle id="Oval-5-Copy-43" cx="269.387755" cy="225.306122" r="9.79591837"></circle>
                        <circle id="Oval-5-Copy-44" cx="328.163265" cy="146.938776" r="9.79591837"></circle>
                        <circle id="Oval-5-Copy-33" cx="210.612245" cy="124.408163" r="4.89795918"></circle>
                        <circle id="Oval-5-Copy-39" cx="357.55102" cy="124.408163" r="4.89795918"></circle>
                        <circle id="Oval-5-Copy-24" cx="34.2857143" cy="134.204082" r="4.89795918"></circle>
                        <circle id="Oval-5-Copy-50" cx="416.326531" cy="134.204082" r="4.89795918"></circle>
                        <circle id="Oval-5-Copy-34" cx="240" cy="134.204082" r="4.89795918"></circle>
                        <circle id="Oval-5-Copy-40" cx="386.938776" cy="134.204082" r="4.89795918"></circle>
                        <circle id="Oval-5-Copy-15" cx="4.89795918" cy="95.0204082" r="4.89795918"></circle>
                        <circle id="Oval-5-Copy-35" cx="210.612245" cy="95.0204082" r="4.89795918"></circle>
                        <circle id="Oval-5-Copy-25" cx="34.2857143" cy="104.816327" r="4.89795918"></circle>
                        <circle id="Oval-5-Copy-51" cx="416.326531" cy="104.816327" r="4.89795918"></circle>
                        <circle id="Oval-5-Copy-36" cx="240" cy="104.816327" r="4.89795918"></circle>
                        <circle id="Oval-5-Copy-16" cx="4.89795918" cy="286.040816" r="4.89795918"></circle>
                        <circle id="Oval-5-Copy-26" cx="34.2857143" cy="286.040816" r="4.89795918"></circle>
                        <circle id="Oval-5-Copy-52" cx="416.326531" cy="286.040816" r="4.89795918"></circle>
                        <circle id="Oval-5-Copy-17" cx="4.89795918" cy="276.244898" r="4.89795918"></circle>
                        <circle id="Oval-5-Copy-27" cx="34.2857143" cy="281.142857" r="4.89795918"></circle>
                        <circle id="Oval-5-Copy-53" cx="416.326531" cy="281.142857" r="4.89795918"></circle>
                        <circle id="Oval-5-Copy-18" cx="4.89795918" cy="266.44898" r="4.89795918"></circle>
                        <circle id="Oval-5-Copy-28" cx="34.2857143" cy="276.244898" r="4.89795918"></circle>
                        <circle id="Oval-5-Copy-54" cx="416.326531" cy="276.244898" r="4.89795918"></circle>
                        <circle id="Oval-5-Copy-19" cx="4.89795918" cy="227.265306" r="4.89795918"></circle>
                        <circle id="Oval-5-Copy-38" cx="357.55102" cy="237.061224" r="4.89795918"></circle>
                        <circle id="Oval-5-Copy-29" cx="34.2857143" cy="237.061224" r="4.89795918"></circle>
                        <circle id="Oval-5-Copy-55" cx="416.326531" cy="237.061224" r="4.89795918"></circle>
                        <rect id="Rectangle-8" x="58.7755102" y="279.183673" width="9.79591837" height="9.79591837" rx="4.89795918"></rect>
                        <rect id="Rectangle-8-Copy-85" x="440.816327" y="279.183673" width="9.79591837" height="9.79591837" rx="4.89795918"></rect>
                        <rect id="Rectangle-8-Copy-10" x="235.102041" y="279.183673" width="9.79591837" height="9.79591837" rx="4.89795918"></rect>
                        <rect id="Rectangle-8-Copy-8" x="88.1632653" y="279.183673" width="9.79591837" height="9.79591837" rx="4.89795918"></rect>
                        <rect id="Rectangle-8-Copy-86" x="470.204082" y="279.183673" width="9.79591837" height="9.79591837" rx="4.89795918"></rect>
                        <rect id="Rectangle-8-Copy-17" x="117.55102" y="279.183673" width="9.79591837" height="9.79591837" rx="4.89795918"></rect>
                        <rect id="Rectangle-8-Copy-65" x="352.653061" y="279.183673" width="9.79591837" height="9.79591837" rx="4.89795918"></rect>
                        <rect id="Rectangle-8-Copy-50" x="264.489796" y="279.183673" width="9.79591837" height="9.79591837" rx="4.89795918"></rect>
                        <rect id="Rectangle-8-Copy-26" x="146.938776" y="279.183673" width="9.79591837" height="9.79591837" rx="4.89795918"></rect>
                        <rect id="Rectangle-8-Copy-51" x="293.877551" y="279.183673" width="9.79591837" height="9.79591837" rx="4.89795918"></rect>
                        <rect id="Rectangle-8-Copy-37" x="205.714286" y="279.183673" width="9.79591837" height="9.79591837" rx="4.89795918"></rect>
                        <rect id="Rectangle-8-Copy-35" x="176.326531" y="279.183673" width="9.79591837" height="9.79591837" rx="4.89795918"></rect>
                        <rect id="Rectangle-8-Copy-52" x="323.265306" y="279.183673" width="9.79591837" height="9.79591837" rx="4.89795918"></rect>
                        <rect id="Rectangle-8-Copy-4" x="58.7755102" y="240" width="9.79591837" height="9.79591837" rx="4.89795918"></rect>
                        <rect id="Rectangle-8-Copy-87" x="440.816327" y="240" width="9.79591837" height="9.79591837" rx="4.89795918"></rect>
                        <rect id="Rectangle-8-Copy-9" x="88.1632653" y="240" width="9.79591837" height="9.79591837" rx="4.89795918"></rect>
                        <rect id="Rectangle-8-Copy-88" x="470.204082" y="240" width="9.79591837" height="9.79591837" rx="4.89795918"></rect>
                        <rect id="Rectangle-8-Copy-18" x="117.55102" y="240" width="9.79591837" height="9.79591837" rx="4.89795918"></rect>
                        <rect id="Rectangle-8-Copy-53" x="264.489796" y="240" width="9.79591837" height="9.79591837" rx="4.89795918"></rect>
                        <rect id="Rectangle-8-Copy-27" x="146.938776" y="249.795918" width="9.79591837" height="9.79591837" rx="4.89795918"></rect>
                        <rect id="Rectangle-8-Copy-54" x="293.877551" y="249.795918" width="9.79591837" height="9.79591837" rx="4.89795918"></rect>
                        <rect id="Rectangle-8-Copy-47" x="205.714286" y="249.795918" width="9.79591837" height="9.79591837" rx="4.89795918"></rect>
                        <rect id="Rectangle-8-Copy-36" x="176.326531" y="240" width="9.79591837" height="9.79591837" rx="4.89795918"></rect>
                        <rect id="Rectangle-8-Copy-55" x="323.265306" y="0" width="9.79591837" height="9.79591837" rx="4.89795918"></rect>
                        <rect id="Rectangle-8-Copy" x="58.7755102" y="274.285714" width="9.79591837" height="9.79591837" rx="4.89795918"></rect>
                        <rect id="Rectangle-8-Copy-89" x="440.816327" y="274.285714" width="9.79591837" height="9.79591837" rx="4.89795918"></rect>
                        <rect id="Rectangle-8-Copy-19" x="117.55102" y="107.755102" width="9.79591837" height="9.79591837" rx="4.89795918"></rect>
                        <rect id="Rectangle-8-Copy-72" x="352.653061" y="192.979592" width="9.79591837" height="9.79591837" rx="4.89795918"></rect>
                        <rect id="Rectangle-8-Copy-56" x="264.489796" y="14.6938776" width="9.79591837" height="9.79591837" rx="4.89795918"></rect>
                        <rect id="Rectangle-8-Copy-28" x="146.938776" y="274.285714" width="9.79591837" height="9.79591837" rx="4.89795918"></rect>
                        <rect id="Rectangle-8-Copy-57" x="293.877551" y="274.285714" width="9.79591837" height="9.79591837" rx="4.89795918"></rect>
                        <rect id="Rectangle-8-Copy-48" x="205.714286" y="181.22449" width="9.79591837" height="9.79591837" rx="4.89795918"></rect>
                        <rect id="Rectangle-8-Copy-5" x="58.7755102" y="205.714286" width="9.79591837" height="9.79591837" rx="4.89795918"></rect>
                        <rect id="Rectangle-8-Copy-90" x="440.816327" y="205.714286" width="9.79591837" height="9.79591837" rx="4.89795918"></rect>
                        <rect id="Rectangle-8-Copy-11" x="88.1632653" y="186.122449" width="9.79591837" height="9.79591837" rx="4.89795918"></rect>
                        <rect id="Rectangle-8-Copy-91" x="470.204082" y="186.122449" width="9.79591837" height="9.79591837" rx="4.89795918"></rect>
                        <rect id="Rectangle-8-Copy-20" x="117.55102" y="186.122449" width="9.79591837" height="9.79591837" rx="4.89795918"></rect>
                        <rect id="Rectangle-8-Copy-58" x="264.489796" y="186.122449" width="9.79591837" height="9.79591837" rx="4.89795918"></rect>
                        <rect id="Rectangle-8-Copy-29" x="146.938776" y="225.306122" width="9.79591837" height="9.79591837" rx="4.89795918"></rect>
                        <rect id="Rectangle-8-Copy-59" x="293.877551" y="225.306122" width="9.79591837" height="9.79591837" rx="4.89795918"></rect>
                        <rect id="Rectangle-8-Copy-79" x="382.040816" y="225.306122" width="9.79591837" height="9.79591837" rx="4.89795918"></rect>
                        <rect id="Rectangle-8-Copy-38" x="176.326531" y="225.306122" width="9.79591837" height="9.79591837" rx="4.89795918"></rect>
                        <rect id="Rectangle-8-Copy-60" x="323.265306" y="225.306122" width="9.79591837" height="9.79591837" rx="4.89795918"></rect>
                        <rect id="Rectangle-8-Copy-33" x="146.938776" y="107.755102" width="9.79591837" height="9.79591837" rx="4.89795918"></rect>
                        <rect id="Rectangle-8-Copy-61" x="293.877551" y="117.55102" width="9.79591837" height="9.79591837" rx="4.89795918"></rect>
                        <rect id="Rectangle-8-Copy-39" x="176.326531" y="107.755102" width="9.79591837" height="9.79591837" rx="4.89795918"></rect>
                        <rect id="Rectangle-8-Copy-62" x="323.265306" y="107.755102" width="9.79591837" height="9.79591837" rx="4.89795918"></rect>
                        <rect id="Rectangle-8-Copy-16" x="88.1632653" y="137.142857" width="9.79591837" height="9.79591837" rx="4.89795918"></rect>
                        <rect id="Rectangle-8-Copy-102" x="88.1632653" y="63.6734694" width="9.79591837" height="9.79591837" rx="4.89795918"></rect>
                        <rect id="Rectangle-8-Copy-92" x="470.204082" y="137.142857" width="9.79591837" height="9.79591837" rx="4.89795918"></rect>
                        <rect id="Rectangle-8-Copy-21" x="117.55102" y="137.142857" width="9.79591837" height="9.79591837" rx="4.89795918"></rect>
                        <rect id="Rectangle-8-Copy-63" x="264.489796" y="137.142857" width="9.79591837" height="9.79591837" rx="4.89795918"></rect>
                        <rect id="Rectangle-8-Copy-83" x="411.428571" y="137.142857" width="9.79591837" height="9.79591837" rx="4.89795918"></rect>
                        <rect id="Rectangle-8-Copy-30" x="146.938776" y="156.734694" width="9.79591837" height="9.79591837" rx="4.89795918"></rect>
                        <rect id="Rectangle-8-Copy-64" x="293.877551" y="156.734694" width="9.79591837" height="9.79591837" rx="4.89795918"></rect>
                        <rect id="Rectangle-8-Copy-80" x="382.040816" y="156.734694" width="9.79591837" height="9.79591837" rx="4.89795918"></rect>
                        <rect id="Rectangle-8-Copy-40" x="176.326531" y="146.938776" width="9.79591837" height="9.79591837" rx="4.89795918"></rect>
                        <rect id="Rectangle-8-Copy-2" x="58.7755102" y="269.387755" width="9.79591837" height="9.79591837" rx="4.89795918"></rect>
                        <rect id="Rectangle-8-Copy-93" x="440.816327" y="269.387755" width="9.79591837" height="9.79591837" rx="4.89795918"></rect>
                        <rect id="Rectangle-8-Copy-84" x="235.102041" y="259.591837" width="9.79591837" height="9.79591837" rx="4.89795918"></rect>
                        <rect id="Rectangle-8-Copy-12" x="88.1632653" y="112.653061" width="9.79591837" height="9.79591837" rx="4.89795918"></rect>
                        <rect id="Rectangle-8-Copy-94" x="470.204082" y="112.653061" width="9.79591837" height="9.79591837" rx="4.89795918"></rect>
                        <rect id="Rectangle-8-Copy-22" x="117.55102" y="269.387755" width="9.79591837" height="9.79591837" rx="4.89795918"></rect>
                        <rect id="Rectangle-8-Copy-73" x="352.653061" y="259.591837" width="9.79591837" height="9.79591837" rx="4.89795918"></rect>
                        <rect id="Rectangle-8-Copy-66" x="264.489796" y="269.387755" width="9.79591837" height="9.79591837" rx="4.89795918"></rect>
                        <rect id="Rectangle-8-Copy-31" x="146.938776" y="259.591837" width="9.79591837" height="9.79591837" rx="4.89795918"></rect>
                        <rect id="Rectangle-8-Copy-67" x="293.877551" y="102.857143" width="9.79591837" height="9.79591837" rx="4.89795918"></rect>
                        <rect id="Rectangle-8-Copy-49" x="205.714286" y="259.591837" width="9.79591837" height="9.79591837" rx="4.89795918"></rect>
                        <rect id="Rectangle-8-Copy-41" x="176.326531" y="259.591837" width="9.79591837" height="9.79591837" rx="4.89795918"></rect>
                        <rect id="Rectangle-8-Copy-68" x="323.265306" y="259.591837" width="9.79591837" height="9.79591837" rx="4.89795918"></rect>
                        <rect id="Rectangle-8-Copy-6" x="58.7755102" y="151.836735" width="9.79591837" height="14.6938776" rx="4.89795918"></rect>
                        <rect id="Rectangle-8-Copy-95" x="440.816327" y="195.918367" width="9.79591837" height="14.6938776" rx="4.89795918"></rect>
                        <rect id="Rectangle-8-Copy-23" x="117.55102" y="166.530612" width="9.79591837" height="14.6938776" rx="4.89795918"></rect>
                        <rect id="Rectangle-8-Copy-69" x="264.489796" y="166.530612" width="9.79591837" height="14.6938776" rx="4.89795918"></rect>
                        <rect id="Rectangle-8-Copy-32" x="146.938776" y="205.714286" width="9.79591837" height="14.6938776" rx="4.89795918"></rect>
                        <rect id="Rectangle-8-Copy-70" x="293.877551" y="205.714286" width="9.79591837" height="14.6938776" rx="4.89795918"></rect>
                        <rect id="Rectangle-8-Copy-81" x="382.040816" y="205.714286" width="9.79591837" height="14.6938776" rx="4.89795918"></rect>
                        <rect id="Rectangle-8-Copy-103" x="411.428571" y="75.4285714" width="9.79591837" height="14.6938776" rx="4.89795918"></rect>
                        <rect id="Rectangle-8-Copy-42" x="176.326531" y="205.714286" width="9.79591837" height="14.6938776" rx="4.89795918"></rect>
                        <rect id="Rectangle-8-Copy-71" x="323.265306" y="205.714286" width="9.79591837" height="14.6938776" rx="4.89795918"></rect>
                        <rect id="Rectangle-8-Copy-45" x="176.326531" y="127.346939" width="9.79591837" height="14.6938776" rx="4.89795918"></rect>
                        <rect id="Rectangle-8-Copy-3" x="58.7755102" y="254.693878" width="9.79591837" height="19.5918367" rx="4.89795918"></rect>
                        <rect id="Rectangle-8-Copy-97" x="440.816327" y="254.693878" width="9.79591837" height="19.5918367" rx="4.89795918"></rect>
                        <rect id="Rectangle-8-Copy-14" x="88.1632653" y="254.693878" width="9.79591837" height="19.5918367" rx="4.89795918"></rect>
                        <rect id="Rectangle-8-Copy-98" x="470.204082" y="254.693878" width="9.79591837" height="19.5918367" rx="4.89795918"></rect>
                        <rect id="Rectangle-8-Copy-24" x="117.55102" y="48.9795918" width="9.79591837" height="19.5918367" rx="4.89795918"></rect>
                        <rect id="Rectangle-8-Copy-78" x="352.653061" y="173.387755" width="9.79591837" height="19.5918367" rx="4.89795918"></rect>
                        <rect id="Rectangle-8-Copy-7" x="58.7755102" y="215.510204" width="9.79591837" height="19.5918367" rx="4.89795918"></rect>
                        <rect id="Rectangle-8-Copy-99" x="440.816327" y="215.510204" width="9.79591837" height="19.5918367" rx="4.89795918"></rect>
                        <rect id="Rectangle-8-Copy-15" x="88.1632653" y="215.510204" width="9.79591837" height="19.5918367" rx="4.89795918"></rect>
                        <rect id="Rectangle-8-Copy-100" x="470.204082" y="215.510204" width="9.79591837" height="19.5918367" rx="4.89795918"></rect>
                        <rect id="Rectangle-8-Copy-25" x="117.55102" y="215.510204" width="9.79591837" height="19.5918367" rx="4.89795918"></rect>
                        <rect id="Rectangle-8-Copy-74" x="264.489796" y="73.4693878" width="9.79591837" height="19.5918367" rx="4.89795918"></rect>
                        <rect id="Rectangle-8-Copy-34" x="146.938776" y="171.428571" width="9.79591837" height="29.3877551" rx="4.89795918"></rect>
                        <rect id="Rectangle-8-Copy-75" x="293.877551" y="171.428571" width="9.79591837" height="29.3877551" rx="4.89795918"></rect>
                        <rect id="Rectangle-8-Copy-101" x="293.877551" y="53.877551" width="9.79591837" height="29.3877551" rx="4.89795918"></rect>
                        <rect id="Rectangle-8-Copy-82" x="382.040816" y="171.428571" width="9.79591837" height="29.3877551" rx="4.89795918"></rect>
                        <rect id="Rectangle-8-Copy-43" x="176.326531" y="161.632653" width="9.79591837" height="29.3877551" rx="4.89795918"></rect>
                        <rect id="Rectangle-8-Copy-76" x="323.265306" y="161.632653" width="9.79591837" height="29.3877551" rx="4.89795918"></rect>
                        <rect id="Rectangle-8-Copy-44" x="176.326531" y="58.7755102" width="9.79591837" height="39.1836735" rx="4.89795918"></rect>
                        <rect id="Rectangle-8-Copy-77" x="323.265306" y="48.9795918" width="9.79591837" height="39.1836735" rx="4.89795918"></rect>
                    </g>
                </g>
            </g>
        </g>
    </g>
</svg>