<?xml version="1.0" encoding="UTF-8"?>
<svg width="60px" height="60px" viewBox="0 0 60 60" version="1.1" xmlns="http://www.w3.org/2000/svg" xmlns:xlink="http://www.w3.org/1999/xlink">
    <!-- Generator: Sketch 51.2 (57519) - http://www.bohemiancoding.com/sketch -->
    <title>icon_machine copy</title>
    <desc>Created with Sketch.</desc>
    <defs>
        <linearGradient x1="50%" y1="-2.48949813e-15%" x2="50%" y2="100%" id="linearGradient-1">
            <stop stop-color="#40D5BB" offset="0%"></stop>
            <stop stop-color="#7390A0" offset="100%"></stop>
        </linearGradient>
    </defs>
    <g id="icon_machine-copy" stroke="none" stroke-width="1" fill="none" fill-rule="evenodd">
        <path d="M30,20 C28.1593333,20 26.6666667,18.508 26.6666667,16.6666667 C26.6666667,14.8253333 28.1593333,13.3333333 30,13.3333333 C31.8406667,13.3333333 33.3333333,14.8253333 33.3333333,16.6666667 C33.3333333,18.508 31.8406667,20 30,20 Z M30,33.3333333 C28.1593333,33.3333333 26.6666667,31.8413333 26.6666667,30 C26.6666667,28.1586667 28.1593333,26.6666667 30,26.6666667 C31.8406667,26.6666667 33.3333333,28.1586667 33.3333333,30 C33.3333333,31.8413333 31.8406667,33.3333333 30,33.3333333 Z M30,6.66666667 C28.1593333,6.66666667 26.6666667,5.17466667 26.6666667,3.33333333 C26.6666667,1.492 28.1593333,1.59872116e-14 30,1.59872116e-14 C31.8406667,1.59872116e-14 33.3333333,1.492 33.3333333,3.33333333 C33.3333333,5.17466667 31.8406667,6.66666667 30,6.66666667 Z M16.6666667,20 C14.826,20 13.3333333,18.508 13.3333333,16.6666667 C13.3333333,14.8253333 14.826,13.3333333 16.6666667,13.3333333 C18.5073333,13.3333333 20,14.8253333 20,16.6666667 C20,18.508 18.5073333,20 16.6666667,20 Z M16.6666667,33.3333333 C14.826,33.3333333 13.3333333,31.8413333 13.3333333,30 C13.3333333,28.1586667 14.826,26.6666667 16.6666667,26.6666667 C18.5073333,26.6666667 20,28.1586667 20,30 C20,31.8413333 18.5073333,33.3333333 16.6666667,33.3333333 Z M3.33333333,33.3333333 C1.49266667,33.3333333 -8.17124146e-14,31.8413333 -8.17124146e-14,30 C-8.17124146e-14,28.1586667 1.49266667,26.6666667 3.33333333,26.6666667 C5.174,26.6666667 6.66666667,28.1586667 6.66666667,30 C6.66666667,31.8413333 5.174,33.3333333 3.33333333,33.3333333 Z M43.3333333,20 C41.4926667,20 40,18.508 40,16.6666667 C40,14.8253333 41.4926667,13.3333333 43.3333333,13.3333333 C45.174,13.3333333 46.6666667,14.8253333 46.6666667,16.6666667 C46.6666667,18.508 45.174,20 43.3333333,20 Z M43.3333333,33.3333333 C41.4926667,33.3333333 40,31.8413333 40,30 C40,28.1586667 41.4926667,26.6666667 43.3333333,26.6666667 C45.174,26.6666667 46.6666667,28.1586667 46.6666667,30 C46.6666667,31.8413333 45.174,33.3333333 43.3333333,33.3333333 Z M30,46.6666667 C28.1593333,46.6666667 26.6666667,45.1746667 26.6666667,43.3333333 C26.6666667,41.492 28.1593333,40 30,40 C31.8406667,40 33.3333333,41.492 33.3333333,43.3333333 C33.3333333,45.1746667 31.8406667,46.6666667 30,46.6666667 Z M30,60 C28.1593333,60 26.6666667,58.508 26.6666667,56.6666667 C26.6666667,54.8253333 28.1593333,53.3333333 30,53.3333333 C31.8406667,53.3333333 33.3333333,54.8253333 33.3333333,56.6666667 C33.3333333,58.508 31.8406667,60 30,60 Z M16.6666667,46.6666667 C14.826,46.6666667 13.3333333,45.1746667 13.3333333,43.3333333 C13.3333333,41.492 14.826,40 16.6666667,40 C18.5073333,40 20,41.492 20,43.3333333 C20,45.1746667 18.5073333,46.6666667 16.6666667,46.6666667 Z M43.3333333,46.6666667 C41.4926667,46.6666667 40,45.1746667 40,43.3333333 C40,41.492 41.4926667,40 43.3333333,40 C45.174,40 46.6666667,41.492 46.6666667,43.3333333 C46.6666667,45.1746667 45.174,46.6666667 43.3333333,46.6666667 Z M56.6666667,33.3333333 C54.826,33.3333333 53.3333333,31.8413333 53.3333333,30 C53.3333333,28.1586667 54.826,26.6666667 56.6666667,26.6666667 C58.5073333,26.6666667 60,28.1586667 60,30 C60,31.8413333 58.5073333,33.3333333 56.6666667,33.3333333 Z" id="Combined-Shape" fill="url(#linearGradient-1)" style="mix-blend-mode: lighten;"></path>
    </g>
</svg>