<?xml version="1.0" encoding="UTF-8"?>
<svg width="60px" height="60px" viewBox="0 0 60 60" version="1.1" xmlns="http://www.w3.org/2000/svg" xmlns:xlink="http://www.w3.org/1999/xlink">
    <!-- Generator: Sketch 51.2 (57519) - http://www.bohemiancoding.com/sketch -->
    <title>icon_dataset copy</title>
    <desc>Created with Sketch.</desc>
    <defs>
        <linearGradient x1="50%" y1="-2.48949813e-15%" x2="50%" y2="100%" id="linearGradient-1">
            <stop stop-color="#009BEF" offset="0%"></stop>
            <stop stop-color="#7390A0" offset="100%"></stop>
        </linearGradient>
    </defs>
    <g id="icon_dataset-copy" stroke="none" stroke-width="1" fill="none" fill-rule="evenodd">
        <path d="M28.359375,4.234375 C33.53625,4.234375 37.734375,8.4325 37.734375,13.609375 C37.734375,18.78625 33.53625,22.984375 28.359375,22.984375 C23.1825,22.984375 18.984375,18.78625 18.984375,13.609375 C18.984375,8.4325 23.1825,4.234375 28.359375,4.234375 Z M30.55575,28.93075 C33.4854375,26.002 38.2329375,26.002 41.162625,28.93075 C44.091375,31.8604375 44.091375,36.6079375 41.162625,39.537625 C38.2329375,42.466375 33.4854375,42.466375 30.55575,39.537625 C27.627,36.6079375 27.627,31.8604375 30.55575,28.93075 Z M10.9395937,49.3790312 C8.74303125,47.1815312 8.74303125,43.6199687 10.9395937,41.4243437 C13.1370937,39.2268438 16.6986562,39.2268438 18.8942812,41.4243437 C21.0917812,43.6199687 21.0917812,47.1815312 18.8942812,49.3790312 C16.6986562,51.5755937 13.1370937,51.5755937 10.9395937,49.3790312 Z M4.6875,13.375 C2.098125,13.375 0,11.276875 0,8.6875 C0,6.098125 2.098125,4 4.6875,4 C7.276875,4 9.375,6.098125 9.375,8.6875 C9.375,11.276875 7.276875,13.375 4.6875,13.375 Z M50.6158125,54.7815625 C49.1514375,56.2459375 46.77675,56.2459375 45.312375,54.7815625 C43.8470625,53.3171875 43.8470625,50.9425 45.312375,49.478125 C46.77675,48.0128125 49.1514375,48.0128125 50.6158125,49.478125 C52.0801875,50.9425 52.0801875,53.3171875 50.6158125,54.7815625 Z M59.0625,32.359375 C59.0625,33.9128125 57.8034375,35.171875 56.25,35.171875 C54.6965625,35.171875 53.4375,33.9128125 53.4375,32.359375 C53.4375,30.8059375 54.6965625,29.546875 56.25,29.546875 C57.8034375,29.546875 59.0625,30.8059375 59.0625,32.359375 Z M58.83,4.632625 C59.5621875,5.363875 59.5621875,6.5516875 58.83,7.283875 C58.09875,8.0160625 56.9109375,8.0160625 56.17875,7.283875 C55.4465625,6.5516875 55.4465625,5.363875 56.17875,4.632625 C56.9109375,3.9004375 58.09875,3.9004375 58.83,4.632625 Z" id="Combined-Shape" fill="url(#linearGradient-1)" style="mix-blend-mode: lighten;"></path>
    </g>
</svg>