<?xml version="1.0" encoding="utf-8"?>
<!-- Generator: Adobe Illustrator 18.0.0, SVG Export Plug-In . SVG Version: 6.00 Build 0)  -->
<!DOCTYPE svg PUBLIC "-//W3C//DTD SVG 1.1//EN" "http://www.w3.org/Graphics/SVG/1.1/DTD/svg11.dtd">
<svg version="1.1" id="Layer_1" xmlns="http://www.w3.org/2000/svg" xmlns:xlink="http://www.w3.org/1999/xlink" x="0px" y="0px"
	 width="1400px" height="1400px" viewBox="0 0 1400 1400" enable-background="new 0 0 1400 1400" xml:space="preserve">
<path fill="#E8F9F9" d="M1262.9,1158H990c53.4-34.1,100.5-77.3,139-127.4H939.7c-18.3,0-33.1-14.8-33.1-33.1v0
	c0-18.3,14.8-33.1,33.1-33.1h88.4h144.5h73.9c24,0,43.4-19.4,43.4-43.4v0c0-24-19.4-43.4-43.4-43.4h-35
	c17.7-51,27.9-105.5,29.5-162.1h-178.6c-21,0-38.1-17.1-38.1-38.1v0c0-21,17.1-38.1,38.1-38.1h175.5h18.2
	c20.5,0,37.2-16.6,37.2-37.2v0c0-20.5-16.6-37.2-37.2-37.2h-31.8c-15.9-62-42.4-119.6-77.5-171h-181c-19.6,0-35.6-15.9-35.6-35.6v0
	c0-19.6,15.9-35.6,35.6-35.6h123.1h108.5c22.6,0,41-18.3,41-41v0c0-22.6-18.3-41-41-41H988.2C904.3,187.8,804.9,157,698.3,157H137.1
	c-23.2,0-41.9,18.8-41.9,41.9v0c0,23.2,18.8,41.9,41.9,41.9h271.2h41.6c21.2,0,38.5,17.2,38.5,38.5v0c0,21.2-17.2,38.5-38.5,38.5
	H312.6c-42.7,43.1-78.3,93.3-104.7,148.7h-73.7c-21.6,0-39,17.5-39,39v0c0,21.6,17.5,39,39,39H299c11.6,5.6,19.6,17.4,19.6,31.2v0
	c0,19.1-15.5,34.5-34.5,34.5H162.7h-7.2c-22.1,0-40.1,18-40.1,40.1v0c0,22.1,17.9,40,40,40.1c-0.1,3.2-0.1,6.4-0.1,9.6
	c0,31.1,2.6,61.6,7.6,91.2h185.4c18.3,0,33.1,14.8,33.1,33.1v0c0,18.3-14.8,33.1-33.1,33.1H178.5c14,46.3,34,89.9,59.1,130h-40.7
	c-23.8,0-43,19.3-43,43v0c0,23.8,19.3,43,43,43h107.3h0h138.4c16.5,0,29.9,13.4,29.9,29.9c0,16.5-13.4,29.9-29.9,29.9h-71.6
	c91,68.8,204.3,109.6,327.2,109.6c11.8,0,23.5-0.4,35.1-1.1h529.5c23.2,0,41.9-18.8,41.9-41.9v0
	C1304.8,1176.8,1286.1,1158,1262.9,1158z M364.6,577.4L364.6,577.4c0-18.1,14.7-32.8,32.8-32.8h43.9c18.1,0,32.8,14.7,32.8,32.8v0
	c0,18.1-14.7,32.8-32.8,32.8h-43.9C379.3,610.3,364.6,595.6,364.6,577.4z M961.8,639.2L961.8,639.2c21,0,38.1,17.1,38.1,38.1v0
	c0,21-17.1,38.1-38.1,38.1h0c-21,0-38.1-17.1-38.1-38.1v0C923.7,656.3,940.8,639.2,961.8,639.2z"/>
<g>
	<path fill="#4DBED8" d="M1119.4,296.8c0-30.4-24.6-55-55-55c-19.3,0-36.3,10-46.1,25.1c-3-0.7-6.2-1.1-9.4-1.1
		c-19.6,0-36,13.1-41.2,31c-0.6,0-1.1-0.1-1.7-0.1c-20.4,0-36.9,16.5-36.9,36.9c0,20.4,16.5,36.9,36.9,36.9h153.3
		c20.4,0,36.9-16.5,36.9-36.9C1156.3,313.3,1139.8,296.8,1119.4,296.8z"/>
	<path fill="#C1C1C1" d="M1064.3,180.6c0-0.3,0-0.6,0-0.9c0-13.9-11.2-25.1-25.1-25.1c-9.5,0-17.7,5.3-22,13
		c-1.1-0.2-2.2-0.3-3.3-0.3c-9.9,0-17.9,7.7-18.6,17.4c-1.6-1-3.5-1.6-5.6-1.6c-6,0-10.9,4.9-10.9,10.9c0,6,4.9,10.9,10.9,10.9h68.5
		c7.1,0,12.9-5.8,12.9-12.9C1071.1,187,1068.3,182.8,1064.3,180.6z"/>
	<path fill="#EFEFEF" d="M867.1,1076V885.4c0-37.5,6.7-74.8,19.6-110c20.3-55.2,49.2-144.6,51.4-210.1
		c3.4-101.5-50.7-260.4-263.8-260.4c-197.4,0-241,212-246.3,275.4c-0.7,8.9-2.6,17.7-5.5,26.2L374,746.5c-2,5.7,2.2,11.6,8.2,11.6
		H419c8.5,0,15.5,6.7,15.9,15.2l3.6,89.2c1.3,32.8,30.7,57.3,63.3,52.6l55.3-7.9c13.7-2,25.9,8.7,25.9,22.5V1076H867.1z"/>
	<g>
		<path fill="#231F20" d="M402.1,503.5c-1.7,0-3-1.3-3-3s1.3-3,3-3c8.3,0,15-6.7,15-15c0-8.2-6.7-15-14.9-15c0,0-0.1,0-0.1,0
			c-0.8,0-1.6-0.3-2.2-0.9c-0.6-0.6-0.9-1.4-0.8-2.2c0-0.1,0-0.2,0-0.4l0-0.1c0-9.3-7.6-16.9-16.9-16.9c-5.8,0-11.1,2.9-14.2,7.8
			c-0.8,1.2-2.4,1.7-3.7,1.1c-2-0.9-4.1-1.2-6.2-1c-1.5,0.1-2.8-0.8-3.2-2.3c-3.4-14.3-16.1-24.4-30.9-24.4
			c-17.5,0-31.7,14.2-31.7,31.7c0,1.4,0.1,2.8,0.3,4.3c0.1,0.8-0.1,1.6-0.6,2.3c-0.5,0.6-1.3,1-2.1,1.1c-7.7,0.6-13.7,7.2-13.7,14.9
			c0,8.3,6.7,15,15,15h40.5c1.7,0,3,1.3,3,3s-1.3,3-3,3H291c-11.6,0-21-9.4-21-21c0-9.8,6.9-18.3,16.2-20.4c0-0.7-0.1-1.4-0.1-2.1
			c0-20.8,16.9-37.7,37.7-37.7c16.7,0,31.2,10.8,36.1,26.6c1.5,0.1,2.9,0.3,4.3,0.7c4.3-5.4,10.9-8.5,17.8-8.5
			c11.9,0,21.7,9.1,22.8,20.7c10.2,1.4,18.1,10.2,18.1,20.8C423,494,413.6,503.5,402.1,503.5z"/>
		<path fill="#231F20" d="M400.7,565.5h-89.8c-1.7,0-3-1.3-3-3s1.3-3,3-3h89.8c6.5,0,11.8-5.3,11.8-11.8s-5.3-11.8-11.8-11.8
			c-2.1,0-4.1,0.6-5.9,1.6c-1.2,0.7-2.7,0.5-3.6-0.5c-1-1-1.1-2.5-0.4-3.7c1.8-3.1,2.8-6.6,2.8-10.2c0-10.9-8.8-19.7-19.7-19.7
			c-1.7,0-3-1.3-3-3s1.3-3,3-3c14.2,0,25.7,11.5,25.7,25.7c0,2.3-0.3,4.6-0.9,6.8c0.7-0.1,1.4-0.1,2.1-0.1c9.8,0,17.8,8,17.8,17.8
			S410.5,565.5,400.7,565.5z"/>
		<path fill="#231F20" d="M359,503.5h-13.4c-1.7,0-3-1.3-3-3s1.3-3,3-3H359c1.7,0,3,1.3,3,3S360.6,503.5,359,503.5z"/>
		<path fill="#231F20" d="M281.1,565.5h-29.6c-1.7,0-3-1.3-3-3s1.3-3,3-3h29.6c1.7,0,3,1.3,3,3S282.8,565.5,281.1,565.5z"/>
		<path fill="#231F20" d="M230.3,565.5h-10.6c-1.7,0-3-1.3-3-3s1.3-3,3-3h10.6c1.7,0,3,1.3,3,3S232,565.5,230.3,565.5z"/>
	</g>
	<path fill="#4DBED8" d="M351.8,676.4c-0.1,0-0.2,0-0.3,0c0.2-1.6,0.3-3.1,0.3-4.7c0-23.7-19.2-43-43-43c-23.7,0-43,19.2-43,43
		c0,1.6,0.1,3.2,0.3,4.7c-0.1,0-0.2,0-0.3,0c-10.6,0-19.1,8.6-19.1,19.1s8.6,19.1,19.1,19.1h85.9c10.6,0,19.1-8.6,19.1-19.1
		S362.3,676.4,351.8,676.4z"/>
	<path fill="#C1C1C1" d="M1098,635.3c-0.1,0-0.2,0-0.2,0c0.1-1.3,0.2-2.7,0.2-4.1c0-20.5-16.6-37.1-37.1-37.1
		c-20.5,0-37.1,16.6-37.1,37.1c0,1.4,0.1,2.8,0.2,4.1c-0.1,0-0.2,0-0.2,0c-9.1,0-16.5,7.4-16.5,16.5c0,9.1,7.4,16.5,16.5,16.5h74.2
		c9.1,0,16.5-7.4,16.5-16.5C1114.5,642.7,1107.2,635.3,1098,635.3z"/>
	<path fill="#231F20" d="M591,277.1h-6.4c-1.7,0-3-1.3-3-3s1.3-3,3-3h6.4c9.2,0,16.6-7.5,16.6-16.6s-7.5-16.6-16.6-16.6
		c-1.8,0-3.7,0.3-5.5,0.9c-0.8,0.3-1.8,0.2-2.5-0.3c-0.8-0.5-1.3-1.2-1.4-2.1c-2.2-13.4-13.8-23.2-27.4-23.2
		c-15.3,0-27.8,12.5-27.8,27.8c0,1.7-1.3,3-3,3c-7.5,0-13.5,6.1-13.5,13.5c0,7.5,6.1,13.5,13.5,13.5h7.8c1.7,0,3,1.3,3,3s-1.3,3-3,3
		h-7.8c-10.8,0-19.5-8.8-19.5-19.5c0-9.8,7.2-17.9,16.7-19.3c1.4-17.3,16-31,33.7-31c15.5,0,28.7,10.3,32.6,25
		c1.4-0.3,2.8-0.4,4.2-0.4c12.5,0,22.6,10.2,22.6,22.6S603.5,277.1,591,277.1z"/>
	<path fill="#231F20" d="M1127.7,711.5H987.6c-1.7,0-3-1.3-3-3s1.3-3,3-3h140.1c6.6,0,12-5.4,12-12s-5.4-12-12-12h-54
		c-7.1,0-12.9-5.8-12.9-12.9s5.8-12.9,12.9-12.9h72c1.7,0,3,1.3,3,3s-1.3,3-3,3h-72c-3.8,0-6.9,3.1-6.9,6.9s3.1,6.9,6.9,6.9h54
		c9.9,0,18,8.1,18,18C1145.6,703.5,1137.6,711.5,1127.7,711.5z"/>
	<path fill="#231F20" d="M1218.3,661.9h-21.1c-1.7,0-3-1.3-3-3s1.3-3,3-3h21.1c4.9,0,8.8-4,8.8-8.8s-4-8.8-8.8-8.8h-28.8
		c-8.3,0-15.1-6.8-15.1-15.1c0-8.3,6.8-15.1,15.1-15.1h14.8c4.5,0,8.7-1.8,11.9-5c3.2-3.2,4.9-7.4,4.8-12
		c-0.1-8.1-6.3-15.1-14.4-16.2c-2.6-0.3-5.1-0.1-7.7,0.8c-0.8,0.3-1.8,0.2-2.5-0.3c-0.8-0.5-1.3-1.2-1.4-2.1
		c-2.2-13.4-13.8-23.2-27.4-23.2c-15.3,0-27.8,12.5-27.8,27.8c0,1.7-1.3,3-3,3c-3.7,0-7.2,1.5-9.8,4.2c-2.6,2.7-3.9,6.3-3.7,10
		c0.3,7.1,6.6,12.9,14,12.9h7.3c1.7,0,3,1.3,3,3s-1.3,3-3,3h-7.3c-10.7,0-19.5-8.2-20-18.6c-0.3-5.4,1.7-10.5,5.4-14.4
		c3-3.2,7-5.2,11.3-5.8c1.4-17.3,16-31,33.7-31c15.5,0,28.7,10.3,32.6,25c2.4-0.5,4.8-0.5,7.2-0.2c11,1.5,19.5,11,19.6,22.1
		c0.1,6.1-2.2,11.9-6.5,16.3c-4.3,4.4-10,6.8-16.1,6.8h-14.8c-5,0-9.1,4.1-9.1,9.1c0,5,4.1,9.1,9.1,9.1h28.8
		c8.2,0,14.8,6.7,14.8,14.8S1226.5,661.9,1218.3,661.9z"/>
	<path fill="#231F20" d="M893.6,1083c-3.9,0-7-3.1-7-7V885.4c0-38.4,6.7-76.2,20-112.4c18.1-49.3,48.8-141.8,51-208
		c0.7-21.6-0.9-55.1-12.9-92.6c-11.3-35.4-29.1-65.8-52.9-90.4c-45-46.5-109.3-70.1-191-70.1c-44.3,0-83.7,11.1-117.2,33
		c-28.1,18.4-52.3,44.4-72,77.5c-40.8,68.7-48.9,144.1-50.1,158.5c-0.8,9.6-2.8,19-5.9,27.9l-48.6,140.1c-0.2,0.7,0,1.2,0.2,1.6
		c0.2,0.3,0.7,0.7,1.4,0.7h36.8c12.3,0,22.4,9.6,22.9,21.9l3.6,89.2c0.6,13.7,6.9,26.5,17.4,35.3c10.5,8.7,24.3,12.7,37.9,10.7
		l55.3-7.9c8.5-1.2,17.2,1.3,23.7,7c6.5,5.6,10.2,13.8,10.2,22.5V1076c0,3.9-3.1,7-7,7s-7-3.1-7-7V929.7c0-4.6-2-8.9-5.4-11.9
		c-3.4-3-8-4.3-12.5-3.7l-55.3,7.9c-17.5,2.5-35.2-2.5-48.8-13.8c-13.6-11.3-21.7-27.8-22.5-45.5l-3.6-89.2
		c-0.2-4.8-4.1-8.5-8.9-8.5h-36.8c-5.1,0-9.9-2.5-12.8-6.6c-2.9-4.1-3.7-9.5-2-14.3l48.6-140.1c2.7-7.8,4.4-16,5.1-24.4
		c1.3-15,9.7-93.2,52.1-164.5c20.8-34.9,46.5-62.6,76.3-82.1c35.8-23.4,77.8-35.3,124.9-35.3c85.7,0,153.3,25,201.1,74.4
		c25.3,26.2,44.2,58.5,56.2,95.9c12.6,39.4,14.3,74.6,13.5,97.3c-1.2,35.7-11.1,101.5-51.8,212.3c-12.7,34.7-19.2,70.9-19.2,107.6
		V1076C900.6,1079.8,897.5,1083,893.6,1083z"/>
	<g>
		<path fill="#FED958" d="M717.1,599.7c0,0-45.4,30.8-75.4-12.2c0,0-17,18.8-43,11.4c-25.9-7.4-28.4-26.8-28.4-26.8
			s-23.5-8.1-27.6-28.4c-4.1-20.3,6.5-29.2,6.5-29.2s-15.6-11.4-7.4-38.9s38.2-24.3,38.2-24.3s-3.2-23.5,21.1-37.3s42.2,0,42.2,0
			s0-19.5,26.8-27.6c26.8-8.1,38.9,10.5,38.9,10.5s35.7-29.2,73,10.5c0,0,25.9-14.6,50.3,1.6c24.3,16.2,22.7,42.2,22.7,42.2
			s38.1,14.6,26.8,69.7c0,0,17.8,13,14.6,41.4s-32.4,36.5-32.4,36.5s-20.3,43.8-70.5,24.3c0,0-23.7,13-48.7,5
			C713.9,618.3,717.1,599.7,717.1,599.7z"/>
		<path fill="#FED958" d="M784.8,626.8c-9.1,3.1-24.3,6.4-40.1,1.4c-3.4-1.1-6.3-2.3-8.9-3.5c0,0,0,0,0,0c0,0,6.5,25.9,23.3,40.3
			c16.8,14.4,25.4,15,25.4,15s13.2-3,8.9-12C790.1,661,782,644.4,784.8,626.8z"/>
		<path fill="#231F20" d="M770.9,622.5c-6.3,0-12.5-0.9-18.2-2.8c-22.2-7.1-28.2-18.7-29.7-26c-6.4,3.4-18.2,8.3-31.7,8.3
			c-16.3,0-30.1-7.1-41-21.1c-5,4.2-15.7,11.4-30.5,11.4c0,0,0,0,0,0c-4.3,0-8.6-0.6-13-1.8c-14.4-4.1-22-11.8-25.9-17.6
			c-2.7-4.1-4-7.8-4.6-10c-6-2.5-24.2-11.6-28-30.3c-3.1-15.6,1.8-25.2,5.1-29.7c-1.6-1.7-3.5-4.3-5.1-7.9c-2.9-6.3-5.4-17-0.8-32.3
			c7.2-24.2,30-26.8,37.9-26.9c0.1-7.9,2.9-25.3,23-36.7c7.7-4.4,15.6-6.6,23.5-6.6c7.8,0,13.9,2.2,17.8,4.1c0.6-2,1.5-4.4,2.9-6.9
			c3.4-5.9,10.5-13.9,25.4-18.4c4.8-1.5,9.5-2.2,14-2.2c14.1,0,22.8,7.2,26.6,11.3c4.9-3.2,15.9-9.1,30.1-9.1
			c15.3,0,29.8,6.8,43,20.1c4.1-1.9,13.1-5.3,24.1-5.3c10,0,19.2,2.8,27.4,8.2c21.5,14.4,24.1,35.6,24.3,42.8
			c3.5,1.8,10.6,6.1,16.9,14.3c7.7,10,15.5,27.8,10.2,56.3c1.9,1.7,4.9,4.9,7.7,9.6c4,6.7,8.3,17.9,6.6,33.5
			c-3.1,26.9-27.1,36.8-33.5,39c-3.3,6.2-18,29.9-48.5,29.9c-7.7,0-15.9-1.6-24.3-4.7C798.5,617.2,786.1,622.5,770.9,622.5z
			 M726.2,584.4c0.7,0,1.3,0.2,1.9,0.6c1.2,0.8,1.8,2.2,1.5,3.5c-0.1,0.6-2,15.9,25.2,24.6c5.1,1.6,10.5,2.4,16.1,2.4
			c16.5,0,29.7-7.1,29.8-7.2c0.9-0.5,2-0.6,2.9-0.2c8.1,3.2,16,4.8,23.2,4.8c29.9,0,42.7-27,42.9-27.3c0.4-0.9,1.2-1.6,2.2-1.9
			c1.1-0.3,27-7.9,29.9-33.5c3-25.9-12.5-37.6-13.2-38.1c-1.1-0.8-1.6-2.2-1.4-3.5c10.6-51.6-24.2-65.6-24.6-65.8
			c-1.4-0.5-2.3-2-2.2-3.5c0.1-1,1.1-24.2-21.2-39c-7-4.7-14.9-7.1-23.5-7.1c-13,0-23,5.5-23.1,5.6c-1.4,0.8-3.2,0.5-4.3-0.7
			c-12.3-13.1-25.7-19.8-39.7-19.8c-16.6,0-28.4,9.4-28.5,9.5c-0.8,0.6-1.8,0.9-2.8,0.7c-1-0.2-1.9-0.7-2.4-1.5
			c-0.3-0.4-7.5-11-23-11c-3.8,0-7.8,0.6-11.9,1.9c-24,7.3-24.3,24.1-24.3,24.2c0,1.3-0.8,2.6-2,3.1c-1.2,0.6-2.6,0.4-3.7-0.4
			c-0.1,0-7.2-5.4-18.3-5.4c-6.6,0-13.4,1.9-20,5.7c-9.2,5.2-15.2,12.4-17.9,21.5c-2.1,6.8-1.4,12.3-1.4,12.3c0.1,1.1-0.2,2.1-1,2.9
			c-0.8,0.8-1.8,1.2-2.9,1c0,0-1-0.1-2.5-0.1c-7.6,0-26.1,2.1-32,21.9c-7.4,24.9,6,35,6.1,35.1c0.9,0.6,1.4,1.6,1.4,2.7
			c0,1.1-0.4,2.1-1.2,2.8c-0.3,0.3-8.9,8.1-5.3,25.8c3.6,18.1,25.1,25.7,25.3,25.8c1.3,0.4,2.2,1.5,2.3,2.9
			c0.1,0.7,2.6,17.3,25.9,23.9c3.7,1,7.4,1.6,11,1.6c17.2,0,28.3-11.9,28.4-12c0.7-0.8,1.8-1.2,2.8-1.1c1.1,0.1,2,0.6,2.6,1.5
			c9.9,14.2,22.6,21.4,37.7,21.4c17.7,0,32.7-10,32.9-10.1C724.9,584.6,725.5,584.4,726.2,584.4z"/>
		<path fill="#231F20" d="M650.8,579.2c-1.1,0-2.2-0.5-2.8-1.5c-1.1-1.6-0.8-3.8,0.8-4.9c0.9-0.7,21.3-15.8,9.1-39.1
			c-0.9-1.7-0.2-3.8,1.5-4.7c1.7-0.9,3.8-0.2,4.7,1.5c15,28.7-11,47.8-11.2,48C652.2,579,651.5,579.2,650.8,579.2z"/>
		<path fill="#231F20" d="M585.7,564.6c-2.8,0-5.2-0.4-7.1-0.9c-1.9-0.5-2.9-2.5-2.4-4.3c0.5-1.9,2.5-2.9,4.3-2.4
			c0.6,0.2,14.1,3.7,19.3-7.7c0.8-1.8,2.9-2.5,4.6-1.7c1.8,0.8,2.5,2.9,1.7,4.6C601.6,561.9,592.8,564.6,585.7,564.6z"/>
		<path fill="#231F20" d="M579.5,515.3c-10.7,0-22.7-9.4-23.3-9.8c-1.5-1.2-1.8-3.4-0.6-4.9c1.2-1.5,3.4-1.8,4.9-0.6l0,0
			c2.9,2.3,12,8.3,18.9,8.3c1.9,0,3.5,1.6,3.5,3.5S581.4,515.3,579.5,515.3z"/>
		<path fill="#231F20" d="M624.5,467.9c-1.5,0-2.9-1-3.4-2.5c-5.8-20.2-31.9-22.4-32.2-22.5c-1.9-0.1-3.4-1.8-3.2-3.8
			s1.8-3.4,3.8-3.2c0.3,0,7.8,0.6,16.3,4.2c11.5,4.9,19.1,12.9,22.1,23.3c0.5,1.9-0.5,3.8-2.4,4.3
			C625.1,467.9,624.8,467.9,624.5,467.9z"/>
		<path fill="#231F20" d="M670.6,435c-1.5,0-2.9-0.9-3.3-2.4c-5.6-17.5-17-27.7-17.1-27.8c-1.4-1.3-1.6-3.5-0.3-4.9
			c1.3-1.4,3.5-1.6,4.9-0.3c0.5,0.5,12.9,11.6,19.1,30.9c0.6,1.8-0.4,3.8-2.3,4.4C671.3,434.9,670.9,435,670.6,435z"/>
		<path fill="#231F20" d="M731.1,429c-0.1,0-0.2,0-0.4,0c-1.9-0.2-3.3-1.9-3.1-3.8c2.2-21.6-12-37.5-12.1-37.7
			c-1.3-1.4-1.2-3.6,0.2-4.9c1.4-1.3,3.6-1.2,4.9,0.2c0.7,0.7,16.4,18.4,13.9,43.1C734.4,427.7,732.9,429,731.1,429z"/>
		<path fill="#231F20" d="M778.4,420.3c-1.7,0-3.3-1.3-3.5-3.1c-0.6-5.1,1.6-10.8,6.7-16.9c3.5-4.3,7.1-7.2,7.3-7.4
			c1.5-1.2,3.7-1,4.9,0.5c1.2,1.5,1,3.7-0.5,4.9c-3.2,2.6-12.2,11.6-11.4,18c0.2,1.9-1.1,3.7-3.1,3.9
			C778.7,420.3,778.5,420.3,778.4,420.3z"/>
		<path fill="#231F20" d="M817.3,443c-1.3,0-2.5-0.7-3.1-2c-0.9-1.7-0.1-3.8,1.6-4.7c25.3-12.4,48.9-0.5,49.9,0
			c1.7,0.9,2.4,3,1.5,4.7c-0.9,1.7-3,2.4-4.7,1.5l0,0c-0.2-0.1-21.6-10.8-43.6,0C818.4,442.8,817.9,443,817.3,443z"/>
		<path fill="#231F20" d="M844.9,512.7c-1.2,0-2.4-0.6-3.1-1.8c-0.9-1.7-0.3-3.8,1.4-4.8c25.4-14.2,48.5-0.5,49.5,0.1
			c1.7,1,2.2,3.2,1.2,4.8c-1,1.7-3.2,2.2-4.8,1.2c-0.8-0.5-20.6-12.1-42.4,0.1C846.1,512.6,845.5,512.7,844.9,512.7z"/>
		<path fill="#231F20" d="M802.4,614.9c-0.3,0-0.7-0.1-1.1-0.2c-0.6-0.2-15.9-5.3-20.1-28c-0.4-1.9,0.9-3.7,2.8-4.1
			c1.9-0.4,3.7,0.9,4.1,2.8c3.5,18.7,15.2,22.6,15.3,22.6c1.8,0.6,2.9,2.5,2.3,4.4C805.3,613.9,803.9,614.9,802.4,614.9z"/>
		<path fill="#231F20" d="M726.2,591.4c-1.6,0-3-1.1-3.4-2.7c-0.3-1.3-7.9-33.3,13.5-56c1.3-1.4,3.5-1.5,4.9-0.1
			c1.4,1.3,1.5,3.5,0.1,4.9c-18.8,19.9-11.9,49.2-11.8,49.5c0.5,1.9-0.7,3.8-2.6,4.2C726.8,591.3,726.5,591.4,726.2,591.4z"/>
		<path fill="#231F20" d="M702.9,538.6c-1.7,0-3.2-1.3-3.5-3c-0.1-0.8-2.4-20.2,21.1-38.6c23.8-18.6,54.7-1,56-0.3
			c1.7,1,2.2,3.1,1.3,4.8c-1,1.7-3.1,2.2-4.8,1.3c-0.3-0.2-28.2-15.9-48.2-0.3c-20.1,15.8-18.5,31.5-18.5,32.1
			c0.2,1.9-1.1,3.7-3,3.9C703.2,538.6,703.1,538.6,702.9,538.6z"/>
		<path fill="#231F20" d="M787.4,509.7c-0.2,0-0.4,0-0.6,0c-0.3-0.1-31.2-5.6-28.7-45.5c0.1-1.9,1.8-3.4,3.7-3.3
			c1.9,0.1,3.4,1.8,3.3,3.7c-2.2,33.6,21.8,37.9,22.8,38.1c1.9,0.3,3.2,2.1,2.9,4C790.6,508.5,789.1,509.7,787.4,509.7z"/>
		<path fill="#231F20" d="M628.7,509.7c-1,0-2-0.4-2.7-1.3c-1.2-1.5-1-3.7,0.4-4.9c9.6-8,31.7-18.9,46.7-2.7
			c1.3,1.4,1.2,3.6-0.2,4.9c-1.4,1.3-3.6,1.2-4.9-0.2c-5.9-6.3-13.7-7.8-23.4-4.4c-7.7,2.7-13.7,7.7-13.8,7.7
			C630.2,509.5,629.4,509.7,628.7,509.7z"/>
		<path fill="#231F20" d="M676,471c-13.6,0-25.2-7.1-25.4-7.2c-1.6-1-2.1-3.2-1.1-4.8c1-1.6,3.2-2.1,4.8-1.1l0,0
			c1.2,0.7,29.1,17.7,45.6-7.8c1-1.6,3.2-2.1,4.8-1c1.6,1,2.1,3.2,1,4.8C697.2,467.2,686,471,676,471z"/>
		<path fill="#231F20" d="M793.6,671.6c-0.1,0-0.2,0-0.2,0c-1-0.1-10.2-1.1-27.4-15.8c-17.4-14.9-24.1-41-24.4-42.1
			c-0.1-0.5-0.1-1.1,0-1.6c0-0.1,0.1-0.2,0.1-0.3c0.3-0.9,1-1.7,1.8-2.1c1-0.4,2.1-0.4,3,0c2.6,1.2,5.4,2.4,8.4,3.3
			c5.1,1.6,10.5,2.4,16.1,2.4c8.9,0,16.7-2.1,21.8-3.8c1.2-0.4,2.4-0.2,3.4,0.6c0.9,0.8,1.4,2,1.2,3.2c-2.6,16.3,4.9,32,8.1,38.7
			l0.2,0.4c1.9,4,1.2,7.1,0.3,9c-2.8,5.7-10.6,7.6-11.5,7.8C794.1,671.6,793.8,671.6,793.6,671.6z M750.5,618.9
			c3.1,8.4,9.4,22.5,19.9,31.5c13.2,11.3,21,13.6,22.9,14.1c1.9-0.6,5.2-2,6.2-3.9c0.2-0.5,0.5-1.4-0.3-3l-0.2-0.4
			c-3.1-6.6-10.1-21.1-9.3-37.4c-5.2,1.4-11.7,2.6-18.9,2.6c-6.3,0-12.5-0.9-18.2-2.8C752,619.4,751.3,619.2,750.5,618.9z"/>
		<path fill="#231F20" d="M873,590.5c-0.4,0-0.9-0.1-1.3-0.2c-1.8-0.7-2.7-2.7-2-4.5l0,0c0.1-0.2,5.8-15.2,0-28.5
			c-0.8-1.8,0.1-3.8,1.8-4.6c1.8-0.8,3.8,0.1,4.6,1.8c6.9,16,0.3,33.1,0,33.8C875.7,589.7,874.4,590.5,873,590.5z"/>
	</g>
	<path fill="#231F20" d="M568,277.1h-15.6c-1.7,0-3-1.3-3-3s1.3-3,3-3H568c1.7,0,3,1.3,3,3S569.7,277.1,568,277.1z"/>
	<path fill="#231F20" d="M459.6,298.7h-39.5c-7.6,0-13.8-6.2-13.8-13.8s6.2-13.8,13.8-13.8h74.7c1.7,0,3,1.3,3,3s-1.3,3-3,3h-74.7
		c-4.3,0-7.8,3.5-7.8,7.8s3.5,7.8,7.8,7.8h39.5c1.7,0,3,1.3,3,3S461.3,298.7,459.6,298.7z"/>
	<path fill="#231F20" d="M484.4,319.6H370.9c-1.7,0-3-1.3-3-3s1.3-3,3-3h113.5c4.1,0,7.4-3.3,7.4-7.4s-3.3-7.4-7.4-7.4h-11.2
		c-1.7,0-3-1.3-3-3s1.3-3,3-3h11.2c7.4,0,13.4,6,13.4,13.4C497.8,313.6,491.8,319.6,484.4,319.6z"/>
	<g>
		<path fill="#231F20" d="M1014.7,479.4c-12.1,0-22.2-9.7-22.6-22c-0.4-11.8,8.3-21.7,19.7-23.2c0-0.1,0-0.1,0-0.2
			c0-16.5,13.4-29.9,29.9-29.9c16.5,0,29.9,13.4,29.9,29.9c0,1.7-1.3,3-3,3s-3-1.3-3-3c0-13.2-10.7-23.9-23.9-23.9
			c-13.2,0-23.9,10.7-23.9,23.9c0,0.8,0.1,1.7,0.2,2.7c0.1,0.9-0.2,1.7-0.8,2.3c-0.6,0.6-1.4,1-2.3,1c-0.1,0-0.3,0-0.4,0
			c-0.1,0-0.2,0-0.3,0c-9.2,0.3-16.5,8-16.2,17.2c0.3,9.2,8,16.5,17.2,16.2l100.9,0c1.7,0,3,1.3,3,3s-1.3,3-3,3h-100.8
			C1015.1,479.4,1014.9,479.4,1014.7,479.4z"/>
		<path fill="#231F20" d="M1210.5,479.4H1138c-1.7,0-3-1.3-3-3s1.3-3,3-3h72.5c1.7,0,3,1.3,3,3S1212.1,479.4,1210.5,479.4z"/>
	</g>
	<path fill="#C1C1C1" d="M279.5,356.8c0-0.4-0.1-0.7-0.1-1.1c0-16.4,13.3-29.8,29.8-29.8c11.2,0,21,6.2,26.1,15.4
		c1.3-0.2,2.6-0.4,4-0.4c11.7,0,21.2,9.1,22.1,20.6c1.9-1.2,4.2-1.9,6.6-1.9c7.1,0,12.9,5.8,12.9,12.9c0,7.1-5.8,12.9-12.9,12.9
		h-81.2c-8.4,0-15.3-6.8-15.3-15.3C271.4,364.4,274.7,359.4,279.5,356.8z"/>
	<g>
		<path fill="#231F20" d="M734.4,263.5H720c-1.4,0-2.5-1.1-2.5-2.5v-9.4c-0.9-0.2-1.7-0.4-2.6-0.7l-4.7,8.1c-0.3,0.6-0.9,1-1.5,1.2
			c-0.6,0.2-1.3,0.1-1.9-0.2l-12.5-7.2c-0.6-0.3-1-0.9-1.2-1.5c-0.2-0.6-0.1-1.3,0.2-1.9l4.7-8.1c-0.7-0.6-1.3-1.2-1.9-1.9l-8.1,4.7
			c-0.6,0.3-1.3,0.4-1.9,0.2c-0.6-0.2-1.2-0.6-1.5-1.2l-7.2-12.5c-0.3-0.6-0.4-1.3-0.2-1.9c0.2-0.6,0.6-1.2,1.2-1.5l8.1-4.7
			c-0.3-0.9-0.5-1.7-0.7-2.6h-9.4c-1.4,0-2.5-1.1-2.5-2.5v-14.4c0-1.4,1.1-2.5,2.5-2.5h9.4c0.2-0.9,0.4-1.7,0.7-2.6l-8.1-4.7
			c-0.6-0.3-1-0.9-1.2-1.5c-0.2-0.6-0.1-1.3,0.2-1.9l7.2-12.5c0.3-0.6,0.9-1,1.5-1.2c0.6-0.2,1.3-0.1,1.9,0.2l8.1,4.7
			c0.6-0.7,1.2-1.3,1.9-1.9l-4.7-8.1c-0.3-0.6-0.4-1.3-0.2-1.9c0.2-0.6,0.6-1.2,1.2-1.5l12.5-7.2c0.6-0.3,1.3-0.4,1.9-0.2
			c0.6,0.2,1.2,0.6,1.5,1.2l4.7,8.1c0.9-0.3,1.7-0.5,2.6-0.7v-9.4c0-1.4,1.1-2.5,2.5-2.5h14.4c1.4,0,2.5,1.1,2.5,2.5v9.4
			c0.9,0.2,1.7,0.4,2.6,0.7l4.7-8.1c0.3-0.6,0.9-1,1.5-1.2c0.6-0.2,1.3-0.1,1.9,0.2l12.5,7.2c0.6,0.3,1,0.9,1.2,1.5
			c0.2,0.6,0.1,1.3-0.2,1.9l-4.7,8.1c0.7,0.6,1.3,1.2,1.9,1.9l8.1-4.7c0.6-0.3,1.3-0.4,1.9-0.2c0.6,0.2,1.2,0.6,1.5,1.2l7.2,12.5
			c0.7,1.2,0.3,2.7-0.9,3.4l-8.1,4.7c0.3,0.9,0.5,1.7,0.7,2.6h9.4c1.4,0,2.5,1.1,2.5,2.5v14.4c0,1.4-1.1,2.5-2.5,2.5h-9.4
			c-0.2,0.9-0.4,1.7-0.7,2.6l8.1,4.7c1.2,0.7,1.6,2.2,0.9,3.4l-7.2,12.5c-0.3,0.6-0.9,1-1.5,1.2c-0.6,0.2-1.3,0.1-1.9-0.2l-8.1-4.7
			c-0.6,0.7-1.2,1.3-1.9,1.9l4.7,8.1c0.3,0.6,0.4,1.3,0.2,1.9c-0.2,0.6-0.6,1.2-1.2,1.5l-12.5,7.2c-0.6,0.3-1.3,0.4-1.9,0.2
			c-0.6-0.2-1.2-0.6-1.5-1.2l-4.7-8.1c-0.9,0.3-1.7,0.5-2.6,0.7v9.4C736.9,262.3,735.8,263.5,734.4,263.5z M722.5,258.5h9.4v-8.9
			c0-1.2,0.9-2.2,2.1-2.5c2-0.4,4-0.9,5.9-1.6c1.1-0.4,2.4,0.1,3,1.1l4.4,7.7l8.1-4.7l-4.4-7.7c-0.6-1-0.4-2.4,0.5-3.2
			c1.5-1.3,3-2.8,4.3-4.3c0.8-0.9,2.1-1.1,3.2-0.5l7.7,4.4l4.7-8.1l-7.7-4.4c-1-0.6-1.5-1.9-1.1-3c0.7-1.9,1.2-3.9,1.6-5.9
			c0.2-1.2,1.3-2.1,2.5-2.1h8.9v-9.4h-8.9c-1.2,0-2.2-0.9-2.5-2.1c-0.4-2-0.9-4-1.6-5.9c-0.4-1.1,0.1-2.4,1.1-3l7.7-4.4l-4.7-8.1
			l-7.7,4.4c-1,0.6-2.4,0.4-3.2-0.5c-1.3-1.5-2.8-3-4.3-4.3c-0.9-0.8-1.1-2.1-0.5-3.2l4.4-7.7l-8.1-4.7l-4.4,7.7
			c-0.6,1-1.9,1.5-3,1.1c-1.9-0.7-3.8-1.2-5.9-1.6c-1.2-0.2-2.1-1.3-2.1-2.5V162h-9.4v8.9c0,1.2-0.9,2.2-2.1,2.5
			c-2,0.4-4,0.9-5.9,1.6c-1.1,0.4-2.4-0.1-3-1.1l-4.4-7.7l-8.1,4.7l4.4,7.7c0.6,1,0.4,2.4-0.5,3.2c-1.5,1.3-3,2.8-4.3,4.3
			c-0.8,0.9-2.1,1.1-3.2,0.5l-7.7-4.4l-4.7,8.1l7.7,4.4c1,0.6,1.5,1.9,1.1,3c-0.7,1.9-1.2,3.8-1.6,5.9c-0.2,1.2-1.3,2.1-2.5,2.1H679
			v9.4h8.9c1.2,0,2.2,0.9,2.5,2.1c0.4,2,0.9,4,1.6,5.9c0.4,1.1-0.1,2.4-1.1,3l-7.7,4.4l4.7,8.1l7.7-4.4c1-0.6,2.4-0.4,3.2,0.5
			c1.3,1.5,2.8,3,4.3,4.3c0.9,0.8,1.1,2.1,0.5,3.2l-4.4,7.7l8.1,4.7l4.4-7.7c0.6-1,1.9-1.5,3-1.1c1.9,0.7,3.8,1.2,5.9,1.6
			c1.2,0.2,2.1,1.3,2.1,2.5V258.5z"/>
		<circle fill="#FED958" cx="727.2" cy="210.2" r="30.5"/>
		<path fill="#231F20" d="M727.2,231.7C727.2,231.7,727.2,231.7,727.2,231.7c-0.9,0-1.7-0.1-2.6-0.2c-0.5-0.1-0.9-0.6-0.9-1.1
			c0.1-0.5,0.6-0.9,1.1-0.9c0.8,0.1,1.5,0.1,2.3,0.1c0.8,0,1.6,0,2.4-0.1c0.6-0.1,1,0.3,1.1,0.9c0.1,0.5-0.3,1-0.9,1.1
			C729,231.7,728.1,231.7,727.2,231.7z M720,230.4c-0.1,0-0.2,0-0.4-0.1c-1.6-0.6-3.2-1.4-4.6-2.4c-0.5-0.3-0.6-0.9-0.3-1.4
			s0.9-0.6,1.4-0.3c1.3,0.9,2.7,1.6,4.2,2.2c0.5,0.2,0.8,0.8,0.6,1.3C720.7,230.2,720.4,230.4,720,230.4z M734.5,230.4
			c-0.4,0-0.8-0.2-0.9-0.6c-0.2-0.5,0.1-1.1,0.6-1.3c1.5-0.6,2.9-1.3,4.2-2.2c0.5-0.3,1.1-0.2,1.4,0.3c0.3,0.5,0.2,1.1-0.3,1.4
			c-1.4,1-3,1.8-4.6,2.4C734.7,230.4,734.6,230.4,734.5,230.4z M711.9,224.8c-0.3,0-0.5-0.1-0.7-0.3c-1.2-1.3-2.1-2.7-2.9-4.3
			c-0.3-0.5-0.1-1.1,0.4-1.4c0.5-0.3,1.1-0.1,1.4,0.4c0.7,1.4,1.6,2.7,2.7,3.9c0.4,0.4,0.3,1-0.1,1.4
			C712.4,224.8,712.1,224.8,711.9,224.8z M742.5,224.8c-0.2,0-0.5-0.1-0.7-0.3c-0.4-0.4-0.5-1-0.1-1.4c1-1.2,1.9-2.5,2.7-3.9
			c0.3-0.5,0.9-0.7,1.4-0.4c0.5,0.3,0.7,0.9,0.4,1.4c-0.8,1.5-1.8,3-2.9,4.3C743.1,224.7,742.8,224.8,742.5,224.8z M707.3,216.2
			c-0.4,0-0.9-0.3-1-0.8c-0.4-1.7-0.6-3.4-0.6-5.1c0-0.6,0.4-1,1-1c0,0,0,0,0,0c0.6,0,1,0.4,1,1c0,1.6,0.2,3.1,0.6,4.7
			c0.1,0.5-0.2,1.1-0.7,1.2C707.5,216.2,707.4,216.2,707.3,216.2z M747.1,216.1c-0.1,0-0.2,0-0.2,0c-0.5-0.1-0.9-0.7-0.7-1.2
			c0.4-1.5,0.6-3.1,0.6-4.7c0-0.6,0.4-1,1-1c0.6,0,1,0.4,1,1h-1l1,0c0,1.8-0.2,3.5-0.6,5.2C747.9,215.8,747.5,216.1,747.1,216.1z
			 M707.3,206.4c-0.1,0-0.2,0-0.2,0c-0.5-0.1-0.9-0.7-0.7-1.2c0.4-1.7,1-3.3,1.8-4.8c0.3-0.5,0.9-0.7,1.3-0.4
			c0.5,0.3,0.7,0.9,0.4,1.4c-0.7,1.4-1.3,2.9-1.7,4.4C708.2,206.1,707.8,206.4,707.3,206.4z M747.1,206.3c-0.4,0-0.9-0.3-1-0.8
			c-0.4-1.5-0.9-3-1.7-4.4c-0.3-0.5-0.1-1.1,0.4-1.4c0.5-0.3,1.1-0.1,1.4,0.4c0.8,1.5,1.4,3.2,1.9,4.8c0.1,0.5-0.2,1.1-0.7,1.2
			C747.2,206.3,747.1,206.3,747.1,206.3z M711.8,197.7c-0.2,0-0.5-0.1-0.7-0.2c-0.4-0.4-0.5-1-0.1-1.4c1.1-1.3,2.4-2.5,3.9-3.4
			c0.5-0.3,1.1-0.2,1.4,0.2c0.3,0.5,0.2,1.1-0.2,1.4c-1.3,0.9-2.5,1.9-3.5,3.1C712.4,197.6,712.1,197.7,711.8,197.7z M742.5,197.6
			c-0.3,0-0.5-0.1-0.7-0.3c-1-1.2-2.2-2.2-3.5-3.1c-0.5-0.3-0.6-0.9-0.3-1.4s0.9-0.6,1.4-0.3c1.4,1,2.7,2.1,3.9,3.4
			c0.4,0.4,0.3,1-0.1,1.4C743,197.5,742.7,197.6,742.5,197.6z M719.9,192.1c-0.4,0-0.8-0.2-0.9-0.6c-0.2-0.5,0.1-1.1,0.6-1.3
			c1.6-0.6,3.3-1,5-1.2c0.5-0.1,1,0.3,1.1,0.9s-0.3,1-0.9,1.1c-1.6,0.2-3.1,0.6-4.6,1.1C720.1,192.1,720,192.1,719.9,192.1z
			 M734.4,192.1c-0.1,0-0.2,0-0.4-0.1c-1.5-0.6-3-0.9-4.6-1.1c-0.5-0.1-0.9-0.6-0.9-1.1c0.1-0.5,0.5-0.9,1.1-0.9
			c1.7,0.2,3.4,0.6,5,1.2c0.5,0.2,0.8,0.8,0.6,1.3C735.2,191.8,734.8,192.1,734.4,192.1z"/>
	</g>
	<g>
		<path fill="#231F20" d="M633.9,188.8h-10.5c-1.1,0-2-0.9-2-2v-6.7c-0.5-0.1-1.1-0.3-1.6-0.4l-3.3,5.8c-0.3,0.5-0.7,0.8-1.2,0.9
			c-0.5,0.1-1.1,0.1-1.5-0.2l-9.1-5.2c-1-0.6-1.3-1.8-0.7-2.7l3.3-5.8c-0.4-0.4-0.8-0.8-1.2-1.2l-5.8,3.3c-0.5,0.3-1,0.3-1.5,0.2
			s-0.9-0.5-1.2-0.9l-5.2-9.1c-0.6-1-0.2-2.2,0.7-2.7l5.8-3.3c-0.2-0.5-0.3-1.1-0.4-1.6h-6.7c-1.1,0-2-0.9-2-2v-10.5
			c0-1.1,0.9-2,2-2h6.7c0.1-0.5,0.3-1.1,0.4-1.6l-5.8-3.3c-0.5-0.3-0.8-0.7-0.9-1.2c-0.1-0.5-0.1-1.1,0.2-1.5l5.2-9.1
			c0.6-1,1.8-1.3,2.7-0.7l5.8,3.3c0.4-0.4,0.8-0.8,1.2-1.2l-3.3-5.8c-0.3-0.5-0.3-1-0.2-1.5c0.1-0.5,0.5-0.9,0.9-1.2l9.1-5.2
			c1-0.6,2.2-0.2,2.7,0.7l3.3,5.8c0.5-0.2,1.1-0.3,1.6-0.4V113c0-1.1,0.9-2,2-2h10.5c1.1,0,2,0.9,2,2v6.7c0.5,0.1,1.1,0.3,1.6,0.4
			l3.3-5.8c0.6-1,1.8-1.3,2.7-0.7l9.1,5.2c0.5,0.3,0.8,0.7,0.9,1.2c0.1,0.5,0.1,1.1-0.2,1.5l-3.3,5.8c0.4,0.4,0.8,0.8,1.2,1.2
			l5.8-3.3c1-0.6,2.2-0.2,2.7,0.7l5.2,9.1c0.3,0.5,0.3,1,0.2,1.5c-0.1,0.5-0.5,0.9-0.9,1.2l-5.8,3.3c0.2,0.5,0.3,1.1,0.4,1.6h6.7
			c1.1,0,2,0.9,2,2v10.5c0,1.1-0.9,2-2,2h-6.7c-0.1,0.5-0.3,1.1-0.4,1.6l5.8,3.3c1,0.6,1.3,1.8,0.7,2.7l-5.2,9.1
			c-0.3,0.5-0.7,0.8-1.2,0.9c-0.5,0.1-1.1,0.1-1.5-0.2l-5.8-3.3c-0.4,0.4-0.8,0.8-1.2,1.2l3.3,5.8c0.3,0.5,0.3,1,0.2,1.5
			c-0.1,0.5-0.5,0.9-0.9,1.2l-9.1,5.2c-1,0.6-2.2,0.2-2.7-0.7l-3.3-5.8c-0.5,0.2-1.1,0.3-1.6,0.4v6.7
			C635.9,188,635,188.8,633.9,188.8z M625.4,184.8h6.5v-6.3c0-1,0.7-1.8,1.6-2c1.5-0.3,2.9-0.6,4.2-1.1c0.9-0.3,1.9,0,2.4,0.9
			l3.1,5.4l5.6-3.2l-3.1-5.5c-0.5-0.8-0.3-1.9,0.4-2.5c1.1-0.9,2.2-2,3.1-3.1c0.6-0.7,1.7-0.9,2.5-0.4l5.5,3.1l3.2-5.6l-5.4-3.1
			c-0.8-0.5-1.2-1.5-0.9-2.4c0.5-1.4,0.9-2.8,1.1-4.2c0.2-1,1-1.6,2-1.6h6.3v-6.5h-6.3c-1,0-1.8-0.7-2-1.6c-0.3-1.5-0.6-2.9-1.1-4.2
			c-0.3-0.9,0-1.9,0.9-2.4l5.4-3.1l-3.2-5.6l-5.5,3.1c-0.8,0.5-1.9,0.3-2.5-0.4c-0.9-1.1-2-2.2-3.1-3.1c-0.7-0.6-0.9-1.7-0.4-2.5
			l3.1-5.5l-5.6-3.2l-3.1,5.4c-0.5,0.8-1.5,1.2-2.4,0.9c-1.4-0.5-2.8-0.9-4.2-1.1c-1-0.2-1.6-1-1.6-2V115h-6.5v6.3
			c0,1-0.7,1.8-1.6,2c-1.5,0.3-2.9,0.6-4.2,1.1c-0.9,0.3-1.9,0-2.4-0.9l-3.1-5.4l-5.6,3.2l3.1,5.5c0.5,0.8,0.3,1.9-0.4,2.5
			c-1.1,0.9-2.2,2-3.1,3.1c-0.6,0.7-1.7,0.9-2.5,0.4l-5.5-3.1l-3.2,5.6l5.4,3.1c0.8,0.5,1.2,1.5,0.9,2.4c-0.5,1.4-0.9,2.8-1.1,4.2
			c-0.2,1-1,1.6-2,1.6h-6.3v6.5h6.3c1,0,1.8,0.7,2,1.6c0.3,1.5,0.6,2.9,1.1,4.2c0.3,0.9,0,1.9-0.9,2.4l-5.4,3.1l3.2,5.6l5.5-3.1
			c0.8-0.5,1.9-0.3,2.5,0.4c0.9,1.1,2,2.2,3.1,3.1c0.7,0.6,0.9,1.7,0.4,2.5l-3.1,5.5l5.6,3.2l3.1-5.4c0.5-0.8,1.5-1.2,2.4-0.9
			c1.4,0.5,2.8,0.9,4.2,1.1c1,0.2,1.6,1,1.6,2V184.8z"/>
		<circle fill="#AEAEAE" cx="628.7" cy="149.9" r="15"/>
	</g>
	<path fill="#231F20" d="M1130.8,385.7c-1.1,0-2-0.9-2-2c0-1.1,0.9-2,2-2c1.5,0,3-0.1,4.5-0.4c1.1-0.2,2.1,0.5,2.3,1.6
		c0.2,1.1-0.5,2.1-1.6,2.3C1134.3,385.6,1132.5,385.7,1130.8,385.7C1130.8,385.7,1130.8,385.7,1130.8,385.7z M1125.9,385.3
		c-0.1,0-0.2,0-0.3,0c-1.7-0.3-3.4-0.8-5.1-1.3c-1-0.4-1.6-1.5-1.2-2.6c0.4-1,1.5-1.6,2.6-1.2c1.4,0.5,2.9,0.9,4.4,1.2
		c1.1,0.2,1.8,1.2,1.6,2.3C1127.7,384.6,1126.9,385.3,1125.9,385.3z M1140.3,384c-0.8,0-1.6-0.5-1.9-1.3c-0.4-1,0.2-2.2,1.2-2.6
		c1.4-0.5,2.8-1.2,4.1-1.9c1-0.6,2.2-0.2,2.7,0.7c0.6,1,0.2,2.2-0.7,2.7c-1.5,0.9-3.1,1.6-4.7,2.2C1140.8,384,1140.6,384,1140.3,384
		z M1116.8,382c-0.3,0-0.7-0.1-1-0.3c-1.5-0.9-2.9-1.9-4.3-3c-0.8-0.7-1-2-0.2-2.8c0.7-0.8,2-1,2.8-0.2c1.2,1,2.4,1.8,3.7,2.6
		c1,0.6,1.3,1.8,0.7,2.7C1118.1,381.6,1117.5,382,1116.8,382z M1148.8,379.1c-0.6,0-1.1-0.2-1.5-0.7c-0.7-0.8-0.6-2.1,0.2-2.8
		c1.2-1,2.2-2.1,3.2-3.2c0.7-0.8,2-1,2.8-0.2c0.8,0.7,1,2,0.2,2.8c-1.1,1.3-2.4,2.6-3.7,3.7C1149.7,379,1149.2,379.1,1148.8,379.1z
		 M1109.3,375.7c-0.6,0-1.1-0.2-1.5-0.7c-1.1-1.3-2.1-2.8-3-4.3c-0.6-1-0.2-2.2,0.7-2.7c1-0.6,2.2-0.2,2.7,0.7
		c0.8,1.3,1.6,2.5,2.6,3.7c0.7,0.8,0.6,2.1-0.2,2.8C1110.2,375.6,1109.8,375.7,1109.3,375.7z M1155,371.7c-0.3,0-0.7-0.1-1-0.3
		c-1-0.6-1.3-1.8-0.7-2.7c0.8-1.3,1.4-2.7,1.9-4.1c0.4-1,1.5-1.6,2.6-1.2c1,0.4,1.6,1.5,1.2,2.6c-0.6,1.6-1.3,3.2-2.2,4.7
		C1156.4,371.3,1155.7,371.7,1155,371.7z M1104.4,367.3c-0.8,0-1.6-0.5-1.9-1.3c-0.6-1.6-1.1-3.3-1.4-5c-0.2-1.1,0.5-2.1,1.6-2.3
		c1.1-0.2,2.1,0.5,2.3,1.6c0.3,1.5,0.7,3,1.2,4.4c0.4,1-0.2,2.2-1.2,2.6C1104.9,367.3,1104.7,367.3,1104.4,367.3z M1158.3,362.6
		c-0.1,0-0.2,0-0.3,0c-1.1-0.2-1.8-1.2-1.6-2.3c0.3-1.5,0.4-3,0.4-4.5v-0.1c0-1.1,0.9-2,2-2s2,0.9,2,2v0.1c0,1.7-0.2,3.5-0.5,5.2
		C1160.1,361.9,1159.3,362.6,1158.3,362.6z M1102.7,357.7c-1.1,0-2-0.9-2-2c0,0,0-0.1,0-0.2c0-1.6,0.1-3.4,0.4-5
		c0.2-1.1,1.2-1.8,2.3-1.6c1.1,0.2,1.8,1.2,1.6,2.3c-0.3,1.5-0.4,3-0.4,4.5C1104.7,356.8,1103.9,357.7,1102.7,357.7z M1158.3,352.7
		c-1,0-1.8-0.7-2-1.6c-0.3-1.5-0.7-3-1.2-4.4c-0.4-1,0.1-2.2,1.2-2.6c1-0.4,2.2,0.1,2.6,1.2c0.6,1.6,1.1,3.3,1.4,5
		c0.2,1.1-0.5,2.1-1.6,2.3C1158.5,352.7,1158.4,352.7,1158.3,352.7z M1104.4,348.2c-0.2,0-0.5,0-0.7-0.1c-1-0.4-1.6-1.5-1.2-2.6
		c0.6-1.6,1.3-3.2,2.2-4.7c0.6-1,1.8-1.3,2.7-0.7c1,0.6,1.3,1.8,0.7,2.7c-0.8,1.3-1.4,2.7-1.9,4.1
		C1106,347.7,1105.2,348.2,1104.4,348.2z M1154.9,343.6c-0.7,0-1.4-0.4-1.7-1c-0.8-1.3-1.6-2.5-2.6-3.7c-0.7-0.8-0.6-2.1,0.2-2.8
		c0.8-0.7,2.1-0.6,2.8,0.2c1.1,1.3,2.1,2.8,3,4.3c0.6,1,0.2,2.2-0.7,2.7C1155.6,343.5,1155.3,343.6,1154.9,343.6z M1109.2,339.8
		c-0.5,0-0.9-0.2-1.3-0.5c-0.8-0.7-1-2-0.3-2.8c1.1-1.3,2.4-2.6,3.7-3.7c0.8-0.7,2.1-0.6,2.8,0.2c0.7,0.8,0.6,2.1-0.2,2.8
		c-1.2,1-2.2,2.1-3.2,3.2C1110.4,339.5,1109.8,339.8,1109.2,339.8z M1148.7,336.2c-0.5,0-0.9-0.2-1.3-0.5c-1.2-1-2.4-1.8-3.7-2.6
		c-1-0.5-1.3-1.8-0.7-2.7c0.5-1,1.8-1.3,2.7-0.7c1.5,0.9,3,1.9,4.3,3c0.8,0.7,1,2,0.3,2.8C1149.8,336,1149.2,336.2,1148.7,336.2z
		 M1116.7,333.5c-0.7,0-1.4-0.4-1.7-1c-0.6-1-0.2-2.2,0.7-2.7c1.5-0.9,3.1-1.6,4.7-2.2c1-0.4,2.2,0.2,2.6,1.2c0.4,1-0.2,2.2-1.2,2.6
		c-1.4,0.5-2.8,1.2-4.1,1.9C1117.4,333.4,1117,333.5,1116.7,333.5z M1140.2,331.4c-0.2,0-0.5,0-0.7-0.1c-1.4-0.5-2.9-0.9-4.4-1.2
		c-1.1-0.2-1.8-1.2-1.6-2.3c0.2-1.1,1.2-1.8,2.3-1.6c1.7,0.3,3.4,0.7,5.1,1.3c1,0.4,1.6,1.5,1.2,2.6
		C1141.8,330.9,1141.1,331.4,1140.2,331.4z M1125.8,330.1c-1,0-1.8-0.7-2-1.6c-0.2-1.1,0.5-2.1,1.6-2.3c1.7-0.3,3.5-0.5,5.2-0.5
		c0,0,0,0,0,0c1.1,0,2,0.9,2,2c0,1.1-0.9,2-2,2c-1.5,0-3,0.1-4.5,0.4C1126,330.1,1125.9,330.1,1125.8,330.1z"/>
	<path fill="#231F20" d="M449.6,397.9c-0.1,0-0.1,0-0.2,0c-1.8-0.2-3.6-0.6-5.3-1.1c-1.1-0.3-1.6-1.5-1.3-2.5
		c0.3-1.1,1.5-1.6,2.5-1.3c1.4,0.5,2.9,0.8,4.4,0.9c1.1,0.1,1.9,1.1,1.8,2.2C451.5,397.1,450.7,397.9,449.6,397.9z M454.6,397.9
		c-1,0-1.9-0.8-2-1.8c-0.1-1.1,0.7-2.1,1.8-2.2c1.5-0.2,3-0.5,4.4-0.9c1-0.3,2.2,0.2,2.5,1.3c0.3,1.1-0.2,2.2-1.3,2.5
		c-1.7,0.6-3.5,0.9-5.2,1.1C454.7,397.9,454.6,397.9,454.6,397.9z M440.3,394.9c-0.3,0-0.7-0.1-1-0.3c-1.5-0.9-3-2-4.3-3.2
		c-0.8-0.7-0.9-2-0.2-2.8c0.7-0.8,2-0.9,2.8-0.2c1.1,1,2.4,1.9,3.7,2.7c1,0.6,1.3,1.8,0.7,2.7C441.6,394.5,441,394.9,440.3,394.9z
		 M463.9,394.8c-0.7,0-1.4-0.4-1.7-1c-0.6-1-0.2-2.2,0.7-2.7c1.3-0.8,2.5-1.7,3.7-2.7c0.8-0.7,2.1-0.7,2.8,0.1
		c0.7,0.8,0.7,2.1-0.1,2.8c-1.3,1.2-2.8,2.3-4.3,3.2C464.6,394.8,464.3,394.8,463.9,394.8z M432.9,388.3c-0.6,0-1.2-0.3-1.6-0.8
		c-1.1-1.4-2-3-2.7-4.6c-0.5-1,0-2.2,1-2.6c1-0.5,2.2,0,2.6,1c0.6,1.4,1.4,2.7,2.3,3.9c0.7,0.9,0.5,2.1-0.4,2.8
		C433.8,388.2,433.4,388.3,432.9,388.3z M471.2,388.3c-0.4,0-0.8-0.1-1.2-0.4c-0.9-0.6-1.1-1.9-0.4-2.8c0.9-1.2,1.7-2.5,2.3-3.9
		c0.4-1,1.6-1.5,2.6-1c1,0.4,1.5,1.6,1,2.6c-0.7,1.6-1.6,3.2-2.7,4.6C472.5,388,471.9,388.3,471.2,388.3z M428.9,379.3
		c-0.9,0-1.8-0.6-2-1.6c-0.4-1.7-0.6-3.5-0.6-5.3c0-1.1,0.9-2,2-2c0,0,0,0,0,0c1.1,0,2,0.9,2,2c0,1.5,0.2,3,0.5,4.5
		c0.2,1.1-0.5,2.1-1.5,2.4C429.2,379.3,429.1,379.3,428.9,379.3z M475.3,379.3c-0.1,0-0.3,0-0.4,0c-1.1-0.2-1.8-1.3-1.5-2.4
		c0.3-1.5,0.5-3,0.5-4.5c0-1.1,0.9-2,2-2s2,0.8,2,2v0.1c0,1.8-0.2,3.6-0.6,5.3C477,378.6,476.2,379.3,475.3,379.3z M428.9,369.5
		c-0.1,0-0.3,0-0.4,0c-1.1-0.2-1.8-1.3-1.5-2.4c0.4-1.8,0.9-3.5,1.6-5.1c0.4-1,1.6-1.5,2.6-1c1,0.4,1.5,1.6,1,2.6
		c-0.6,1.4-1.1,2.8-1.4,4.3C430.7,368.8,429.8,369.5,428.9,369.5z M475.2,369.3c-0.9,0-1.8-0.6-2-1.6c-0.3-1.5-0.8-2.9-1.4-4.3
		c-0.5-1,0-2.2,1-2.6c1-0.5,2.2,0,2.6,1c0.7,1.6,1.3,3.4,1.7,5.1c0.2,1.1-0.5,2.1-1.5,2.4C475.5,369.3,475.4,369.3,475.2,369.3z
		 M432.9,360.5c-0.4,0-0.8-0.1-1.2-0.4c-0.9-0.6-1.1-1.9-0.4-2.8c1-1.4,2.3-2.8,3.6-4c0.8-0.7,2.1-0.7,2.8,0.1
		c0.7,0.8,0.7,2.1-0.1,2.8c-1.1,1-2.1,2.2-3,3.4C434.1,360.2,433.5,360.5,432.9,360.5z M471.2,360.4c-0.6,0-1.2-0.3-1.6-0.8
		c-0.9-1.2-1.9-2.3-3-3.4c-0.8-0.7-0.9-2-0.2-2.8c0.7-0.8,2-0.9,2.8-0.2c1.3,1.2,2.5,2.5,3.6,4c0.7,0.9,0.5,2.1-0.4,2.8
		C472,360.2,471.6,360.4,471.2,360.4z M440.2,353.9c-0.7,0-1.4-0.4-1.7-1c-0.6-1-0.2-2.2,0.7-2.7c1.5-0.9,3.2-1.6,4.9-2.2
		c1-0.3,2.2,0.2,2.5,1.3c0.3,1-0.2,2.2-1.3,2.5c-1.4,0.5-2.8,1.1-4.1,1.9C440.9,353.8,440.5,353.9,440.2,353.9z M463.9,353.8
		c-0.3,0-0.7-0.1-1-0.3c-1.3-0.8-2.7-1.4-4.1-1.8c-1.1-0.3-1.6-1.5-1.3-2.5s1.5-1.6,2.5-1.3c1.7,0.5,3.4,1.3,4.9,2.2
		c1,0.5,1.3,1.8,0.7,2.7C465.2,353.4,464.5,353.8,463.9,353.8z M449.5,350.8c-1,0-1.9-0.8-2-1.8c-0.1-1.1,0.7-2.1,1.8-2.2
		c1.8-0.2,3.6-0.2,5.4,0c1.1,0.1,1.9,1.1,1.8,2.2c-0.1,1.1-1.1,1.9-2.2,1.8c-1.5-0.1-3-0.1-4.5,0
		C449.7,350.8,449.6,350.8,449.5,350.8z"/>
	<g>
		<path fill="#FED958" d="M926.6,170.9c0-35.6-29.8-64.3-65.9-62.4c-32.5,1.7-58.4,28.5-59.1,61c-0.4,19.1,7.7,36.2,20.8,48
			c11.6,10.4,18,25.5,18,41.1v3.1h47.4v-3.7c0-15.6,6.8-30.3,18.4-40.8C918.8,205.7,926.6,189.2,926.6,170.9z"/>
		<path fill="#231F20" d="M887.8,290h-47.4c-0.8,0-1.5-0.7-1.5-1.5v-26.9c0-0.8,0.7-1.5,1.5-1.5h47.4c0.8,0,1.5,0.7,1.5,1.5v26.9
			C889.3,289.4,888.7,290,887.8,290z M841.9,287h44.4v-23.9h-44.4V287z"/>
		<path fill="#231F20" d="M812.2,120.8c-0.5,0-1-0.2-1.4-0.6l-10.7-10.4c-0.8-0.8-0.8-2,0-2.8c0.8-0.8,2-0.8,2.8,0l10.7,10.4
			c0.8,0.8,0.8,2,0,2.8C813.3,120.6,812.7,120.8,812.2,120.8z"/>
		<path fill="#231F20" d="M915.9,120.8c-0.5,0-1-0.2-1.4-0.6c-0.8-0.8-0.8-2.1,0-2.8l10.7-10.4c0.8-0.8,2.1-0.8,2.8,0
			c0.8,0.8,0.8,2.1,0,2.8l-10.7,10.4C916.9,120.6,916.4,120.8,915.9,120.8z"/>
		<path fill="#231F20" d="M864,99c-1.1,0-2-0.9-2-2V81.4c0-1.1,0.9-2,2-2s2,0.9,2,2V97C866,98.1,865.1,99,864,99z"/>
		<path fill="#231F20" d="M871.1,299.7h-13.9c-2.3,0-4.2-1.9-4.2-4.1v-7c0-0.8,0.7-1.5,1.5-1.5h19.2c0.8,0,1.5,0.7,1.5,1.5v7
			C875.2,297.8,873.4,299.7,871.1,299.7z M856,290v5.5c0,0.6,0.5,1.1,1.2,1.1h13.9c0.6,0,1.1-0.5,1.1-1.1V290H856z"/>
		<path fill="#231F20" d="M880.5,270.5h-32.7c-0.8,0-1.5-0.7-1.5-1.5s0.7-1.5,1.5-1.5h32.7c0.8,0,1.5,0.7,1.5,1.5
			S881.3,270.5,880.5,270.5z"/>
		<path fill="#231F20" d="M880.5,276.6h-32.7c-0.8,0-1.5-0.7-1.5-1.5s0.7-1.5,1.5-1.5h32.7c0.8,0,1.5,0.7,1.5,1.5
			S881.3,276.6,880.5,276.6z"/>
		<path fill="#231F20" d="M880.5,282.6h-32.7c-0.8,0-1.5-0.7-1.5-1.5s0.7-1.5,1.5-1.5h32.7c0.8,0,1.5,0.7,1.5,1.5
			S881.3,282.6,880.5,282.6z"/>
	</g>
	<path fill="#231F20" d="M983,316.1h-10.5c-1.1,0-2-0.9-2-2v-6.7c-0.5-0.1-1.1-0.3-1.6-0.4l-3.3,5.8c-0.3,0.5-0.7,0.8-1.2,0.9
		c-0.5,0.1-1.1,0.1-1.5-0.2l-9.1-5.2c-0.5-0.3-0.8-0.7-0.9-1.2c-0.1-0.5-0.1-1.1,0.2-1.5l3.3-5.8c-0.4-0.4-0.8-0.8-1.2-1.2l-5.8,3.3
		c-1,0.6-2.2,0.2-2.7-0.7l-5.2-9.1c-0.6-1-0.2-2.2,0.7-2.7l5.8-3.3c-0.2-0.5-0.3-1.1-0.4-1.6h-6.7c-1.1,0-2-0.9-2-2V272
		c0-1.1,0.9-2,2-2h6.7c0.1-0.5,0.3-1.1,0.4-1.6l-5.8-3.3c-1-0.6-1.3-1.8-0.7-2.7l5.2-9.1c0.3-0.5,0.7-0.8,1.2-0.9
		c0.5-0.1,1.1-0.1,1.5,0.2l5.8,3.3c0.4-0.4,0.8-0.8,1.2-1.2l-3.3-5.8c-0.3-0.5-0.3-1-0.2-1.5c0.1-0.5,0.5-0.9,0.9-1.2l9.1-5.2
		c1-0.6,2.2-0.2,2.7,0.7l3.3,5.8c0.5-0.2,1.1-0.3,1.6-0.4v-6.7c0-1.1,0.9-2,2-2H983c1.1,0,2,0.9,2,2v6.7c0.5,0.1,1.1,0.3,1.6,0.4
		l3.3-5.8c0.3-0.5,0.7-0.8,1.2-0.9c0.5-0.1,1.1-0.1,1.5,0.2l9.1,5.2c1,0.6,1.3,1.8,0.7,2.7l-3.3,5.8c0.4,0.4,0.8,0.8,1.2,1.2
		l5.8-3.3c0.5-0.3,1-0.3,1.5-0.2c0.5,0.1,0.9,0.5,1.2,0.9l5.2,9.1c0.6,1,0.2,2.2-0.7,2.7l-5.8,3.3c0.2,0.5,0.3,1.1,0.4,1.6h6.7
		c1.1,0,2,0.9,2,2v10.5c0,1.1-0.9,2-2,2h-6.7c-0.1,0.5-0.3,1.1-0.4,1.6l5.8,3.3c1,0.6,1.3,1.8,0.7,2.7l-5.2,9.1
		c-0.6,1-1.8,1.3-2.7,0.7l-5.8-3.3c-0.4,0.4-0.8,0.8-1.2,1.2l3.3,5.8c0.6,1,0.2,2.2-0.7,2.7l-9.1,5.2c-0.5,0.3-1,0.3-1.5,0.2
		c-0.5-0.1-0.9-0.5-1.2-0.9l-3.3-5.8c-0.5,0.2-1.1,0.3-1.6,0.4v6.7C985,315.2,984.1,316.1,983,316.1z M974.5,312.1h6.5v-6.3
		c0-1,0.7-1.8,1.6-2c1.5-0.3,2.9-0.6,4.2-1.1c0.9-0.3,1.9,0,2.4,0.9l3.1,5.4l5.6-3.2l-3.1-5.5c-0.5-0.8-0.3-1.9,0.4-2.5
		c1.1-0.9,2.2-2,3.1-3.1c0.6-0.7,1.7-0.9,2.5-0.4l5.5,3.1l3.2-5.6l-5.4-3.1c-0.8-0.5-1.2-1.5-0.9-2.4c0.5-1.4,0.9-2.8,1.1-4.2
		c0.2-1,1-1.6,2-1.6h6.3V274h-6.3c-1,0-1.8-0.7-2-1.6c-0.3-1.5-0.6-2.9-1.1-4.2c-0.3-0.9,0-1.9,0.9-2.4l5.4-3.1l-3.2-5.6l-5.5,3.1
		c-0.8,0.5-1.9,0.3-2.5-0.4c-0.9-1.1-2-2.2-3.1-3.1c-0.7-0.6-0.9-1.7-0.4-2.5l3.1-5.5l-5.6-3.2l-3.1,5.4c-0.5,0.8-1.5,1.2-2.4,0.9
		c-1.4-0.5-2.8-0.9-4.2-1.1c-1-0.2-1.6-1-1.6-2v-6.3h-6.5v6.3c0,1-0.7,1.8-1.6,2c-1.5,0.3-2.9,0.6-4.2,1.1c-0.9,0.3-1.9,0-2.4-0.9
		l-3.1-5.4l-5.6,3.2l3.1,5.5c0.5,0.8,0.3,1.9-0.4,2.5c-1.1,0.9-2.2,2-3.1,3.1c-0.6,0.7-1.7,0.9-2.5,0.4l-5.5-3.1l-3.2,5.6l5.4,3.1
		c0.8,0.5,1.2,1.5,0.9,2.4c-0.5,1.4-0.9,2.8-1.1,4.2c-0.2,1-1,1.6-2,1.6h-6.3v6.5h6.3c1,0,1.8,0.7,2,1.6c0.3,1.5,0.6,2.9,1.1,4.2
		c0.3,0.9,0,1.9-0.9,2.4l-5.4,3.1l3.2,5.6l5.5-3.1c0.8-0.5,1.9-0.3,2.5,0.4c0.9,1.1,2,2.2,3.1,3.1c0.7,0.6,0.9,1.7,0.4,2.5l-3.1,5.5
		l5.6,3.2l3.1-5.4c0.5-0.8,1.5-1.2,2.4-0.9c1.4,0.5,2.8,0.9,4.2,1.1c1,0.2,1.6,1,1.6,2V312.1z"/>
	<path fill="#231F20" d="M218.1,698.5c-1.1,0-2-0.8-2-1.9l-0.4-10.3c-1.3-0.2-2.5-0.5-3.7-0.8l-4.8,9.2c-0.2,0.5-0.7,0.8-1.2,1
		c-0.5,0.2-1.1,0.1-1.5-0.1l-13.4-7c-1-0.5-1.4-1.7-0.8-2.7l4.8-9.2c-1-0.8-1.9-1.7-2.8-2.6l-8.7,5.5c-0.4,0.3-1,0.4-1.5,0.3
		c-0.5-0.1-1-0.4-1.3-0.9l-8.1-12.8c-0.6-0.9-0.3-2.2,0.6-2.8l8.7-5.5c-0.4-1.2-0.8-2.4-1.1-3.6l-10.3,0.4c-1.1,0-2-0.8-2.1-1.9
		l-0.6-15.1c0-0.5,0.2-1,0.5-1.4c0.4-0.4,0.9-0.6,1.4-0.6l10.3-0.4c0.2-1.3,0.5-2.5,0.8-3.7l-9.2-4.8c-1-0.5-1.4-1.7-0.8-2.7l7-13.4
		c0.2-0.5,0.7-0.8,1.2-1c0.5-0.2,1.1-0.1,1.5,0.1l9.2,4.8c0.8-1,1.7-1.9,2.6-2.8l-5.5-8.7c-0.6-0.9-0.3-2.2,0.6-2.8l12.8-8.1
		c0.4-0.3,1-0.4,1.5-0.3c0.5,0.1,1,0.4,1.3,0.9l5.5,8.7c1.2-0.4,2.4-0.8,3.6-1.1l-0.4-10.3c0-0.5,0.2-1,0.5-1.4
		c0.4-0.4,0.9-0.6,1.4-0.6l15.1-0.6c1.1,0,2,0.8,2.1,1.9l0.4,10.3c1.3,0.2,2.5,0.5,3.7,0.8l4.8-9.2c0.5-1,1.7-1.4,2.7-0.8l13.4,7
		c1,0.5,1.4,1.7,0.8,2.7l-4.8,9.2c1,0.8,1.9,1.7,2.8,2.6l8.7-5.5c0.9-0.6,2.2-0.3,2.8,0.6l8.1,12.8c0.6,0.9,0.3,2.2-0.6,2.8
		l-8.7,5.5c0.4,1.2,0.8,2.4,1.1,3.6l10.3-0.4c1.1,0,2,0.8,2.1,1.9l0.6,15.1c0,0.5-0.2,1-0.5,1.4c-0.4,0.4-0.9,0.6-1.4,0.6l-10.3,0.4
		c-0.2,1.3-0.5,2.5-0.8,3.7l9.2,4.8c0.5,0.2,0.8,0.7,1,1.2s0.1,1.1-0.1,1.5l-7,13.4c-0.2,0.5-0.7,0.8-1.2,1
		c-0.5,0.2-1.1,0.1-1.5-0.1l-9.2-4.8c-0.8,1-1.7,1.9-2.6,2.8l5.5,8.7c0.6,0.9,0.3,2.2-0.6,2.8l-12.8,8.1c-0.4,0.3-1,0.4-1.5,0.3
		c-0.5-0.1-1-0.4-1.3-0.9l-5.5-8.7c-1.2,0.4-2.4,0.8-3.6,1.1l0.4,10.3c0,0.5-0.2,1-0.5,1.4c-0.4,0.4-0.9,0.6-1.4,0.6L218.1,698.5
		C218.1,698.5,218.1,698.5,218.1,698.5z M210.9,681.1c0.2,0,0.4,0,0.6,0.1c2,0.6,4.2,1.1,6.3,1.4c1,0.1,1.7,0.9,1.7,1.9l0.4,10
		l11.1-0.5l-0.4-10c0-1,0.6-1.8,1.6-2c2.1-0.5,4.2-1.1,6.2-1.9c0.9-0.4,1.9,0,2.4,0.8l5.3,8.4l9.4-6l-5.3-8.4
		c-0.5-0.8-0.4-1.9,0.3-2.5c1.6-1.5,3.1-3.1,4.4-4.8c0.6-0.8,1.6-1,2.5-0.5l8.8,4.6l5.2-9.9l-8.8-4.6c-0.9-0.4-1.3-1.4-1-2.4
		c0.6-2,1.1-4.2,1.4-6.3c0.1-1,0.9-1.7,1.9-1.7l10-0.4l-0.5-11.1l-10,0.4c-1,0-1.8-0.6-2-1.6c-0.5-2.1-1.1-4.2-1.9-6.2
		c-0.4-0.9,0-1.9,0.8-2.4l8.4-5.3l-6-9.4l-8.4,5.3c-0.8,0.5-1.9,0.4-2.5-0.3c-1.5-1.6-3.1-3.1-4.8-4.4c-0.8-0.6-1-1.6-0.5-2.5
		l4.6-8.8l-9.9-5.2l-4.6,8.8c-0.4,0.9-1.4,1.3-2.4,1c-2-0.6-4.2-1.1-6.3-1.4c-1-0.1-1.7-0.9-1.7-1.9l-0.4-10l-11.1,0.5l0.4,10
		c0,1-0.6,1.8-1.6,2c-2.1,0.5-4.2,1.1-6.2,1.9c-0.9,0.4-1.9,0-2.4-0.8l-5.3-8.4l-9.4,6l5.3,8.4c0.5,0.8,0.4,1.9-0.3,2.5
		c-1.6,1.5-3.1,3.1-4.4,4.8c-0.6,0.8-1.6,1-2.5,0.5l-8.8-4.6l-5.2,9.9l8.8,4.6c0.9,0.4,1.3,1.4,1,2.4c-0.6,2-1.1,4.2-1.4,6.3
		c-0.1,1-0.9,1.7-1.9,1.7l-10,0.4l0.5,11.1l10-0.4c1,0,1.8,0.6,2,1.6c0.5,2.1,1.1,4.2,1.9,6.2c0.4,0.9,0,1.9-0.8,2.4l-8.4,5.3l6,9.4
		l8.4-5.3c0.8-0.5,1.9-0.4,2.5,0.3c1.5,1.6,3.1,3.1,4.8,4.4c0.8,0.6,1,1.6,0.5,2.5l-4.6,8.8l9.9,5.2l4.6-8.8
		C209.5,681.5,210.2,681.1,210.9,681.1z"/>
	<g>
		<g>
			<path fill="#231F20" d="M434.8,211.9c-0.8,0-1.5-0.3-2.1-0.9c-1.2-1.2-1.2-3.1,0-4.2l10.6-10.6c1.2-1.2,3.1-1.2,4.2,0
				c1.2,1.2,1.2,3.1,0,4.2L437,211C436.4,211.6,435.6,211.9,434.8,211.9z"/>
			<path fill="#231F20" d="M458.7,188c-0.8,0-1.5-0.3-2.1-0.9c-1.2-1.2-1.2-3.1,0-4.2l10.6-10.6c1.2-1.2,3.1-1.2,4.2,0
				c1.2,1.2,1.2,3.1,0,4.2l-10.6,10.6C460.3,187.7,459.5,188,458.7,188z"/>
		</g>
		<g>
			<path fill="#231F20" d="M469.3,211.9c-0.8,0-1.5-0.3-2.1-0.9l-10.6-10.6c-1.2-1.2-1.2-3.1,0-4.2c1.2-1.2,3.1-1.2,4.2,0l10.6,10.6
				c1.2,1.2,1.2,3.1,0,4.2C470.9,211.6,470.1,211.9,469.3,211.9z"/>
			<path fill="#231F20" d="M445.5,188c-0.8,0-1.5-0.3-2.1-0.9l-10.6-10.6c-1.2-1.2-1.2-3.1,0-4.2c1.2-1.2,3.1-1.2,4.2,0l10.6,10.6
				c1.2,1.2,1.2,3.1,0,4.2C447,187.7,446.2,188,445.5,188z"/>
		</g>
	</g>
	<g>
		<g>
			<path fill="#231F20" d="M1193.2,427.3c-0.8,0-1.5-0.3-2.1-0.9c-1.2-1.2-1.2-3.1,0-4.2l10.6-10.6c1.2-1.2,3.1-1.2,4.2,0
				c1.2,1.2,1.2,3.1,0,4.2l-10.6,10.6C1194.8,427,1194,427.3,1193.2,427.3z"/>
			<path fill="#231F20" d="M1217.1,403.4c-0.8,0-1.5-0.3-2.1-0.9c-1.2-1.2-1.2-3.1,0-4.2l10.6-10.6c1.2-1.2,3.1-1.2,4.2,0
				c1.2,1.2,1.2,3.1,0,4.2l-10.6,10.6C1218.6,403.1,1217.9,403.4,1217.1,403.4z"/>
		</g>
		<g>
			<path fill="#231F20" d="M1227.7,427.3c-0.8,0-1.5-0.3-2.1-0.9l-10.6-10.6c-1.2-1.2-1.2-3.1,0-4.2c1.2-1.2,3.1-1.2,4.2,0
				l10.6,10.6c1.2,1.2,1.2,3.1,0,4.2C1229.2,427,1228.5,427.3,1227.7,427.3z"/>
			<path fill="#231F20" d="M1203.8,403.4c-0.8,0-1.5-0.3-2.1-0.9l-10.6-10.6c-1.2-1.2-1.2-3.1,0-4.2c1.2-1.2,3.1-1.2,4.2,0
				l10.6,10.6c1.2,1.2,1.2,3.1,0,4.2C1205.4,403.1,1204.6,403.4,1203.8,403.4z"/>
		</g>
	</g>
	<path fill="#231F20" d="M225,439.8c-9.6,0-17.5-7.9-17.5-17.5s7.9-17.5,17.5-17.5s17.5,7.9,17.5,17.5S234.7,439.8,225,439.8z
		 M225,410.8c-6.3,0-11.5,5.2-11.5,11.5s5.2,11.5,11.5,11.5c6.3,0,11.5-5.2,11.5-11.5S231.4,410.8,225,410.8z"/>
	<g>
		<rect x="1030.8" y="528.5" fill="#4DBED8" width="28.3" height="28.3"/>
		<path fill="#231F20" d="M1066.6,565.9h-5c-0.8,0-1.5-0.7-1.5-1.5s0.7-1.5,1.5-1.5h3.5v-2.2c0-0.8,0.7-1.5,1.5-1.5s1.5,0.7,1.5,1.5
			v3.7C1068.1,565.2,1067.5,565.9,1066.6,565.9z M1056.6,565.9h-5c-0.8,0-1.5-0.7-1.5-1.5s0.7-1.5,1.5-1.5h5c0.8,0,1.5,0.7,1.5,1.5
			S1057.5,565.9,1056.6,565.9z M1046.6,565.9h-5c-0.8,0-1.5-0.7-1.5-1.5s0.7-1.5,1.5-1.5h5c0.8,0,1.5,0.7,1.5,1.5
			S1047.5,565.9,1046.6,565.9z M1036.6,565.9h-5c-0.8,0-1.5-0.7-1.5-1.5s0.7-1.5,1.5-1.5h5c0.8,0,1.5,0.7,1.5,1.5
			S1037.5,565.9,1036.6,565.9z M1026.6,565.9h-3.4c-0.8,0-1.5-0.7-1.5-1.5v-1.6c0-0.8,0.7-1.5,1.5-1.5s1.5,0.7,1.5,1.5v0.1h1.9
			c0.8,0,1.5,0.7,1.5,1.5S1027.5,565.9,1026.6,565.9z M1023.2,559.3c-0.8,0-1.5-0.7-1.5-1.5v-5c0-0.8,0.7-1.5,1.5-1.5
			s1.5,0.7,1.5,1.5v5C1024.7,558.6,1024,559.3,1023.2,559.3z M1066.6,557.2c-0.8,0-1.5-0.7-1.5-1.5v-5c0-0.8,0.7-1.5,1.5-1.5
			s1.5,0.7,1.5,1.5v5C1068.1,556.5,1067.5,557.2,1066.6,557.2z M1023.2,549.3c-0.8,0-1.5-0.7-1.5-1.5v-5c0-0.8,0.7-1.5,1.5-1.5
			s1.5,0.7,1.5,1.5v5C1024.7,548.6,1024,549.3,1023.2,549.3z M1066.6,547.2c-0.8,0-1.5-0.7-1.5-1.5v-5c0-0.8,0.7-1.5,1.5-1.5
			s1.5,0.7,1.5,1.5v5C1068.1,546.5,1067.5,547.2,1066.6,547.2z M1023.2,539.3c-0.8,0-1.5-0.7-1.5-1.5v-5c0-0.8,0.7-1.5,1.5-1.5
			s1.5,0.7,1.5,1.5v5C1024.7,538.6,1024,539.3,1023.2,539.3z M1066.6,537.2c-0.8,0-1.5-0.7-1.5-1.5v-5c0-0.8,0.7-1.5,1.5-1.5
			s1.5,0.7,1.5,1.5v5C1068.1,536.5,1067.5,537.2,1066.6,537.2z M1023.2,529.3c-0.8,0-1.5-0.7-1.5-1.5v-5c0-0.8,0.7-1.5,1.5-1.5
			s1.5,0.7,1.5,1.5v5C1024.7,528.6,1024,529.3,1023.2,529.3z M1066.6,527.2c-0.8,0-1.5-0.7-1.5-1.5v-3.9c-0.2-0.2-0.3-0.5-0.3-0.9
			c0-0.8,0.7-1.5,1.5-1.5h0.3c0.8,0,1.5,0.7,1.5,1.5v4.7C1068.1,526.5,1067.5,527.2,1066.6,527.2z M1061.4,522.4h-5
			c-0.8,0-1.5-0.7-1.5-1.5s0.7-1.5,1.5-1.5h5c0.8,0,1.5,0.7,1.5,1.5S1062.2,522.4,1061.4,522.4z M1051.4,522.4h-5
			c-0.8,0-1.5-0.7-1.5-1.5s0.7-1.5,1.5-1.5h5c0.8,0,1.5,0.7,1.5,1.5S1052.2,522.4,1051.4,522.4z M1041.4,522.4h-5
			c-0.8,0-1.5-0.7-1.5-1.5s0.7-1.5,1.5-1.5h5c0.8,0,1.5,0.7,1.5,1.5S1042.2,522.4,1041.4,522.4z M1031.4,522.4h-5
			c-0.8,0-1.5-0.7-1.5-1.5s0.7-1.5,1.5-1.5h5c0.8,0,1.5,0.7,1.5,1.5S1032.2,522.4,1031.4,522.4z"/>
	</g>
	<g>
		<rect x="335.1" y="228" fill="#4DBED8" width="33.7" height="33.7"/>
		<path fill="#231F20" d="M377.9,272.2h-5c-0.8,0-1.5-0.7-1.5-1.5s0.7-1.5,1.5-1.5h3.6c-0.1-0.2-0.1-0.4-0.1-0.6v-5
			c0-0.8,0.7-1.5,1.5-1.5s1.5,0.7,1.5,1.5v5c0,0.4-0.2,0.8-0.4,1c0.3,0.3,0.4,0.6,0.4,1C379.4,271.5,378.7,272.2,377.9,272.2z
			 M367.9,272.2h-5c-0.8,0-1.5-0.7-1.5-1.5s0.7-1.5,1.5-1.5h5c0.8,0,1.5,0.7,1.5,1.5S368.7,272.2,367.9,272.2z M357.9,272.2h-5
			c-0.8,0-1.5-0.7-1.5-1.5s0.7-1.5,1.5-1.5h5c0.8,0,1.5,0.7,1.5,1.5S358.7,272.2,357.9,272.2z M347.9,272.2h-5
			c-0.8,0-1.5-0.7-1.5-1.5s0.7-1.5,1.5-1.5h5c0.8,0,1.5,0.7,1.5,1.5S348.7,272.2,347.9,272.2z M337.9,272.2h-5
			c-0.8,0-1.5-0.7-1.5-1.5s0.7-1.5,1.5-1.5h5c0.8,0,1.5,0.7,1.5,1.5S338.7,272.2,337.9,272.2z M327.9,272.2h-1.8
			c-0.8,0-1.5-0.7-1.5-1.5v-3.2c0-0.8,0.7-1.5,1.5-1.5s1.5,0.7,1.5,1.5v1.7h0.3c0.8,0,1.5,0.7,1.5,1.5S328.7,272.2,327.9,272.2z
			 M326.1,264c-0.8,0-1.5-0.7-1.5-1.5v-5c0-0.8,0.7-1.5,1.5-1.5s1.5,0.7,1.5,1.5v5C327.6,263.3,326.9,264,326.1,264z M377.9,260.2
			c-0.8,0-1.5-0.7-1.5-1.5v-5c0-0.8,0.7-1.5,1.5-1.5s1.5,0.7,1.5,1.5v5C379.4,259.5,378.7,260.2,377.9,260.2z M326.1,254
			c-0.8,0-1.5-0.7-1.5-1.5v-5c0-0.8,0.7-1.5,1.5-1.5s1.5,0.7,1.5,1.5v5C327.6,253.3,326.9,254,326.1,254z M377.9,250.2
			c-0.8,0-1.5-0.7-1.5-1.5v-5c0-0.8,0.7-1.5,1.5-1.5s1.5,0.7,1.5,1.5v5C379.4,249.5,378.7,250.2,377.9,250.2z M326.1,244
			c-0.8,0-1.5-0.7-1.5-1.5v-5c0-0.8,0.7-1.5,1.5-1.5s1.5,0.7,1.5,1.5v5C327.6,243.3,326.9,244,326.1,244z M377.9,240.2
			c-0.8,0-1.5-0.7-1.5-1.5v-5c0-0.8,0.7-1.5,1.5-1.5s1.5,0.7,1.5,1.5v5C379.4,239.5,378.7,240.2,377.9,240.2z M326.1,234
			c-0.8,0-1.5-0.7-1.5-1.5v-5c0-0.8,0.7-1.5,1.5-1.5s1.5,0.7,1.5,1.5v5C327.6,233.3,326.9,234,326.1,234z M377.9,230.2
			c-0.8,0-1.5-0.7-1.5-1.5v-5c0-0.8,0.7-1.5,1.5-1.5s1.5,0.7,1.5,1.5v5C379.4,229.5,378.7,230.2,377.9,230.2z M326.1,224
			c-0.8,0-1.5-0.7-1.5-1.5v-3.5c0-0.8,0.7-1.5,1.5-1.5h1.5c0.8,0,1.5,0.7,1.5,1.5c0,0.8-0.7,1.5-1.5,1.5v2
			C327.6,223.3,326.9,224,326.1,224z M377.6,220.4h-5c-0.8,0-1.5-0.7-1.5-1.5s0.7-1.5,1.5-1.5h5c0.8,0,1.5,0.7,1.5,1.5
			S378.4,220.4,377.6,220.4z M367.6,220.4h-5c-0.8,0-1.5-0.7-1.5-1.5s0.7-1.5,1.5-1.5h5c0.8,0,1.5,0.7,1.5,1.5
			S368.4,220.4,367.6,220.4z M357.6,220.4h-5c-0.8,0-1.5-0.7-1.5-1.5s0.7-1.5,1.5-1.5h5c0.8,0,1.5,0.7,1.5,1.5
			S358.4,220.4,357.6,220.4z M347.6,220.4h-5c-0.8,0-1.5-0.7-1.5-1.5s0.7-1.5,1.5-1.5h5c0.8,0,1.5,0.7,1.5,1.5
			S348.4,220.4,347.6,220.4z M337.6,220.4h-5c-0.8,0-1.5-0.7-1.5-1.5s0.7-1.5,1.5-1.5h5c0.8,0,1.5,0.7,1.5,1.5
			S338.4,220.4,337.6,220.4z"/>
	</g>
	<path fill="#231F20" d="M1175.2,661.9h-7.7c-1.7,0-3-1.3-3-3s1.3-3,3-3h7.7c1.7,0,3,1.3,3,3S1176.8,661.9,1175.2,661.9z"/>
	<path fill="#231F20" d="M552.4,137.9h-57.6c-1.7,0-3-1.3-3-3s1.3-3,3-3h57.6c1.7,0,3,1.3,3,3S554,137.9,552.4,137.9z"/>
	<path fill="#231F20" d="M469.3,137.9h-29.2c-1.7,0-3-1.3-3-3s1.3-3,3-3h29.2c1.7,0,3,1.3,3,3S471,137.9,469.3,137.9z"/>
</g>
<g>
	<rect x="411.6" y="1209.8" fill="none" width="576.9" height="90.6"/>
	<text transform="matrix(1 0 0 1 411.5517 1223.5054)"><tspan x="0" y="0" fill="#231F20" font-family="'OpenSans-Light'" font-size="18">Lorem</tspan><tspan x="54.8" y="0" fill="#231F20" font-family="'OpenSans-Light'" font-size="18"> </tspan><tspan x="59.7" y="0" fill="#231F20" font-family="'OpenSans-Light'" font-size="18">ipsum</tspan><tspan x="111.6" y="0" fill="#231F20" font-family="'OpenSans-Light'" font-size="18"> </tspan><tspan x="116.5" y="0" fill="#231F20" font-family="'OpenSans-Light'" font-size="18">dolor</tspan><tspan x="161.6" y="0" fill="#231F20" font-family="'OpenSans-Light'" font-size="18"> </tspan><tspan x="166.5" y="0" fill="#231F20" font-family="'OpenSans-Light'" font-size="18">sit</tspan><tspan x="186.4" y="0" fill="#231F20" font-family="'OpenSans-Light'" font-size="18"> </tspan><tspan x="191.2" y="0" fill="#231F20" font-family="'OpenSans-Light'" font-size="18">amet,</tspan><tspan x="238.7" y="0" fill="#231F20" font-family="'OpenSans-Light'" font-size="18"> </tspan><tspan x="243.6" y="0" fill="#231F20" font-family="'OpenSans-Light'" font-size="18">consectetur</tspan><tspan x="344.6" y="0" fill="#231F20" font-family="'OpenSans-Light'" font-size="18"> </tspan><tspan x="349.5" y="0" fill="#231F20" font-family="'OpenSans-Light'" font-size="18">adipiscing</tspan><tspan x="434.2" y="0" fill="#231F20" font-family="'OpenSans-Light'" font-size="18"> </tspan><tspan x="439" y="0" fill="#231F20" font-family="'OpenSans-Light'" font-size="18">elit,</tspan><tspan x="469.2" y="0" fill="#231F20" font-family="'OpenSans-Light'" font-size="18"> </tspan><tspan x="474.1" y="0" fill="#231F20" font-family="'OpenSans-Light'" font-size="18">sed</tspan><tspan x="504.4" y="0" fill="#231F20" font-family="'OpenSans-Light'" font-size="18"> </tspan><tspan x="509.3" y="0" fill="#231F20" font-family="'OpenSans-Light'" font-size="18">do</tspan><tspan x="531.5" y="0" fill="#231F20" font-family="'OpenSans-Light'" font-size="18"> </tspan><tspan x="536.4" y="0" fill="#231F20" font-family="'OpenSans-Light'" font-size="18">eius</tspan><tspan x="571.1" y="0" fill="#231F20" font-family="'OpenSans-Light'" font-size="18">-</tspan><tspan x="0" y="24" fill="#231F20" font-family="'OpenSans-Light'" font-size="18">mod</tspan><tspan x="38.5" y="24" fill="#231F20" font-family="'OpenSans-Light'" font-size="18"> </tspan><tspan x="43.1" y="24" fill="#231F20" font-family="'OpenSans-Light'" font-size="18">tempor</tspan><tspan x="105.9" y="24" fill="#231F20" font-family="'OpenSans-Light'" font-size="18"> </tspan><tspan x="110.5" y="24" fill="#231F20" font-family="'OpenSans-Light'" font-size="18">incididunt</tspan><tspan x="195.1" y="24" fill="#231F20" font-family="'OpenSans-Light'" font-size="18"> </tspan><tspan x="199.7" y="24" fill="#231F20" font-family="'OpenSans-Light'" font-size="18">ut</tspan><tspan x="217.2" y="24" fill="#231F20" font-family="'OpenSans-Light'" font-size="18"> </tspan><tspan x="221.8" y="24" fill="#231F20" font-family="'OpenSans-Light'" font-size="18">labore</tspan><tspan x="276.3" y="24" fill="#231F20" font-family="'OpenSans-Light'" font-size="18"> </tspan><tspan x="280.9" y="24" fill="#231F20" font-family="'OpenSans-Light'" font-size="18">et</tspan><tspan x="297.7" y="24" fill="#231F20" font-family="'OpenSans-Light'" font-size="18"> </tspan><tspan x="302.3" y="24" fill="#231F20" font-family="'OpenSans-Light'" font-size="18">dolore</tspan><tspan x="357.8" y="24" fill="#231F20" font-family="'OpenSans-Light'" font-size="18"> </tspan><tspan x="362.4" y="24" fill="#231F20" font-family="'OpenSans-Light'" font-size="18">magna</tspan><tspan x="419.6" y="24" fill="#231F20" font-family="'OpenSans-Light'" font-size="18"> </tspan><tspan x="424.3" y="24" fill="#231F20" font-family="'OpenSans-Light'" font-size="18">aliqua.</tspan><tspan x="480.2" y="24" fill="#231F20" font-family="'OpenSans-Light'" font-size="18"> </tspan><tspan x="484.8" y="24" fill="#231F20" font-family="'OpenSans-Light'" font-size="18">Ut</tspan><tspan x="504.7" y="24" fill="#231F20" font-family="'OpenSans-Light'" font-size="18"> </tspan><tspan x="509.3" y="24" fill="#231F20" font-family="'OpenSans-Light'" font-size="18">enim</tspan><tspan x="551.6" y="24" fill="#231F20" font-family="'OpenSans-Light'" font-size="18"> </tspan><tspan x="556.2" y="24" fill="#231F20" font-family="'OpenSans-Light'" font-size="18">ad </tspan><tspan x="0" y="48" fill="#231F20" font-family="'OpenSans-Light'" font-size="18">minim</tspan><tspan x="52.8" y="48" fill="#231F20" font-family="'OpenSans-Light'" font-size="18" letter-spacing="6"> </tspan><tspan x="63.5" y="48" fill="#231F20" font-family="'OpenSans-Light'" font-size="18">veniam,</tspan><tspan x="128.8" y="48" fill="#231F20" font-family="'OpenSans-Light'" font-size="18" letter-spacing="6"> </tspan><tspan x="139.5" y="48" fill="#231F20" font-family="'OpenSans-Light'" font-size="18">quis</tspan><tspan x="175.1" y="48" fill="#231F20" font-family="'OpenSans-Light'" font-size="18" letter-spacing="6"> </tspan><tspan x="185.8" y="48" fill="#231F20" font-family="'OpenSans-Light'" font-size="18">nostrud</tspan><tspan x="252.8" y="48" fill="#231F20" font-family="'OpenSans-Light'" font-size="18" letter-spacing="6"> </tspan><tspan x="263.5" y="48" fill="#231F20" font-family="'OpenSans-Light'" font-size="18">exercitation</tspan><tspan x="364.1" y="48" fill="#231F20" font-family="'OpenSans-Light'" font-size="18" letter-spacing="6"> </tspan><tspan x="374.8" y="48" fill="#231F20" font-family="'OpenSans-Light'" font-size="18">ullamco</tspan><tspan x="441.3" y="48" fill="#231F20" font-family="'OpenSans-Light'" font-size="18" letter-spacing="6"> </tspan><tspan x="452" y="48" fill="#231F20" font-family="'OpenSans-Light'" font-size="18">laboris</tspan><tspan x="509.4" y="48" fill="#231F20" font-family="'OpenSans-Light'" font-size="18" letter-spacing="6"> </tspan><tspan x="520.2" y="48" fill="#231F20" font-family="'OpenSans-Light'" font-size="18">nisi</tspan><tspan x="549.1" y="48" fill="#231F20" font-family="'OpenSans-Light'" font-size="18" letter-spacing="6"> </tspan><tspan x="559.8" y="48" fill="#231F20" font-family="'OpenSans-Light'" font-size="18">ut </tspan><tspan x="140.2" y="72" fill="#231F20" font-family="'OpenSans-Light'" font-size="18">aliquip ex ea commodo consequat.</tspan></text>
	
		<text transform="matrix(1 0 0 1 499.0034 1185.5315)" fill="#231F20" font-family="'OpenSans-Bold'" font-size="40.7578" letter-spacing="4">brainstorming</text>
</g>
</svg>
