<?xml version="1.0" encoding="iso-8859-1"?>
<!-- Generator: Adobe Illustrator 19.0.0, SVG Export Plug-In . SVG Version: 6.00 Build 0)  -->
<svg version="1.1" id="Capa_1" xmlns="http://www.w3.org/2000/svg" xmlns:xlink="http://www.w3.org/1999/xlink" x="0px" y="0px"
	 viewBox="0 0 480.008 480.008" style="enable-background:new 0 0 480.008 480.008;" xml:space="preserve">
<g>
	<g>
		<path d="M184.004,128c-10.416,0-19.216,6.712-22.528,16H78.532c-3.312-9.288-12.112-16-22.528-16c-13.232,0-24,10.768-24,24
			s10.768,24,24,24c10.416,0,19.216-6.712,22.528-16h82.952c3.312,9.288,12.112,16,22.528,16c13.232,0,24-10.768,24-24
			S197.236,128,184.004,128z M56.004,160c-4.408,0-8-3.584-8-8s3.592-8,8-8s8,3.584,8,8S60.412,160,56.004,160z M184.004,160
			c-4.408,0-8-3.584-8-8s3.592-8,8-8s8,3.584,8,8S188.412,160,184.004,160z"/>
	</g>
</g>
<g>
	<g>
		<path d="M248.004,177.472V128c0-2.128-0.84-4.16-2.344-5.656l-32-32C212.164,88.84,210.124,88,208.004,88h-25.472
			c-3.312-9.288-12.112-16-22.528-16c-13.232,0-24,10.768-24,24s10.768,24,24,24c10.416,0,19.216-6.712,22.528-16h22.16
			l27.312,27.312v46.16c-9.288,3.312-16,12.112-16,22.528c0,13.232,10.768,24,24,24s24-10.768,24-24
			C264.004,189.584,257.292,180.784,248.004,177.472z M160.004,104c-4.408,0-8-3.584-8-8s3.592-8,8-8s8,3.584,8,8
			S164.412,104,160.004,104z M240.004,208c-4.408,0-8-3.584-8-8s3.592-8,8-8s8,3.584,8,8S244.412,208,240.004,208z"/>
	</g>
</g>
<g>
	<g>
		<path d="M392.004,208c-3.696,0-7.152,0.904-10.28,2.408l-13.72-13.72V120c0-2.128-0.84-4.16-2.344-5.656L285.596,34.28
			c1.504-3.128,2.408-6.584,2.408-10.28c0-13.232-10.768-24-24-24s-24,10.768-24,24s10.768,24,24,24
			c3.696,0,7.152-0.904,10.28-2.408l77.72,77.72V200c0,2.128,0.84,4.16,2.344,5.656l16.064,16.064
			c-1.504,3.128-2.408,6.584-2.408,10.28c0,13.232,10.768,24,24,24s24-10.768,24-24S405.236,208,392.004,208z M264.004,32
			c-4.408,0-8-3.584-8-8s3.592-8,8-8c4.408,0,8,3.584,8,8S268.412,32,264.004,32z M392.004,240c-4.408,0-8-3.584-8-8s3.592-8,8-8
			c4.408,0,8,3.584,8,8S396.412,240,392.004,240z"/>
	</g>
</g>
<g>
	<g>
		<path d="M464.004,113.472V80c0-2.128-0.84-4.16-2.344-5.656l-56-56C404.164,16.84,402.124,16,400.004,16h-41.472
			C355.22,6.712,346.42,0,336.004,0c-13.232,0-24,10.768-24,24s10.768,24,24,24c10.416,0,19.216-6.712,22.528-16h38.16
			l51.312,51.312v30.16c-9.288,3.312-16,12.112-16,22.528c0,13.232,10.768,24,24,24s24-10.768,24-24
			C480.004,125.584,473.292,116.784,464.004,113.472z M336.004,32c-4.408,0-8-3.584-8-8s3.592-8,8-8c4.408,0,8,3.584,8,8
			S340.412,32,336.004,32z M456.004,144c-4.408,0-8-3.584-8-8s3.592-8,8-8c4.408,0,8,3.584,8,8S460.412,144,456.004,144z"/>
	</g>
</g>
<g>
	<g>
		<path d="M352.012,433.48V318.528c9.28-3.312,15.992-12.112,15.992-22.528c0-13.232-10.768-24-24-24
			c-10.416,0-19.216,6.712-22.528,16h-82.944c-3.312-9.288-12.112-16-22.528-16s-19.216,6.712-22.528,16h-46.16l-29.72-29.72
			c1.504-3.128,2.408-6.584,2.408-10.28c0-13.232-10.768-24-24-24s-24,10.768-24,24s10.768,24,24,24
			c3.696,0,7.152-0.904,10.28-2.408l32.064,32.064c1.496,1.504,3.536,2.344,5.656,2.344h49.472c3.312,9.288,12.112,16,22.528,16
			s19.216-6.712,22.528-16h82.952c2.416,6.776,7.752,12.112,14.528,14.528V433.48c-9.288,3.312-16,12.112-16,22.528
			c0,13.232,10.768,24,24,24s24-10.768,24-24C368.012,445.592,361.3,436.792,352.012,433.48z M96.004,256c-4.408,0-8-3.584-8-8
			c0-4.416,3.592-8,8-8s8,3.584,8,8C104.004,252.416,100.412,256,96.004,256z M216.004,304c-4.408,0-8-3.584-8-8
			c0-4.416,3.592-8,8-8s8,3.584,8,8C224.004,300.416,220.412,304,216.004,304z M344.004,464c-4.408,0-8-3.584-8-8
			c0-4.416,3.592-8,8-8c4.408,0,8,3.584,8,8C352.004,460.416,348.412,464,344.004,464z M344.004,304c-4.408,0-8-3.584-8-8
			c0-4.416,3.592-8,8-8c4.408,0,8,3.584,8,8C352.004,300.416,348.412,304,344.004,304z"/>
	</g>
</g>
<g>
	<g>
		<path d="M312.004,161.472V136c0-2.128-0.84-4.16-2.344-5.656L213.596,34.28c1.504-3.128,2.408-6.584,2.408-10.28
			c0-13.232-10.768-24-24-24c-10.416,0-19.216,6.712-22.528,16h-33.472c-4.416,0-8,3.576-8,8v20.688l-29.72,29.72
			C95.156,72.904,91.7,72,88.004,72c-13.232,0-24,10.768-24,24s10.768,24,24,24s24-10.768,24-24c0-3.696-0.904-7.152-2.408-10.28
			l32.064-32.064c1.504-1.496,2.344-3.528,2.344-5.656V32h25.472c3.312,9.288,12.112,16,22.528,16c3.696,0,7.152-0.904,10.28-2.408
			l93.72,93.72v22.16c-9.288,3.312-16,12.112-16,22.528c0,13.232,10.768,24,24,24s24-10.768,24-24
			C328.004,173.584,321.292,164.784,312.004,161.472z M88.004,104c-4.408,0-8-3.584-8-8s3.592-8,8-8s8,3.584,8,8
			S92.412,104,88.004,104z M192.004,32c-4.408,0-8-3.584-8-8s3.592-8,8-8s8,3.584,8,8S196.412,32,192.004,32z M304.004,192
			c-4.408,0-8-3.584-8-8s3.592-8,8-8c4.408,0,8,3.584,8,8S308.412,192,304.004,192z"/>
	</g>
</g>
<g>
	<g>
		<path d="M288.004,224c-10.416,0-19.216,6.712-22.528,16h-94.16l-45.656-45.656c-1.496-1.504-3.536-2.344-5.656-2.344H35.316
			l-19.312-19.312v-65.376l61.72-61.72C80.852,47.096,84.308,48,88.004,48c13.232,0,24-10.768,24-24s-10.768-24-24-24
			s-24,10.768-24,24c0,3.696,0.904,7.152,2.408,10.28L2.348,98.344C0.844,99.84,0.004,101.872,0.004,104v72
			c0,2.128,0.84,4.16,2.344,5.656l24,24c1.496,1.504,3.536,2.344,5.656,2.344h84.688l45.656,45.656
			c1.496,1.504,3.536,2.344,5.656,2.344h97.472c3.312,9.288,12.112,16,22.528,16c13.232,0,24-10.768,24-24S301.236,224,288.004,224z
			 M88.004,16c4.408,0,8,3.584,8,8s-3.592,8-8,8s-8-3.584-8-8S83.596,16,88.004,16z M288.004,256c-4.408,0-8-3.584-8-8
			c0-4.416,3.592-8,8-8c4.408,0,8,3.584,8,8C296.004,252.416,292.412,256,288.004,256z"/>
	</g>
</g>
<g>
	<g>
		<path d="M456.004,192c-3.696,0-7.152,0.904-10.28,2.408l-29.72-29.72v-46.16c9.288-3.312,16-12.112,16-22.528
			c0-13.232-10.768-24-24-24s-24,10.768-24,24c0,10.416,6.712,19.216,16,22.528V168c0,2.128,0.84,4.16,2.344,5.656l32.064,32.064
			c-1.504,3.128-2.408,6.584-2.408,10.28c0,10.416,6.712,19.216,16,22.528v6.16l-61.656,61.656
			c-1.504,1.496-2.344,3.528-2.344,5.656v9.472c-9.288,3.312-16,12.112-16,22.528s6.712,19.216,16,22.528v18.952
			c-9.288,3.312-16,12.112-16,22.528c0,13.232,10.768,24,24,24s24-10.768,24-24c0-10.416-6.712-19.216-16-22.528v-18.952
			c9.288-3.312,16-12.112,16-22.528c0-10.416-6.712-19.216-16-22.528v-6.16l61.656-61.656c1.504-1.496,2.344-3.528,2.344-5.656
			v-9.472c9.288-3.312,16-12.112,16-22.528C480.004,202.768,469.236,192,456.004,192z M408.004,104c-4.408,0-8-3.584-8-8
			s3.592-8,8-8c4.408,0,8,3.584,8,8S412.412,104,408.004,104z M392.004,416c-4.408,0-8-3.584-8-8c0-4.416,3.592-8,8-8
			c4.408,0,8,3.584,8,8C400.004,412.416,396.412,416,392.004,416z M392.004,352c-4.408,0-8-3.584-8-8c0-4.416,3.592-8,8-8
			c4.408,0,8,3.584,8,8C400.004,348.416,396.412,352,392.004,352z M456.004,224c-4.408,0-8-3.584-8-8s3.592-8,8-8
			c4.408,0,8,3.584,8,8S460.412,224,456.004,224z"/>
	</g>
</g>
<g>
</g>
<g>
</g>
<g>
</g>
<g>
</g>
<g>
</g>
<g>
</g>
<g>
</g>
<g>
</g>
<g>
</g>
<g>
</g>
<g>
</g>
<g>
</g>
<g>
</g>
<g>
</g>
<g>
</g>
</svg>
