<?xml version="1.0" encoding="iso-8859-1"?>
<!-- Generator: Adobe Illustrator 19.0.0, SVG Export Plug-In . SVG Version: 6.00 Build 0)  -->
<svg version="1.1" id="Capa_1" xmlns="http://www.w3.org/2000/svg" xmlns:xlink="http://www.w3.org/1999/xlink" x="0px" y="0px"
	 viewBox="0 0 480.398 480.398" style="enable-background:new 0 0 480.398 480.398;" xml:space="preserve">
<g>
	<g>
		<path d="M479.915,130.822c-2.558-15.436-15.918-26.749-31.564-26.728c-13.482,0.04-25.488,8.538-30.008,21.24l-98.176-8.928
			c-0.394-5.271-1.662-10.44-3.752-15.296l70.4-45.536c13.045,11.832,33.211,10.849,45.043-2.196s10.849-33.211-2.196-45.043
			c-13.045-11.832-33.211-10.849-45.043,2.196c-5.353,5.902-8.303,13.595-8.268,21.563c0.043,3.418,0.64,6.806,1.768,10.032
			l-70.4,45.6c-17.834-19.536-48.129-20.916-67.665-3.082c-5.09,4.647-9.117,10.337-11.807,16.682l-84.504-20.328
			c4.965-39.453-22.993-75.462-62.446-80.427C41.843-4.394,5.835,23.564,0.87,63.017c-4.965,39.453,22.993,75.462,62.446,80.427
			c2.171,0.273,4.352,0.447,6.539,0.522l6.896,89.6c-25.699,6.379-41.361,32.383-34.983,58.082
			c3.279,13.21,12.018,24.404,24.039,30.79L34.511,416.31c-0.728-0.048-1.416-0.216-2.16-0.216
			c-17.757-0.084-32.219,14.243-32.303,32c-0.084,17.757,14.243,32.219,32,32.303c17.757,0.084,32.219-14.243,32.303-32
			c0.051-10.938-5.461-21.151-14.632-27.111l31.272-93.816c4.871,0.832,9.849,0.832,14.72,0l31.28,93.816
			c-14.757,9.636-18.908,29.411-9.272,44.168c9.636,14.757,29.411,18.908,44.168,9.272c14.757-9.636,18.908-29.411,9.272-44.168
			c-5.91-9.05-15.999-14.494-26.808-14.464c-0.744,0-1.432,0.168-2.16,0.216l-31.296-93.864
			c23.38-12.496,32.202-41.579,19.706-64.959c-7.604-14.226-21.844-23.682-37.906-25.169l-6.88-89.528
			c24.934-4.809,45.506-22.369,54.168-46.24l84.536,20.288c-0.08,1.08-0.168,2.16-0.168,3.256
			c0.121,26.509,21.71,47.901,48.219,47.78c21.626-0.099,40.515-14.648,46.133-35.532l98.168,8.928
			c2.885,17.409,19.337,29.183,36.746,26.298C471.026,164.683,482.8,148.231,479.915,130.822z M408.351,16.094
			c8.837,0,16,7.163,16,16s-7.163,16-16,16s-16-7.163-16-16S399.514,16.094,408.351,16.094z M32.351,464.094
			c-8.837,0-16-7.163-16-16s7.163-16,16-16s16,7.163,16,16S41.188,464.094,32.351,464.094z M144.351,432.094c8.837,0,16,7.163,16,16
			s-7.163,16-16,16s-16-7.163-16-16S135.514,432.094,144.351,432.094z M88.351,248.094c17.673,0,32,14.327,32,32
			c0,17.673-14.327,32-32,32s-32-14.327-32-32C56.351,262.421,70.678,248.094,88.351,248.094z M72.351,128.094
			c-30.928,0-56-25.072-56-56s25.072-56,56-56c30.928,0,56,25.072,56,56C128.316,103.007,103.264,128.059,72.351,128.094z
			 M272.351,152.094c-17.673,0-32-14.327-32-32s14.327-32,32-32c17.673,0,32,14.327,32,32S290.024,152.094,272.351,152.094z
			 M448.351,152.094c-8.837,0-16-7.163-16-16s7.163-16,16-16s16,7.163,16,16S457.188,152.094,448.351,152.094z"/>
	</g>
</g>
<g>
	<g>
		<path d="M418.624,336.829c-3.402-0.49-6.836-0.736-10.273-0.735c-29.781,0.049-56.464,18.415-67.144,46.216l-69.072-18.016
			c0.128-1.392,0.216-2.784,0.216-4.2c0.009-11.226-3.936-22.097-11.144-30.704l45.144-52.664c4.345,2.187,9.136,3.339,14,3.368
			c17.757,0.083,32.219-14.245,32.302-32.002c0.083-17.757-14.245-32.219-32.002-32.302c-17.757-0.083-32.219,14.245-32.302,32.002
			c-0.031,6.642,1.996,13.13,5.802,18.574l-45.112,52.64c-7.443-4.517-15.982-6.908-24.688-6.912c-0.8,0-1.6,0.08-2.4,0.12
			l-15.064-67.752c15.663-8.062,21.825-27.294,13.763-42.957s-27.294-21.825-42.957-13.763s-21.825,27.294-13.763,42.957
			c5.301,10.3,15.77,16.916,27.349,17.283l15.04,67.672c-24.576,9.94-36.44,37.921-26.5,62.496
			c9.94,24.576,37.921,36.44,62.496,26.5c11.495-4.649,20.745-13.567,25.811-24.884l69.024,18.024
			c-5.664,39.332,21.629,75.809,60.961,81.473c39.332,5.664,75.809-21.629,81.473-60.961
			C485.25,378.97,457.957,342.493,418.624,336.829z M320.351,232.094c8.837,0,16,7.163,16,16c0,8.837-7.163,16-16,16
			s-16-7.163-16-16C304.351,239.257,311.514,232.094,320.351,232.094z M192.351,232.094c-8.837,0-16-7.163-16-16s7.163-16,16-16
			s16,7.163,16,16S201.188,232.094,192.351,232.094z M224.351,392.094c-17.673,0-32-14.327-32-32c0-17.673,14.327-32,32-32
			c17.673,0,32,14.327,32,32C256.351,377.767,242.024,392.094,224.351,392.094z M408.351,464.094c-30.928,0-56-25.072-56-56
			c0-30.928,25.072-56,56-56c30.928,0,56,25.072,56,56C464.316,439.007,439.264,464.059,408.351,464.094z"/>
	</g>
</g>
<g>
</g>
<g>
</g>
<g>
</g>
<g>
</g>
<g>
</g>
<g>
</g>
<g>
</g>
<g>
</g>
<g>
</g>
<g>
</g>
<g>
</g>
<g>
</g>
<g>
</g>
<g>
</g>
<g>
</g>
</svg>
