<?xml version="1.0" encoding="utf-8"?>
<svg id="master-artboard" viewBox="0 0 1400 980" version="1.1" xmlns="http://www.w3.org/2000/svg" x="0px" y="0px" style="enable-background:new 0 0 1400 980;" width="1400px" height="980px"><g transform="matrix(0.6125, 0, 0, 0.6125, 271.2498650028055, 0.0000043089602854706754)"><path d="M 0 2.5 H 1400 V 1597.5 H 0 V 2.5 Z" class="st0" style="fill: rgb(234, 247, 255);"/><g>
	<g>
		<g>
			<g>
				<path class="st1" d="M903,1036.1c38.9-10.1,67.5-45.5,67.5-87.5c0-8.3-1.1-16.4-3.2-24c17.9-16.5,29.1-40.2,29.1-66.4&#10;&#9;&#9;&#9;&#9;&#9;c0-34.3-19.1-64.1-47.2-79.5c28.1-15.3,47.2-45.2,47.2-79.5c0-50-40.5-90.5-90.5-90.5c-0.9,0-1.8,0-2.7,0c1.8-7,2.7-14.4,2.7-22&#10;&#9;&#9;&#9;&#9;&#9;c0-50-40.5-90.5-90.5-90.5S725,536.8,725,586.8v426.4c0,50,40.5,90.5,90.5,90.5C857.5,1103.7,892.8,1075,903,1036.1z" style="fill: rgb(255, 224, 0);"/>
			</g>
			<g>
				<path class="st2" d="M815.5,1107.7c-52.1,0-94.5-42.4-94.5-94.5V586.8c0-52.1,42.4-94.5,94.5-94.5c52.1,0,94.5,42.4,94.5,94.5&#10;&#9;&#9;&#9;&#9;&#9;c0,6-0.6,12.1-1.7,18c51,1.2,92.2,43.1,92.2,94.4c0,32.3-16.5,62.2-43.4,79.5c26.9,17.3,43.4,47.2,43.4,79.5&#10;&#9;&#9;&#9;&#9;&#9;c0,25.4-10.4,50-28.6,67.7c1.8,7.4,2.8,15.1,2.8,22.7c0,42.2-28,79.2-68.3,90.8C894.6,1079.7,857.6,1107.7,815.5,1107.7z&#10;&#9;&#9;&#9;&#9;&#9; M815.5,500.3c-47.7,0-86.5,38.8-86.5,86.5v426.4c0,47.7,38.8,86.5,86.5,86.5c39.3,0,73.7-26.5,83.7-64.5&#10;&#9;&#9;&#9;&#9;&#9;c0.4-1.4,1.5-2.5,2.9-2.9c38-9.9,64.5-44.3,64.5-83.7c0-7.8-1-15.5-3.1-23c-0.4-1.4,0-3,1.1-4c17.7-16.3,27.8-39.5,27.8-63.5&#10;&#9;&#9;&#9;&#9;&#9;c0-31.7-17.3-60.8-45.1-76c-1.3-0.7-2.1-2-2.1-3.5s0.8-2.8,2.1-3.5c27.8-15.2,45.1-44.3,45.1-76c0-47.7-38.8-86.5-86.5-86.5&#10;&#9;&#9;&#9;&#9;&#9;c-0.9,0-1.7,0-2.6,0c-1.3,0.1-2.4-0.5-3.2-1.5c-0.8-1-1.1-2.3-0.8-3.5c1.7-6.9,2.6-13.9,2.6-21&#10;&#9;&#9;&#9;&#9;&#9;C901.9,539.1,863.1,500.3,815.5,500.3z" style="fill: rgb(74, 80, 93);"/>
			</g>
			<g>
				<path class="st2" d="M815.5,681.2c-2.2,0-4-1.8-4-4s1.8-4,4-4c47.7,0,86.5-38.8,86.5-86.5c0-2.2,1.8-4,4-4s4,1.8,4,4&#10;&#9;&#9;&#9;&#9;&#9;C909.9,638.9,867.5,681.2,815.5,681.2z" style="fill: rgb(74, 80, 93);"/>
			</g>
			<g>
				<path class="st2" d="M905.9,793.7c-2.2,0-4-1.8-4-4s1.8-4,4-4c47.7,0,86.5-38.8,86.5-86.5c0-2.2,1.8-4,4-4s4,1.8,4,4&#10;&#9;&#9;&#9;&#9;&#9;C1000.3,751.4,958,793.7,905.9,793.7z" style="fill: rgb(74, 80, 93);"/>
			</g>
			<g>
				<path class="st2" d="M905.9,953.1c-2.2,0-4-1.8-4-4s1.8-4,4-4c47.7,0,86.5-38.8,86.5-86.5c0-2.2,1.8-4,4-4s4,1.8,4,4&#10;&#9;&#9;&#9;&#9;&#9;C1000.3,910.8,958,953.1,905.9,953.1z" style="fill: rgb(74, 80, 93);"/>
			</g>
			<g>
				<path class="st2" d="M879.7,1043.1c-2.2,0-4-1.8-4-4s1.8-4,4-4c47.7,0,86.5-38.8,86.5-86.5c0-2.2,1.8-4,4-4s4,1.8,4,4&#10;&#9;&#9;&#9;&#9;&#9;C974.2,1000.7,931.8,1043.1,879.7,1043.1z" style="fill: rgb(74, 80, 93);"/>
			</g>
			<g>
				<path d="M 725 948.599976 L 815.5 948.599976" class="st1" style="fill: rgb(255, 224, 0);"/>
			</g>
		</g>
	</g>
	<g>
		<g>
			<g>
				<path class="st1" d="M497,1036.1c-38.9-10.1-67.5-45.5-67.5-87.5c0-8.3,1.1-16.4,3.2-24c-17.9-16.5-29.1-40.2-29.1-66.4&#10;&#9;&#9;&#9;&#9;&#9;c0-34.3,19.1-64.1,47.2-79.5c-28.1-15.3-47.2-45.2-47.2-79.5c0-50,40.5-90.5,90.5-90.5c0.9,0,1.8,0,2.7,0&#10;&#9;&#9;&#9;&#9;&#9;c-1.8-7-2.7-14.4-2.7-22c0-50,40.5-90.5,90.5-90.5s90.5,40.5,90.5,90.5v426.4c0,50-40.5,90.5-90.5,90.5&#10;&#9;&#9;&#9;&#9;&#9;C542.5,1103.7,507.2,1075,497,1036.1z" style="fill: rgb(255, 224, 0);"/>
			</g>
			<g>
				<path class="st2" d="M584.5,1107.7c-42.2,0-79.2-28-90.8-68.3c-40.3-11.6-68.3-48.6-68.3-90.8c0-7.7,0.9-15.3,2.8-22.7&#10;&#9;&#9;&#9;&#9;&#9;c-18.2-17.7-28.6-42.3-28.6-67.7c0-32.3,16.5-62.2,43.4-79.5c-26.9-17.3-43.4-47.2-43.4-79.5c0-51.3,41.1-93.2,92.2-94.4&#10;&#9;&#9;&#9;&#9;&#9;c-1.1-5.9-1.7-11.9-1.7-18c0-52.1,42.4-94.5,94.5-94.5c52.1,0,94.5,42.4,94.5,94.5v426.4C679,1065.3,636.6,1107.7,584.5,1107.7z&#10;&#9;&#9;&#9;&#9;&#9; M494.1,612.8c-47.7,0-86.5,38.8-86.5,86.5c0,31.7,17.3,60.8,45.1,76c1.3,0.7,2.1,2,2.1,3.5s-0.8,2.8-2.1,3.5&#10;&#9;&#9;&#9;&#9;&#9;c-27.8,15.2-45.1,44.3-45.1,76c0,24,10.1,47.2,27.8,63.5c1.1,1,1.5,2.6,1.1,4c-2,7.5-3.1,15.2-3.1,23&#10;&#9;&#9;&#9;&#9;&#9;c0,39.3,26.5,73.7,64.5,83.7c1.4,0.4,2.5,1.5,2.9,2.9c9.9,38,44.3,64.5,83.6,64.5c47.7,0,86.5-38.8,86.5-86.5V586.8&#10;&#9;&#9;&#9;&#9;&#9;c0-47.7-38.8-86.5-86.5-86.5c-47.7,0-86.5,38.8-86.5,86.5c0,7.1,0.9,14.2,2.6,21c0.3,1.2,0,2.5-0.8,3.5c-0.8,1-2,1.5-3.2,1.5&#10;&#9;&#9;&#9;&#9;&#9;C495.8,612.8,495,612.8,494.1,612.8z" style="fill: rgb(74, 80, 93);"/>
			</g>
			<g>
				<path class="st2" d="M584.5,681.2c-52.1,0-94.5-42.4-94.5-94.5c0-2.2,1.8-4,4-4s4,1.8,4,4c0,47.7,38.8,86.5,86.5,86.5&#10;&#9;&#9;&#9;&#9;&#9;c2.2,0,4,1.8,4,4S586.8,681.2,584.5,681.2z" style="fill: rgb(74, 80, 93);"/>
			</g>
			<g>
				<path class="st2" d="M494.1,793.7c-52.1,0-94.5-42.4-94.5-94.5c0-2.2,1.8-4,4-4s4,1.8,4,4c0,47.7,38.8,86.5,86.5,86.5&#10;&#9;&#9;&#9;&#9;&#9;c2.2,0,4,1.8,4,4S496.3,793.7,494.1,793.7z" style="fill: rgb(74, 80, 93);"/>
			</g>
			<g>
				<path class="st2" d="M494.1,953.1c-52.1,0-94.5-42.4-94.5-94.5c0-2.2,1.8-4,4-4s4,1.8,4,4c0,47.7,38.8,86.5,86.5,86.5&#10;&#9;&#9;&#9;&#9;&#9;c2.2,0,4,1.8,4,4S496.3,953.1,494.1,953.1z" style="fill: rgb(74, 80, 93);"/>
			</g>
			<g>
				<path class="st2" d="M520.3,1043.1c-52.1,0-94.5-42.4-94.5-94.5c0-2.2,1.8-4,4-4s4,1.8,4,4c0,47.7,38.8,86.5,86.5,86.5&#10;&#9;&#9;&#9;&#9;&#9;c2.2,0,4,1.8,4,4S522.5,1043.1,520.3,1043.1z" style="fill: rgb(74, 80, 93);"/>
			</g>
			<g>
				<path d="M 675 789.700012 L 584.5 789.700012" class="st1" style="fill: rgb(255, 224, 0);"/>
			</g>
			<g>
				<path d="M 675 948.599976 L 584.5 948.599976" class="st1" style="fill: rgb(255, 224, 0);"/>
			</g>
		</g>
	</g>
</g><g>
	<g>
		<path class="st3" d="M987.1,318.2c-39.5,0-71.5,32-71.5,71.5v109.4h30.7v61.4l61.4-61.4h67.4c39.5,0,71.5-32,71.5-71.5V318.2&#10;&#9;&#9;&#9;H987.1z" style="fill: rgb(0, 203, 245);"/>
	</g>
	<g>
		<path class="st4" d="M1031.1,318.2v180.9h44c39.5,0,71.5-32,71.5-71.5V318.2H1031.1z" style="fill: rgb(11, 195, 209);"/>
	</g>
	<g>
		<path class="st2" d="M946.3,564.5c-0.5,0-1-0.1-1.5-0.3c-1.5-0.6-2.5-2.1-2.5-3.7v-57.4h-26.7c-2.2,0-4-1.8-4-4V389.7&#10;&#9;&#9;&#9;c0-41.6,33.9-75.5,75.5-75.5h159.4c2.2,0,4,1.8,4,4v109.4c0,41.6-33.9,75.5-75.5,75.5h-65.7l-60.2,60.2&#10;&#9;&#9;&#9;C948.4,564.1,947.4,564.5,946.3,564.5z M919.7,495.1h26.7c2.2,0,4,1.8,4,4v51.7l54.5-54.5c0.8-0.8,1.8-1.2,2.8-1.2h67.4&#10;&#9;&#9;&#9;c37.2,0,67.5-30.3,67.5-67.5V322.2H987.1c-37.2,0-67.5,30.3-67.5,67.5V495.1z" style="fill: rgb(74, 80, 93);"/>
	</g>
	<g>
		<path class="st5" d="M1075.1,488.1h-23.2c-1.7,0-3-1.3-3-3s1.3-3,3-3h23.2c30,0,54.5-24.4,54.5-54.5v-77.2c0-1.7,1.3-3,3-3&#10;&#9;&#9;&#9;s3,1.3,3,3v77.2C1135.6,461,1108.4,488.1,1075.1,488.1z" style="fill: rgb(255, 255, 255);"/>
	</g>
	<g>
		<g>
			<path class="st5" d="M1021.8,434.6c0.1-7.6,0.7-12.9,2-15.8c1.3-2.9,4.6-6.8,9.9-11.7c5.2-6.1,8.9-10.9,11.1-14.2&#10;&#9;&#9;&#9;&#9;c2.2-3.3,3.3-7.3,3.3-12c0-5.6-1.5-9.9-4.5-12.8s-7.2-4.5-12.7-4.5c-4.8,0-8.9,1.3-12.2,3.9c-3.4,2.6-5,6.4-5,11.5h-14.8&#10;&#9;&#9;&#9;&#9;l-0.2-0.5c-0.2-8.5,2.8-15.2,8.9-20.3s13.9-7.6,23.4-7.6c10.4,0,18.4,2.6,24.1,7.9c5.7,5.3,8.6,12.7,8.6,22.1&#10;&#9;&#9;&#9;&#9;c0,6.8-1.9,13-5.6,18.6s-8.6,11.4-14.7,17.3c-2.8,2.8-4.6,5.4-5.2,7.6c-0.6,2.3-0.9,5.8-0.9,10.6H1021.8z M1037.9,466.9h-16.2&#10;&#9;&#9;&#9;&#9;v-16.4h16.2V466.9z" style="fill: rgb(255, 255, 255);"/>
		</g>
	</g>
</g><g>
	<path class="st6" d="M421.6,322c-3.8,6.6-11.8,9.1-18.6,6.2c-1.4,5.1-2.2,10.5-2.2,16s0.8,10.9,2.2,16c6.8-2.9,14.8-0.3,18.6,6.2&#10;&#9;&#9;c3.8,6.5,2,14.8-3.9,19.2c7.5,7.6,17,13.3,27.7,16c0.9-7.3,7.1-13,14.7-13c7.6,0,13.8,5.7,14.7,13c10.7-2.7,20.2-8.4,27.7-16&#10;&#9;&#9;c-5.9-4.4-7.7-12.7-3.9-19.2c3.8-6.6,11.8-9.1,18.6-6.2c1.4-5.1,2.2-10.5,2.2-16s-0.8-10.9-2.2-16c-6.8,2.9-14.8,0.3-18.6-6.2&#10;&#9;&#9;c-3.8-6.5-2-14.8,3.9-19.2c-7.5-7.6-17-13.3-27.7-16c-0.9,7.3-7.1,13-14.7,13c-7.6,0-13.8-5.7-14.7-13c-10.7,2.7-20.2,8.4-27.7,16&#10;&#9;&#9;C423.6,307.2,425.4,315.4,421.6,322z M460.1,329.4c8.2,0,14.8,6.6,14.8,14.8c0,8.2-6.6,14.8-14.8,14.8c-8.2,0-14.8-6.6-14.8-14.8&#10;&#9;&#9;C445.3,336,451.9,329.4,460.1,329.4z" style="fill: rgb(0, 142, 185);"/>
</g><g>
	<path class="st7" d="M517.2,328.2c-6.8,2.9-14.8,0.3-18.6-6.2c-3.8-6.5-2-14.8,3.9-19.2c-7.5-7.6-17-13.3-27.7-16&#10;&#9;&#9;c-0.9,7.3-7.1,13-14.7,13v29.7c8.2,0,14.8,6.6,14.8,14.8c0,8.2-6.6,14.8-14.8,14.8v29.7c7.6,0,13.8,5.7,14.7,13&#10;&#9;&#9;c10.7-2.7,20.2-8.4,27.7-16c-5.9-4.4-7.7-12.7-3.9-19.2c3.8-6.6,11.8-9.1,18.6-6.2c1.4-5.1,2.2-10.5,2.2-16&#10;&#9;&#9;C519.4,338.7,518.6,333.3,517.2,328.2z" style="fill: rgb(6, 126, 145);"/>
</g><g>
	<path class="st2" d="M474.8,405.7c-0.8,0-1.6-0.2-2.3-0.7c-0.9-0.6-1.6-1.7-1.7-2.8c-0.7-5.4-5.3-9.5-10.7-9.5&#10;&#9;&#9;c-5.5,0-10.1,4.1-10.7,9.5c-0.1,1.1-0.8,2.2-1.7,2.8c-0.9,0.6-2.1,0.9-3.2,0.6c-11.2-2.9-21.4-8.8-29.6-17.1&#10;&#9;&#9;c-0.8-0.8-1.2-1.9-1.1-3.1c0.1-1.1,0.7-2.2,1.6-2.9c4.3-3.3,5.6-9.3,2.8-14c-2.7-4.7-8.6-6.7-13.6-4.6c-1.1,0.4-2.3,0.4-3.3-0.1&#10;&#9;&#9;c-1-0.5-1.8-1.4-2.1-2.5c-1.5-5.5-2.3-11.3-2.3-17.1s0.8-11.5,2.3-17.1c0.3-1.1,1.1-2,2.1-2.5c1-0.5,2.2-0.5,3.3-0.1&#10;&#9;&#9;c5,2.1,10.9,0.2,13.6-4.6h0c2.7-4.7,1.5-10.8-2.8-14c-0.9-0.7-1.5-1.7-1.6-2.9c-0.1-1.1,0.3-2.3,1.1-3.1&#10;&#9;&#9;c8.1-8.3,18.4-14.2,29.6-17.1c1.1-0.3,2.3-0.1,3.2,0.6c0.9,0.6,1.6,1.7,1.7,2.8c0.7,5.4,5.3,9.5,10.7,9.5c5.5,0,10.1-4.1,10.7-9.5&#10;&#9;&#9;c0.1-1.1,0.8-2.2,1.7-2.8c0.9-0.6,2.1-0.9,3.2-0.6c11.2,2.9,21.4,8.8,29.6,17.1c0.8,0.8,1.2,1.9,1.1,3.1c-0.1,1.1-0.7,2.2-1.6,2.9&#10;&#9;&#9;c-4.3,3.3-5.6,9.3-2.8,14c2.7,4.7,8.6,6.7,13.6,4.6c1.1-0.4,2.3-0.4,3.3,0.1s1.8,1.4,2.1,2.5c1.5,5.5,2.3,11.3,2.3,17.1&#10;&#9;&#9;s-0.8,11.5-2.3,17.1c-0.3,1.1-1.1,2-2.1,2.5c-1,0.5-2.2,0.5-3.3,0.1c-5-2.1-10.9-0.2-13.6,4.6c-2.7,4.7-1.5,10.8,2.8,14&#10;&#9;&#9;c0.9,0.7,1.5,1.7,1.6,2.9c0.1,1.1-0.3,2.3-1.1,3.1c-8.1,8.3-18.4,14.2-29.6,17.1C475.5,405.6,475.1,405.7,474.8,405.7z&#10;&#9;&#9; M460.1,384.7c7.9,0,14.8,4.9,17.5,12c7-2.4,13.5-6.1,19.1-11.1c-4.7-5.9-5.5-14.3-1.6-21.2c3.9-6.8,11.6-10.3,19.1-9.2&#10;&#9;&#9;c0.7-3.6,1.1-7.3,1.1-11s-0.4-7.4-1.1-11c-7.5,1.1-15.2-2.4-19.1-9.2c-3.9-6.8-3.1-15.2,1.6-21.2c-5.6-4.9-12.1-8.7-19.1-11.1&#10;&#9;&#9;c-2.8,7.1-9.6,12-17.5,12s-14.8-4.9-17.5-12c-7,2.4-13.5,6.1-19.1,11.1c4.7,5.9,5.5,14.3,1.6,21.2c-3.9,6.8-11.6,10.3-19.1,9.2&#10;&#9;&#9;c-0.7,3.6-1.1,7.3-1.1,11s0.4,7.4,1.1,11c7.5-1.1,15.2,2.4,19.1,9.2c3.9,6.8,3.1,15.2-1.6,21.2c5.6,4.9,12.1,8.7,19.1,11.1&#10;&#9;&#9;C445.3,389.6,452.2,384.7,460.1,384.7z M460.1,363c-10.4,0-18.8-8.4-18.8-18.8s8.4-18.8,18.8-18.8s18.8,8.4,18.8,18.8&#10;&#9;&#9;S470.5,363,460.1,363z M460.1,333.4c-6,0-10.8,4.9-10.8,10.8s4.9,10.8,10.8,10.8s10.8-4.9,10.8-10.8S466.1,333.4,460.1,333.4z" style="fill: rgb(74, 80, 93);"/>
</g><g>
	<g>
		<path class="st3" d="M273.4,1226.8v-161.4h-58.5v161.4c-50.5,13-87.8,58.8-87.8,113.4c0,64.7,52.4,117.1,117.1,117.1&#10;&#9;&#9;&#9;s117.1-52.4,117.1-117.1C361.2,1285.7,323.9,1239.8,273.4,1226.8z" style="fill: rgb(0, 203, 245);"/>
	</g>
	<g>
		<path class="st4" d="M273.4,1226.8v-161.4h-29.3v391.9c64.7,0,117.1-52.4,117.1-117.1C361.2,1285.7,323.9,1239.8,273.4,1226.8z" style="fill: rgb(11, 195, 209);"/>
	</g>
	<g>
		<path d="M 203.199997 1039.099976 H 284.899994 V 1064.999975 H 203.199997 V 1039.099976 Z" class="st1" style="fill: rgb(255, 224, 0);"/>
	</g>
	<g>
		<path d="M 244.100006 1039.099976 H 284.900005 V 1064.999975 H 244.100006 V 1039.099976 Z" class="st8" style="fill: rgb(239, 204, 3);"/>
	</g>
	<g>
		<path class="st5" d="M347.2,1343.2c-1.7,0-3-1.3-3-3c0-45.7-30.9-85.6-75.1-96.9c-1.6-0.4-2.6-2-2.2-3.7s2-2.6,3.7-2.2&#10;&#9;&#9;&#9;c46.8,12.1,79.6,54.3,79.6,102.8C350.2,1341.9,348.8,1343.2,347.2,1343.2z" style="fill: rgb(255, 255, 255);"/>
	</g>
	<g>
		<g>
			<path class="st6" d="M302.6,1340.2c0-16.2-13.1-29.3-29.3-29.3s-29.3,13.1-29.3,29.3H127l0,0c0,64.7,52.4,117.1,117.1,117.1&#10;&#9;&#9;&#9;&#9;s117.1-52.4,117.1-117.1l0,0H302.6z" style="fill: rgb(0, 142, 185);"/>
		</g>
	</g>
	<g>
		<g>
			<path class="st7" d="M302.6,1340.2c0-16.2-13.1-29.3-29.3-29.3s-29.3,13.1-29.3,29.3v117.1c64.7,0,117.1-52.4,117.1-117.1H302.6z&#10;&#9;&#9;&#9;&#9;" style="fill: rgb(6, 126, 145);"/>
		</g>
	</g>
	<g>
		<path class="st2" d="M244.1,1461.3c-66.8,0-121.1-54.3-121.1-121.1c0-54.2,36-101.7,87.8-116.5v-158.4c0-2.2,1.8-4,4-4h58.5&#10;&#9;&#9;&#9;c2.2,0,4,1.8,4,4v158.4c51.9,14.8,87.8,62.2,87.8,116.5C365.2,1407,310.9,1461.3,244.1,1461.3z M218.8,1069.4v157.4&#10;&#9;&#9;&#9;c0,1.8-1.2,3.4-3,3.9c-49.9,12.9-84.8,57.9-84.8,109.5c0,62.4,50.7,113.1,113.1,113.1c62.4,0,113.1-50.7,113.1-113.1&#10;&#9;&#9;&#9;c0-51.6-34.9-96.7-84.8-109.5c-1.8-0.5-3-2-3-3.9v-157.4H218.8z" style="fill: rgb(74, 80, 93);"/>
	</g>
	<g>
		<path class="st2" d="M284.9,1069h-81.7c-2.2,0-4-1.8-4-4v-25.9c0-2.2,1.8-4,4-4h81.7c2.2,0,4,1.8,4,4v25.9&#10;&#9;&#9;&#9;C288.9,1067.2,287.1,1069,284.9,1069z M207.2,1061h73.7v-17.9h-73.7V1061z" style="fill: rgb(74, 80, 93);"/>
	</g>
	<g>
		<g>
			<path class="st2" d="M244.1,1461.3c-66.8,0-121.1-54.3-121.1-121.1c0-2.2,1.8-4,4-4h113.3c2-16.5,16-29.3,33-29.3&#10;&#9;&#9;&#9;&#9;s31.1,12.8,33,29.3h54.8c2.2,0,4,1.8,4,4C365.2,1407,310.9,1461.3,244.1,1461.3z M131.1,1344.2c2.1,60.5,52,109.1,113,109.1&#10;&#9;&#9;&#9;&#9;c61,0,110.9-48.6,113-109.1h-54.5c-2.2,0-4-1.8-4-4c0-13.9-11.3-25.3-25.3-25.3s-25.3,11.3-25.3,25.3c0,2.2-1.8,4-4,4H131.1z&#10;&#9;&#9;&#9;&#9; M306.6,1340.2L306.6,1340.2L306.6,1340.2z" style="fill: rgb(74, 80, 93);"/>
		</g>
	</g>
	<g>
		<path d="M 235.400003 1285.699951 A 14.6 14.6 0 0 1 220.800003 1300.299952 A 14.6 14.6 0 0 1 206.200003 1285.699951 A 14.6 14.6 0 0 1 220.800003 1271.099951 A 14.6 14.6 0 0 1 235.400003 1285.699951 Z" class="st5" style="fill: rgb(255, 255, 255);"/>
		<path class="st2" d="M220.8,1304.3c-10.3,0-18.6-8.4-18.6-18.6s8.4-18.6,18.6-18.6s18.6,8.4,18.6,18.6S231,1304.3,220.8,1304.3z&#10;&#9;&#9;&#9; M220.8,1275.1c-5.9,0-10.6,4.8-10.6,10.6s4.8,10.6,10.6,10.6s10.6-4.8,10.6-10.6S226.6,1275.1,220.8,1275.1z" style="fill: rgb(74, 80, 93);"/>
	</g>
	<g>
		<path d="M 251.400006 1234.800049 A 7.3 7.3 0 0 1 244.100006 1242.100049 A 7.3 7.3 0 0 1 236.800006 1234.800049 A 7.3 7.3 0 0 1 244.100006 1227.500049 A 7.3 7.3 0 0 1 251.400006 1234.800049 Z" class="st5" style="fill: rgb(255, 255, 255);"/>
		<path class="st2" d="M244.1,1246.2c-6.2,0-11.3-5.1-11.3-11.3s5.1-11.3,11.3-11.3s11.3,5.1,11.3,11.3S250.3,1246.2,244.1,1246.2z&#10;&#9;&#9;&#9; M244.1,1231.5c-1.8,0-3.3,1.5-3.3,3.3s1.5,3.3,3.3,3.3s3.3-1.5,3.3-3.3S245.9,1231.5,244.1,1231.5z" style="fill: rgb(74, 80, 93);"/>
	</g>
	<g>
		<path d="M 236.999994 1409.099976 A 14.6 14.6 0 0 1 222.399994 1423.699976 A 14.6 14.6 0 0 1 207.799994 1409.099976 A 14.6 14.6 0 0 1 222.399994 1394.499975 A 14.6 14.6 0 0 1 236.999994 1409.099976 Z" class="st5" style="fill: rgb(255, 255, 255);"/>
		<path class="st2" d="M222.4,1427.7c-10.3,0-18.6-8.4-18.6-18.6s8.4-18.6,18.6-18.6c10.3,0,18.6,8.4,18.6,18.6&#10;&#9;&#9;&#9;S232.7,1427.7,222.4,1427.7z M222.4,1398.5c-5.9,0-10.6,4.8-10.6,10.6s4.8,10.6,10.6,10.6c5.9,0,10.6-4.8,10.6-10.6&#10;&#9;&#9;&#9;S228.3,1398.5,222.4,1398.5z" style="fill: rgb(74, 80, 93);"/>
	</g>
	<g>
		<path d="M 280.599988 1385.800049 A 7.3 7.3 0 0 1 273.299988 1393.100049 A 7.3 7.3 0 0 1 265.999988 1385.800049 A 7.3 7.3 0 0 1 273.299988 1378.500049 A 7.3 7.3 0 0 1 280.599988 1385.800049 Z" class="st5" style="fill: rgb(255, 255, 255);"/>
		<path class="st2" d="M273.3,1397.1c-6.2,0-11.3-5.1-11.3-11.3s5.1-11.3,11.3-11.3s11.3,5.1,11.3,11.3S279.5,1397.1,273.3,1397.1z&#10;&#9;&#9;&#9; M273.3,1382.5c-1.8,0-3.3,1.5-3.3,3.3s1.5,3.3,3.3,3.3s3.3-1.5,3.3-3.3S275.1,1382.5,273.3,1382.5z" style="fill: rgb(74, 80, 93);"/>
	</g>
</g><g>
	<g>
		<path d="M 638.400024 1401.800049 H 815.700027 V 1460.300049 H 638.400024 V 1401.800049 Z" class="st6" style="fill: rgb(0, 142, 185);"/>
	</g>
	<g>
		<path d="M 616.299988 1416.400024 H 638.499989 V 1445.700024 H 616.299988 V 1416.400024 Z" class="st3" style="fill: rgb(0, 203, 245);"/>
	</g>
	<g>
		<path d="M 874.2999877929688 1431.0999755859375 L 815.7000122070312 1460.300048828125 L 815.7000122070312 1401.800048828125 Z" class="st3" style="fill: rgb(0, 203, 245);"/>
	</g>
	<g>
		<path d="M 638.400024 1401.800049 H 815.700027 V 1431.100048 H 638.400024 V 1401.800049 Z" class="st7" style="fill: rgb(6, 126, 145);"/>
	</g>
	<g>
		<path d="M 616.299988 1416.400024 H 638.499989 V 1431.000025 H 616.299988 V 1416.400024 Z" class="st4" style="fill: rgb(11, 195, 209);"/>
	</g>
	<g>
		<path d="M 815.7000122070312 1401.800048828125 L 815.7000122070312 1431.0999755859375 L 874.2999877929688 1431.0999755859375 Z" class="st4" style="fill: rgb(11, 195, 209);"/>
	</g>
	<g>
		<path class="st5" d="M801.7,1449.3c-1.7,0-3-1.3-3-3v-27.5H652.4c-1.7,0-3-1.3-3-3s1.3-3,3-3h149.3c1.7,0,3,1.3,3,3v30.5&#10;&#9;&#9;&#9;C804.7,1448,803.4,1449.3,801.7,1449.3z" style="fill: rgb(255, 255, 255);"/>
	</g>
	<g>
		<path class="st2" d="M638.4,1449.7h-22.2c-2.2,0-4-1.8-4-4v-29.3c0-2.2,1.8-4,4-4h22.2c2.2,0,4,1.8,4,4v29.3&#10;&#9;&#9;&#9;C642.4,1447.9,640.6,1449.7,638.4,1449.7z M620.3,1441.7h14.2v-21.3h-14.2V1441.7z" style="fill: rgb(74, 80, 93);"/>
	</g>
	<g>
		<path class="st2" d="M815.7,1464.3H638.4c-2.2,0-4-1.8-4-4v-58.5c0-2.2,1.8-4,4-4h177.3c2.2,0,4,1.8,4,4v58.5&#10;&#9;&#9;&#9;C819.7,1462.5,817.9,1464.3,815.7,1464.3z M642.4,1456.3h169.3v-50.5H642.4V1456.3z" style="fill: rgb(74, 80, 93);"/>
	</g>
	<g>
		<path d="M 616.299988 1416.400024 H 638.499989 V 1445.700024 H 616.299988 V 1416.400024 Z" class="st9" style="fill: none;"/>
	</g>
	<g>
		<path class="st2" d="M815.7,1464.3c-0.7,0-1.5-0.2-2.1-0.6c-1.2-0.7-1.9-2-1.9-3.4v-58.5c0-1.4,0.7-2.7,1.9-3.4&#10;&#9;&#9;&#9;c1.2-0.7,2.7-0.8,3.9-0.2l58.5,29.3c1.4,0.7,2.2,2.1,2.2,3.6s-0.9,2.9-2.2,3.6l-58.5,29.3C816.9,1464.2,816.3,1464.3,815.7,1464.3&#10;&#9;&#9;&#9;z M819.7,1408.3v45.6l45.6-22.8L819.7,1408.3z" style="fill: rgb(74, 80, 93);"/>
	</g>
	<g>
		<path class="st2" d="M648.4,1405.8c-2.2,0-4-1.8-4-4v-14.6c0-2.2,1.8-4,4-4H707c2.2,0,4,1.8,4,4s-1.8,4-4,4h-54.5v10.6&#10;&#9;&#9;&#9;C652.4,1404,650.6,1405.8,648.4,1405.8z" style="fill: rgb(74, 80, 93);"/>
	</g>
</g><g>
	<path class="st1" d="M1170.3,117.3V84.3h-122.3v122.3h32.9c0,0,0,0,0,0c0-15.6,12.7-28.2,28.2-28.2s28.2,12.7,28.2,28.2&#10;&#9;&#9;c0,0,0,0,0,0h32.9v-32.9c15.6,0,28.2-12.7,28.2-28.2C1198.5,129.9,1185.8,117.3,1170.3,117.3z" style="fill: rgb(255, 224, 0);"/>
</g><g>
	<path class="st8" d="M1170.3,117.3V84.3h-61.2v94.1c15.6,0,28.2,12.7,28.2,28.2c0,0,0,0,0,0h32.9v-32.9c15.6,0,28.2-12.7,28.2-28.2&#10;&#9;&#9;C1198.5,129.9,1185.8,117.3,1170.3,117.3z" style="fill: rgb(239, 204, 3);"/>
</g><g>
	<path class="st2" d="M1170.3,210.7h-32.9c-2.2,0-4-1.8-4-4c0-13.4-10.9-24.2-24.2-24.2c-13.4,0-24.2,10.9-24.2,24.2&#10;&#9;&#9;c0,2.2-1.8,4-4,4l-32.9,0c-1.1,0-2.1-0.4-2.8-1.2c-0.8-0.8-1.2-1.8-1.2-2.8V84.3c0-2.2,1.8-4,4-4h122.3c2.2,0,4,1.8,4,4v29.2&#10;&#9;&#9;c15.9,2,28.2,15.6,28.2,32s-12.3,30-28.2,32v29.2C1174.3,208.9,1172.5,210.7,1170.3,210.7z M1051.9,202.7h25.2&#10;&#9;&#9;c2-15.9,15.6-28.2,32-28.2c16.4,0,30,12.3,32,28.2l25.2,0v-28.9c0-2.2,1.8-4,4-4c13.4,0,24.2-10.9,24.2-24.2&#10;&#9;&#9;c0-13.4-10.9-24.2-24.2-24.2c-2.2,0-4-1.8-4-4V88.3h-114.3V202.7z" style="fill: rgb(74, 80, 93);"/>
</g><g>
	<path class="st5" d="M1156.3,117.8c-1.7,0-3-1.3-3-3v-13.5h-91.3c-1.7,0-3-1.3-3-3s1.3-3,3-3h94.3c1.7,0,3,1.3,3,3v16.5&#10;&#9;&#9;C1159.3,116.5,1157.9,117.8,1156.3,117.8z" style="fill: rgb(255, 255, 255);"/>
</g><g>
	<g>
		
			<path d="M 667.700012 324 H 732.400009 V 346.9 H 667.700012 V 324 Z" transform="matrix(-1 -1.589052e-11 1.589052e-11 -1 1400 670.8652)" class="st1" style="fill: rgb(255, 224, 0);"/>
	</g>
	<g>
		<path d="M 700 324 H 732.299999 V 346.9 H 700 V 324 Z" class="st8" style="fill: rgb(239, 204, 3);"/>
	</g>
	<g>
		<path class="st2" d="M732.3,350.9h-64.7c-2.2,0-4-1.8-4-4V324c0-2.2,1.8-4,4-4h64.7c2.2,0,4,1.8,4,4v22.9&#10;&#9;&#9;&#9;C736.3,349.1,734.5,350.9,732.3,350.9z M671.7,342.9h56.7V328h-56.7V342.9z" style="fill: rgb(74, 80, 93);"/>
	</g>
	<g>
		
			<path d="M 655.299988 232.5 H 744.799988 V 324 H 655.299988 V 232.5 Z" transform="matrix(-1 -4.589319e-11 4.589319e-11 -1 1400 556.5393)" class="st3" style="fill: rgb(0, 203, 245);"/>
	</g>
	<g>
		<path d="M 700 232.5 H 744.700001 V 324 H 700 V 232.5 Z" class="st4" style="fill: rgb(11, 195, 209);"/>
	</g>
	<g>
		<path class="st2" d="M744.7,328h-89.5c-2.2,0-4-1.8-4-4v-91.5c0-2.2,1.8-4,4-4h89.5c2.2,0,4,1.8,4,4V324&#10;&#9;&#9;&#9;C748.7,326.2,746.9,328,744.7,328z M659.3,320h81.5v-83.5h-81.5V320z" style="fill: rgb(74, 80, 93);"/>
	</g>
	<g>
		
			<path d="M 667.700012 324 H 732.400009 V 346.9 H 667.700012 V 324 Z" transform="matrix(-1 -1.589052e-11 1.589052e-11 -1 1400 670.8652)" class="st9" style="fill: none;"/>
	</g>
	<g>
		<path class="st2" d="M700,282.3h-44.7c-2.2,0-4-1.8-4-4s1.8-4,4-4H700c2.2,0,4,1.8,4,4S702.2,282.3,700,282.3z" style="fill: rgb(74, 80, 93);"/>
	</g>
	<g>
		<path class="st2" d="M744.7,305.1H700c-2.2,0-4-1.8-4-4s1.8-4,4-4h44.7c2.2,0,4,1.8,4,4S746.9,305.1,744.7,305.1z" style="fill: rgb(74, 80, 93);"/>
	</g>
	<g>
		<path d="M 779.800003 181.699997 A 79.800003 81.5 0 0 1 700 263.199997 A 79.800003 81.5 0 0 1 620.199997 181.699997 A 79.800003 81.5 0 0 1 700 100.199997 A 79.800003 81.5 0 0 1 779.800003 181.699997 Z" class="st1" style="fill: rgb(255, 224, 0);"/>
	</g>
	<g>
		<path class="st8" d="M700,100.2v163c44,0,79.8-36.5,79.8-81.5S744,100.2,700,100.2z" style="fill: rgb(239, 204, 3);"/>
	</g>
	<g>
		<path d="M 719.9 192 A 19.9 20.4 0 0 1 700 212.4 A 19.9 20.4 0 0 1 680.1 192 A 19.9 20.4 0 0 1 700 171.6 A 19.9 20.4 0 0 1 719.9 192 Z" class="st6" style="fill: rgb(0, 142, 185);"/>
	</g>
	<g>
		<path class="st7" d="M700,171.6v40.8c11,0,19.9-9.1,19.9-20.4S711,171.6,700,171.6z" style="fill: rgb(6, 126, 145);"/>
	</g>
	<g>
		<path class="st5" d="M765.8,184.7c-1.7,0-3-1.3-3-3c0-35.6-28.2-64.5-62.8-64.5c-1.7,0-3-1.3-3-3s1.3-3,3-3&#10;&#9;&#9;&#9;c37.9,0,68.8,31.6,68.8,70.5C768.8,183.3,767.4,184.7,765.8,184.7z" style="fill: rgb(255, 255, 255);"/>
	</g>
	<g>
		<path class="st2" d="M700,267.2c-46.2,0-83.8-38.4-83.8-85.5s37.6-85.5,83.8-85.5c46.2,0,83.8,38.4,83.8,85.5&#10;&#9;&#9;&#9;S746.2,267.2,700,267.2z M700,104.2c-41.8,0-75.8,34.8-75.8,77.5c0,42.7,34,77.5,75.8,77.5c41.8,0,75.8-34.8,75.8-77.5&#10;&#9;&#9;&#9;C775.8,138.9,741.8,104.2,700,104.2z" style="fill: rgb(74, 80, 93);"/>
	</g>
	<g>
		<path d="M 719.9 192 A 19.9 20.4 0 0 1 700 212.4 A 19.9 20.4 0 0 1 680.1 192 A 19.9 20.4 0 0 1 700 171.6 A 19.9 20.4 0 0 1 719.9 192 Z" class="st9" style="fill: none;"/>
	</g>
	<g>
		<path class="st2" d="M700,267.2c-2.2,0-4-1.8-4-4v-50.9c0-2.2,1.8-4,4-4s4,1.8,4,4v50.9C704,265.4,702.2,267.2,700,267.2z" style="fill: rgb(74, 80, 93);"/>
	</g>
	<g>
		<path class="st2" d="M700,216.3c-13.2,0-23.9-10.9-23.9-24.4s10.7-24.4,23.9-24.4c13.2,0,23.9,10.9,23.9,24.4&#10;&#9;&#9;&#9;S713.2,216.3,700,216.3z M700,175.6c-8.8,0-15.9,7.3-15.9,16.4s7.1,16.4,15.9,16.4c8.8,0,15.9-7.3,15.9-16.4&#10;&#9;&#9;&#9;S708.8,175.6,700,175.6z" style="fill: rgb(74, 80, 93);"/>
	</g>
</g><g>
	<path d="M 895.9000244140625 216 L 914 210.89999389648438 L 895.9000244140625 205.6999969482422 L 890.7999877929688 187.60000610351562 L 885.7000122070312 205.6999969482422 L 867.5999755859375 210.89999389648438 L 885.7000122070312 216 L 890.7999877929688 234.10000610351562 Z" class="st3" style="fill: rgb(0, 203, 245);"/>
</g><g>
	<path d="M 856.2000122070312 188.10000610351562 L 865.2999877929688 185.60000610351562 L 856.2000122070312 183 L 853.5999755859375 173.89999389648438 L 851 183 L 841.9000244140625 185.60000610351562 L 851 188.10000610351562 L 853.5999755859375 197.1999969482422 Z" class="st1" style="fill: rgb(255, 224, 0);"/>
</g><g>
	<path d="M 1137.5 606 L 1146.5999755859375 603.4000244140625 L 1137.5 600.7999877929688 L 1134.9000244140625 591.7000122070312 L 1132.300048828125 600.7999877929688 L 1123.199951171875 603.4000244140625 L 1132.300048828125 606 L 1134.9000244140625 615.0999755859375 Z" class="st1" style="fill: rgb(255, 224, 0);"/>
</g><g>
	<path d="M 318 687 L 327.1000061035156 684.4000244140625 L 318 681.9000244140625 L 315.3999938964844 672.7999877929688 L 312.8999938964844 681.9000244140625 L 303.79998779296875 684.4000244140625 L 312.8999938964844 687 L 315.3999938964844 696.0999755859375 Z" class="st1" style="fill: rgb(255, 224, 0);"/>
</g><g>
	<path d="M 205.60000610351562 964.5999755859375 L 214.6999969482422 962 L 205.60000610351562 959.4000244140625 L 203.10000610351562 950.2999877929688 L 200.5 959.4000244140625 L 191.39999389648438 962 L 200.5 964.5999755859375 L 203.10000610351562 973.7000122070312 Z" class="st1" style="fill: rgb(255, 224, 0);"/>
</g><g>
	<path d="M 462.70001220703125 1225.4000244140625 L 471.79998779296875 1222.800048828125 L 462.70001220703125 1220.300048828125 L 460.1000061035156 1211.199951171875 L 457.5 1220.300048828125 L 448.3999938964844 1222.800048828125 L 457.5 1225.4000244140625 L 460.1000061035156 1234.5 Z" class="st1" style="fill: rgb(255, 224, 0);"/>
</g><g>
	<path d="M 1001.0999755859375 1057.300048828125 L 1010.2000122070312 1054.699951171875 L 1001.0999755859375 1052.0999755859375 L 998.5 1043 L 996 1052.0999755859375 L 986.9000244140625 1054.699951171875 L 996 1057.300048828125 L 998.5 1066.4000244140625 Z" class="st1" style="fill: rgb(255, 224, 0);"/>
</g><g>
	<path d="M 1182.4000244140625 573.5999755859375 L 1200.5 568.5 L 1182.4000244140625 563.4000244140625 L 1177.300048828125 545.2999877929688 L 1172.0999755859375 563.4000244140625 L 1154.0999755859375 568.5 L 1172.0999755859375 573.5999755859375 L 1177.300048828125 591.7000122070312 Z" class="st3" style="fill: rgb(0, 203, 245);"/>
</g><g>
	<path d="M 1036.199951171875 1036.5999755859375 L 1054.300048828125 1031.5 L 1036.199951171875 1026.4000244140625 L 1031.0999755859375 1008.2999877929688 L 1026 1026.4000244140625 L 1007.9000244140625 1031.5 L 1026 1036.5999755859375 L 1031.0999755859375 1054.699951171875 Z" class="st3" style="fill: rgb(0, 203, 245);"/>
</g><g>
	<path d="M 442 1193.0999755859375 L 460.1000061035156 1188 L 442 1182.800048828125 L 436.8999938964844 1164.699951171875 L 431.79998779296875 1182.800048828125 L 413.70001220703125 1188 L 431.79998779296875 1193.0999755859375 L 436.8999938964844 1211.199951171875 Z" class="st3" style="fill: rgb(0, 203, 245);"/>
</g><g>
	<path d="M 178.89999389648438 932.2000122070312 L 197 927.0999755859375 L 178.89999389648438 922 L 173.8000030517578 903.9000244140625 L 168.6999969482422 922 L 150.60000610351562 927.0999755859375 L 168.6999969482422 932.2000122070312 L 173.8000030517578 950.2999877929688 Z" class="st3" style="fill: rgb(0, 203, 245);"/>
</g><g>
	<path d="M 349.1000061035156 653.5 L 367.20001220703125 648.2999877929688 L 349.1000061035156 643.2000122070312 L 344 625.0999755859375 L 338.8999938964844 643.2000122070312 L 320.79998779296875 648.2999877929688 L 338.8999938964844 653.5 L 344 671.5999755859375 Z" class="st3" style="fill: rgb(0, 203, 245);"/>
</g><g>
	<g>
		<path class="st1" d="M188.4,86.3L188.4,86.3L188.4,86.3c-32.3,28.4-50.8,69.4-50.8,112.5v88.5h101.7v-88.5&#10;&#9;&#9;&#9;C239.3,155.7,220.8,114.8,188.4,86.3z" style="fill: rgb(255, 224, 0);"/>
	</g>
	<g>
		<path d="M 137.600006 287.299988 H 239.300003 V 309.199987 H 137.600006 V 287.299988 Z" class="st6" style="fill: rgb(0, 142, 185);"/>
	</g>
	<g>
		<path d="M 212.399994 186.800003 A 24 24 0 0 1 188.399994 210.800003 A 24 24 0 0 1 164.399994 186.800003 A 24 24 0 0 1 188.399994 162.800003 A 24 24 0 0 1 212.399994 186.800003 Z" class="st5" style="fill: rgb(255, 255, 255);"/>
	</g>
	<g>
		<g>
			<path class="st8" d="M239.3,198.8c0-43-18.5-84-50.8-112.5l0,0v201h50.8V198.8z" style="fill: rgb(239, 204, 3);"/>
		</g>
		<g>
			<path d="M 188.399994 287.299988 H 239.199993 V 309.199987 H 188.399994 V 287.299988 Z" class="st7" style="fill: rgb(6, 126, 145);"/>
		</g>
		<g>
			<path class="st10" d="M188.4,162.8v48.1c13.3,0,24-10.8,24-24C212.5,173.5,201.7,162.8,188.4,162.8z" style="fill: rgb(239, 239, 237);"/>
		</g>
	</g>
	<g>
		<path class="st2" d="M239.3,291.3H137.6c-2.2,0-4-1.8-4-4v-88.5c0-44.2,19-86.3,52.2-115.5c1.5-1.3,3.8-1.3,5.3,0&#10;&#9;&#9;&#9;c33.2,29.2,52.2,71.3,52.2,115.5v88.5C243.3,289.5,241.5,291.3,239.3,291.3z M141.6,283.3h93.7v-84.5c0-40.7-17-79.5-46.8-107.1&#10;&#9;&#9;&#9;c-29.8,27.6-46.8,66.4-46.8,107.1V283.3z" style="fill: rgb(74, 80, 93);"/>
	</g>
	<g>
		<path class="st5" d="M225.3,276.3c-1.7,0-3-1.3-3-3v-51c0-1.7,1.3-3,3-3s3,1.3,3,3v51C228.3,275,226.9,276.3,225.3,276.3z" style="fill: rgb(255, 255, 255);"/>
	</g>
	<g>
		<path class="st2" d="M239.3,313.2H137.6c-2.2,0-4-1.8-4-4v-21.9c0-2.2,1.8-4,4-4h101.7c2.2,0,4,1.8,4,4v21.9&#10;&#9;&#9;&#9;C243.3,311.4,241.5,313.2,239.3,313.2z M141.6,305.2h93.7v-13.9h-93.7V305.2z" style="fill: rgb(74, 80, 93);"/>
	</g>
	<g>
		<path class="st4" d="M239.3,208.6L239.3,208.6l0,100.6l51.1,39.5v-89C290.3,231.5,267.5,208.6,239.3,208.6z" style="fill: rgb(11, 195, 209);"/>
		<path class="st2" d="M290.3,352.7c-0.9,0-1.7-0.3-2.4-0.8l-51.1-39.5c-1-0.8-1.6-1.9-1.6-3.2V208.6c0-2.2,1.8-4,4-4&#10;&#9;&#9;&#9;c30.4,0,55.1,24.7,55.1,55.1v89c0,1.5-0.9,2.9-2.2,3.6C291.5,352.5,290.9,352.7,290.3,352.7z M243.3,307.2l43.1,33.3v-80.9&#10;&#9;&#9;&#9;c0-24.6-19-44.8-43.1-46.9V307.2z" style="fill: rgb(74, 80, 93);"/>
	</g>
	<g>
		<path class="st5" d="M276.3,323.1c-1.7,0-3-1.3-3-3v-60.5c0-1.7,1.3-3,3-3s3,1.3,3,3v60.5C279.3,321.8,278,323.1,276.3,323.1z" style="fill: rgb(255, 255, 255);"/>
	</g>
	<g>
		<path class="st3" d="M137.6,208.6L137.6,208.6l0,100.6l-51.1,39.5v-89C86.6,231.5,109.4,208.6,137.6,208.6z" style="fill: rgb(0, 203, 245);"/>
		<path class="st2" d="M86.6,352.7c-0.6,0-1.2-0.1-1.8-0.4c-1.4-0.7-2.2-2.1-2.2-3.6v-89c0-30.4,24.7-55.1,55-55.1c2.2,0,4,1.8,4,4&#10;&#9;&#9;&#9;v100.6c0,1.2-0.6,2.4-1.6,3.2l-51,39.5C88.3,352.4,87.4,352.7,86.6,352.7z M133.6,212.8c-24.1,2-43,22.3-43,46.9v80.9l43-33.3&#10;&#9;&#9;&#9;V212.8z" style="fill: rgb(74, 80, 93);"/>
	</g>
	<g>
		<path class="st2" d="M188.4,214.9c-15.5,0-28-12.6-28-28c0-15.5,12.6-28,28-28c15.5,0,28,12.6,28,28&#10;&#9;&#9;&#9;C216.5,202.3,203.9,214.9,188.4,214.9z M188.4,166.8c-11.1,0-20,9-20,20c0,11.1,9,20,20,20c11.1,0,20-9,20-20&#10;&#9;&#9;&#9;C208.5,175.8,199.5,166.8,188.4,166.8z" style="fill: rgb(74, 80, 93);"/>
	</g>
	<g>
		<path class="st2" d="M188.4,410.3c-2.2,0-4-1.8-4-4v-67.2c0-2.2,1.8-4,4-4s4,1.8,4,4v67.2C192.4,408.5,190.6,410.3,188.4,410.3z" style="fill: rgb(74, 80, 93);"/>
	</g>
	<g>
		<path class="st2" d="M228.4,430.3c-2.2,0-4-1.8-4-4v-67.2c0-2.2,1.8-4,4-4s4,1.8,4,4v67.2C232.4,428.5,230.6,430.3,228.4,430.3z" style="fill: rgb(74, 80, 93);"/>
	</g>
	<g>
		<path class="st2" d="M148.4,430.3c-2.2,0-4-1.8-4-4v-67.2c0-2.2,1.8-4,4-4s4,1.8,4,4v67.2C152.4,428.5,150.6,430.3,148.4,430.3z" style="fill: rgb(74, 80, 93);"/>
	</g>
</g><g>
	<path class="st6" d="M1270.8,747c-1.8,0-3.5,0.2-5.2,0.5c-3.9-20.4-21.8-35.8-43.3-35.8c-0.3,0-0.7,0-1,0&#10;&#9;&#9;c-5.9-36-37.2-63.5-74.8-63.5c-41.9,0-75.8,34-75.8,75.8c0,2.2,0.1,4.5,0.3,6.7c-3-0.9-6.2-1.3-9.6-1.3&#10;&#9;&#9;c-19.5,0-35.2,15.8-35.2,35.2s15.8,35.2,35.2,35.2h209.5c14.6,0,26.5-11.9,26.5-26.5S1285.4,747,1270.8,747z" style="fill: rgb(0, 142, 185);"/>
</g><g>
	<path class="st7" d="M1270.8,747c-1.8,0-3.5,0.2-5.2,0.5c-3.9-20.4-21.8-35.8-43.3-35.8c-0.3,0-0.7,0-1,0&#10;&#9;&#9;c-5.9-36-37.1-63.4-74.7-63.5V800h124.2c14.6,0,26.5-11.9,26.5-26.5S1285.4,747,1270.8,747z" style="fill: rgb(6, 126, 145);"/>
</g><g>
	<path class="st2" d="M1270.8,804h-209.5c-21.6,0-39.2-17.6-39.2-39.2s17.6-39.2,39.2-39.2c1.8,0,3.5,0.1,5.3,0.4c0-0.6,0-1.1,0-1.7&#10;&#9;&#9;c0-44,35.8-79.8,79.8-79.8c19,0,37.5,6.8,51.9,19.2c13.4,11.5,22.6,27.1,26.2,44.3c20.8,1,38.6,15.3,44.1,35.3&#10;&#9;&#9;c0.7-0.1,1.4-0.1,2.1-0.1c16.8,0,30.5,13.7,30.5,30.5S1287.6,804,1270.8,804z M1061.3,733.5c-17.2,0-31.2,14-31.2,31.2&#10;&#9;&#9;s14,31.2,31.2,31.2h209.5c12.4,0,22.5-10.1,22.5-22.5s-10.1-22.5-22.5-22.5c-1.5,0-3,0.1-4.4,0.4c-1,0.2-2.1,0-3-0.6&#10;&#9;&#9;c-0.9-0.6-1.5-1.5-1.7-2.6c-3.6-18.9-20.2-32.5-39.4-32.5c-0.2,0-0.3,0-0.5,0l-0.4,0c-2,0-3.7-1.4-4-3.4&#10;&#9;&#9;c-2.7-16.6-11.3-31.8-24.2-42.8c-13-11.1-29.6-17.3-46.7-17.3c-39.6,0-71.8,32.2-71.8,71.8c0,2.1,0.1,4.2,0.3,6.3&#10;&#9;&#9;c0.1,1.3-0.4,2.6-1.4,3.4c-1,0.8-2.4,1.1-3.6,0.8C1067,733.9,1064.2,733.5,1061.3,733.5z" style="fill: rgb(74, 80, 93);"/>
</g><g>
	<path class="st5" d="M1251.8,753.2c-1.4,0-2.7-1-2.9-2.4c-2.4-12.7-13.6-22-26.6-22l-0.7,0c-1.6,0-3-1.3-3.1-2.9&#10;&#9;&#9;c0-1.7,1.3-3,2.9-3.1l0.8,0c15.9,0,29.6,11.3,32.6,26.8c0.3,1.6-0.8,3.2-2.4,3.5C1252.2,753.2,1252,753.2,1251.8,753.2z" style="fill: rgb(255, 255, 255);"/>
</g><g>
	<g>
		<path d="M 1217.300018 1252.599976 A 129.399994 129.399994 0 0 1 1087.900024 1381.999969 A 129.399994 129.399994 0 0 1 958.500031 1252.599976 A 129.399994 129.399994 0 0 1 1087.900024 1123.199982 A 129.399994 129.399994 0 0 1 1217.300018 1252.599976 Z" class="st3" style="fill: rgb(0, 203, 245);"/>
	</g>
	<g>
		<path class="st4" d="M1087.9,1123.3V1382c71.4,0,129.4-57.9,129.4-129.4S1159.4,1123.3,1087.9,1123.3z" style="fill: rgb(11, 195, 209);"/>
	</g>
	<g>
		<path d="M 1177.300026 1252.599976 A 89.400002 89.400002 0 0 1 1087.900024 1341.999977 A 89.400002 89.400002 0 0 1 998.500023 1252.599976 A 89.400002 89.400002 0 0 1 1087.900024 1163.199974 A 89.400002 89.400002 0 0 1 1177.300026 1252.599976 Z" class="st6" style="fill: rgb(0, 142, 185);"/>
	</g>
	<g>
		<path class="st7" d="M1177.3,1252.6c0-49.3-40.1-89.4-89.4-89.4V1342C1137.2,1342,1177.3,1301.9,1177.3,1252.6z" style="fill: rgb(6, 126, 145);"/>
	</g>
	<g>
		<path d="M 1137.300026 1252.599976 A 49.400002 49.400002 0 0 1 1087.900024 1301.999977 A 49.400002 49.400002 0 0 1 1038.500023 1252.599976 A 49.400002 49.400002 0 0 1 1087.900024 1203.199974 A 49.400002 49.400002 0 0 1 1137.300026 1252.599976 Z" class="st1" style="fill: rgb(255, 224, 0);"/>
	</g>
	<g>
		<path class="st8" d="M1137.3,1252.6c0-27.2-22.1-49.4-49.4-49.4v98.7C1115.1,1302,1137.3,1279.9,1137.3,1252.6z" style="fill: rgb(239, 204, 3);"/>
	</g>
	<g>
		<path class="st5" d="M1199.5,1226.5c-1.3,0-2.5-0.9-2.9-2.2c-12.9-49.4-57.6-84-108.7-84c-1.7,0-3-1.3-3-3s1.3-3,3-3&#10;&#9;&#9;&#9;c53.8,0,100.9,36.4,114.5,88.5c0.4,1.6-0.5,3.2-2.1,3.7C1200,1226.5,1199.8,1226.5,1199.5,1226.5z" style="fill: rgb(255, 255, 255);"/>
	</g>
	<g>
		<path class="st2" d="M1087.9,1386c-73.5,0-133.4-59.8-133.4-133.4c0-73.5,59.8-133.4,133.4-133.4s133.4,59.8,133.4,133.4&#10;&#9;&#9;&#9;C1221.3,1326.2,1161.4,1386,1087.9,1386z M1087.9,1127.3c-69.1,0-125.4,56.2-125.4,125.4c0,69.1,56.2,125.4,125.4,125.4&#10;&#9;&#9;&#9;s125.4-56.2,125.4-125.4C1213.3,1183.5,1157,1127.3,1087.9,1127.3z" style="fill: rgb(74, 80, 93);"/>
	</g>
	<g>
		<path class="st2" d="M1087.9,1346c-51.5,0-93.4-41.9-93.4-93.4s41.9-93.4,93.4-93.4s93.4,41.9,93.4,93.4S1139.4,1346,1087.9,1346z&#10;&#9;&#9;&#9; M1087.9,1167.3c-47.1,0-85.4,38.3-85.4,85.4s38.3,85.4,85.4,85.4s85.4-38.3,85.4-85.4S1135,1167.3,1087.9,1167.3z" style="fill: rgb(74, 80, 93);"/>
	</g>
	<g>
		<path class="st2" d="M1087.9,1306c-29.4,0-53.4-23.9-53.4-53.4s23.9-53.4,53.4-53.4s53.4,23.9,53.4,53.4S1117.3,1306,1087.9,1306z&#10;&#9;&#9;&#9; M1087.9,1207.3c-25,0-45.4,20.3-45.4,45.4s20.3,45.4,45.4,45.4s45.4-20.3,45.4-45.4S1112.9,1207.3,1087.9,1207.3z" style="fill: rgb(74, 80, 93);"/>
	</g>
	<g>
		<path class="st2" d="M1237.3,1256.6h-149.4c-2.2,0-4-1.8-4-4s1.8-4,4-4h149.4c2.2,0,4,1.8,4,4S1239.5,1256.6,1237.3,1256.6z" style="fill: rgb(74, 80, 93);"/>
	</g>
	<g>
		<path d="M 1317.300048828125 1272.5999755859375 L 1257.300048828125 1272.5999755859375 L 1237.300048828125 1252.5999755859375 L 1257.300048828125 1232.5999755859375 L 1317.300048828125 1232.5999755859375 L 1297.300048828125 1252.5999755859375 Z" class="st6" style="fill: rgb(0, 142, 185);"/>
	</g>
</g><g>
	<path d="M 1176.299952 844.599976 A 14.6 14.6 0 0 1 1161.699951 859.199976 A 14.6 14.6 0 0 1 1147.099951 844.599976 A 14.6 14.6 0 0 1 1161.699951 829.999975 A 14.6 14.6 0 0 1 1176.299952 844.599976 Z" class="st1" style="fill: rgb(255, 224, 0);"/>
	<path class="st2" d="M1161.7,863.3c-10.3,0-18.6-8.4-18.6-18.6s8.4-18.6,18.6-18.6s18.6,8.4,18.6,18.6S1171.9,863.3,1161.7,863.3z&#10;&#9;&#9; M1161.7,834c-5.9,0-10.6,4.8-10.6,10.6s4.8,10.6,10.6,10.6s10.6-4.8,10.6-10.6S1167.5,834,1161.7,834z" style="fill: rgb(74, 80, 93);"/>
</g><g>
	<path d="M 714.6 391.5 A 14.6 14.6 0 0 1 700 406.1 A 14.6 14.6 0 0 1 685.4 391.5 A 14.6 14.6 0 0 1 700 376.9 A 14.6 14.6 0 0 1 714.6 391.5 Z" class="st1" style="fill: rgb(255, 224, 0);"/>
	<path class="st2" d="M700,410.1c-10.3,0-18.6-8.4-18.6-18.6s8.4-18.6,18.6-18.6s18.6,8.4,18.6,18.6S710.3,410.1,700,410.1z&#10;&#9;&#9; M700,380.9c-5.9,0-10.6,4.8-10.6,10.6s4.8,10.6,10.6,10.6s10.6-4.8,10.6-10.6S705.9,380.9,700,380.9z" style="fill: rgb(74, 80, 93);"/>
</g><g>
	<path d="M 202.999994 471 A 14.6 14.6 0 0 1 188.399994 485.6 A 14.6 14.6 0 0 1 173.799994 471 A 14.6 14.6 0 0 1 188.399994 456.4 A 14.6 14.6 0 0 1 202.999994 471 Z" class="st1" style="fill: rgb(255, 224, 0);"/>
	<path class="st2" d="M188.4,489.6c-10.3,0-18.6-8.4-18.6-18.6s8.4-18.6,18.6-18.6s18.6,8.4,18.6,18.6S198.7,489.6,188.4,489.6z&#10;&#9;&#9; M188.4,460.3c-5.9,0-10.6,4.8-10.6,10.6s4.8,10.6,10.6,10.6s10.6-4.8,10.6-10.6S194.3,460.3,188.4,460.3z" style="fill: rgb(74, 80, 93);"/>
</g><g>
	<path d="M 928.6 1253.800049 A 14.6 14.6 0 0 1 914 1268.400049 A 14.6 14.6 0 0 1 899.4 1253.800049 A 14.6 14.6 0 0 1 914 1239.200048 A 14.6 14.6 0 0 1 928.6 1253.800049 Z" class="st1" style="fill: rgb(255, 224, 0);"/>
	<path class="st2" d="M914,1272.4c-10.3,0-18.6-8.4-18.6-18.6s8.4-18.6,18.6-18.6s18.6,8.4,18.6,18.6S924.3,1272.4,914,1272.4z&#10;&#9;&#9; M914,1243.1c-5.9,0-10.6,4.8-10.6,10.6s4.8,10.6,10.6,10.6s10.6-4.8,10.6-10.6S919.9,1243.1,914,1243.1z" style="fill: rgb(74, 80, 93);"/>
</g><g>
	<path d="M 420.399988 1342 A 14.6 14.6 0 0 1 405.799988 1356.6 A 14.6 14.6 0 0 1 391.199987 1342 A 14.6 14.6 0 0 1 405.799988 1327.4 A 14.6 14.6 0 0 1 420.399988 1342 Z" class="st1" style="fill: rgb(255, 224, 0);"/>
	<path class="st2" d="M405.8,1360.6c-10.3,0-18.6-8.4-18.6-18.6s8.4-18.6,18.6-18.6s18.6,8.4,18.6,18.6S416.1,1360.6,405.8,1360.6z&#10;&#9;&#9; M405.8,1331.4c-5.9,0-10.6,4.8-10.6,10.6s4.8,10.6,10.6,10.6s10.6-4.8,10.6-10.6S411.7,1331.4,405.8,1331.4z" style="fill: rgb(74, 80, 93);"/>
</g><g>
	<g>
		<path class="st2" d="M1161.7,873.3c-2.2,0-4-1.8-4-4v-10c0-2.2,1.8-4,4-4s4,1.8,4,4v10C1165.7,871.5,1163.9,873.3,1161.7,873.3z" style="fill: rgb(74, 80, 93);"/>
	</g>
	<g>
		<path class="st2" d="M1161.7,907.9h-10c-2.2,0-4-1.8-4-4s1.8-4,4-4h6v-6c0-2.2,1.8-4,4-4s4,1.8,4,4v10&#10;&#9;&#9;&#9;C1165.7,906.1,1163.9,907.9,1161.7,907.9z" style="fill: rgb(74, 80, 93);"/>
	</g>
	<g>
		<path class="st2" d="M1132.8,907.9h-18.9c-2.2,0-4-1.8-4-4s1.8-4,4-4h18.9c2.2,0,4,1.8,4,4S1135,907.9,1132.8,907.9z&#10;&#9;&#9;&#9; M1094.9,907.9H1076c-2.2,0-4-1.8-4-4s1.8-4,4-4h18.9c2.2,0,4,1.8,4,4S1097.1,907.9,1094.9,907.9z M1057.1,907.9h-18.9&#10;&#9;&#9;&#9;c-2.2,0-4-1.8-4-4s1.8-4,4-4h18.9c2.2,0,4,1.8,4,4S1059.3,907.9,1057.1,907.9z" style="fill: rgb(74, 80, 93);"/>
	</g>
	<g>
		<path class="st2" d="M1019.3,907.9h-10c-2.2,0-4-1.8-4-4s1.8-4,4-4h10c2.2,0,4,1.8,4,4S1021.5,907.9,1019.3,907.9z" style="fill: rgb(74, 80, 93);"/>
	</g>
</g><g>
	<path class="st2" d="M899.4,1256.6h-8.8c-2.2,0-4-1.8-4-4s1.8-4,4-4h8.8c2.2,0,4,1.8,4,4S901.6,1256.6,899.4,1256.6z M870.6,1256.6&#10;&#9;&#9;h-20c-2.2,0-4-1.8-4-4s1.8-4,4-4h20c2.2,0,4,1.8,4,4S872.8,1256.6,870.6,1256.6z M830.6,1256.6h-20c-2.2,0-4-1.8-4-4s1.8-4,4-4h20&#10;&#9;&#9;c2.2,0,4,1.8,4,4S832.8,1256.6,830.6,1256.6z M790.6,1256.6h-20c-2.2,0-4-1.8-4-4s1.8-4,4-4h20c2.2,0,4,1.8,4,4&#10;&#9;&#9;S792.8,1256.6,790.6,1256.6z M750.6,1256.6h-20c-2.2,0-4-1.8-4-4s1.8-4,4-4h20c2.2,0,4,1.8,4,4S752.8,1256.6,750.6,1256.6z&#10;&#9;&#9; M710.6,1256.6H700c-2.2,0-4-1.8-4-4v-9.4c0-2.2,1.8-4,4-4s4,1.8,4,4v5.4h6.6c2.2,0,4,1.8,4,4S712.8,1256.6,710.6,1256.6z&#10;&#9;&#9; M700,1227.3c-2.2,0-4-1.8-4-4v-20c0-2.2,1.8-4,4-4s4,1.8,4,4v20C704,1225.5,702.2,1227.3,700,1227.3z M700,1187.3&#10;&#9;&#9;c-2.2,0-4-1.8-4-4v-20c0-2.2,1.8-4,4-4s4,1.8,4,4v20C704,1185.5,702.2,1187.3,700,1187.3z M700,1147.3c-2.2,0-4-1.8-4-4v-20&#10;&#9;&#9;c0-2.2,1.8-4,4-4s4,1.8,4,4v20C704,1145.5,702.2,1147.3,700,1147.3z" style="fill: rgb(74, 80, 93);"/>
</g><g>
	<path class="st2" d="M636.9,1346h-1.3c-2.2,0-4-1.8-4-4c0-1.2,0.5-2.2,1.3-2.9v-15.8c0-2.2,1.8-4,4-4s4,1.8,4,4v18.7&#10;&#9;&#9;C640.9,1344.2,639.1,1346,636.9,1346z M615.6,1346h-20c-2.2,0-4-1.8-4-4s1.8-4,4-4h20c2.2,0,4,1.8,4,4S617.8,1346,615.6,1346z&#10;&#9;&#9; M575.6,1346h-20c-2.2,0-4-1.8-4-4s1.8-4,4-4h20c2.2,0,4,1.8,4,4S577.8,1346,575.6,1346z M535.6,1346h-20c-2.2,0-4-1.8-4-4&#10;&#9;&#9;s1.8-4,4-4h20c2.2,0,4,1.8,4,4S537.8,1346,535.6,1346z M495.6,1346h-20c-2.2,0-4-1.8-4-4s1.8-4,4-4h20c2.2,0,4,1.8,4,4&#10;&#9;&#9;S497.8,1346,495.6,1346z M455.6,1346h-20c-2.2,0-4-1.8-4-4s1.8-4,4-4h20c2.2,0,4,1.8,4,4S457.8,1346,455.6,1346z M636.9,1307.3&#10;&#9;&#9;c-2.2,0-4-1.8-4-4v-20c0-2.2,1.8-4,4-4s4,1.8,4,4v20C640.9,1305.5,639.1,1307.3,636.9,1307.3z M636.9,1267.3c-2.2,0-4-1.8-4-4v-20&#10;&#9;&#9;c0-2.2,1.8-4,4-4s4,1.8,4,4v20C640.9,1265.5,639.1,1267.3,636.9,1267.3z M636.9,1227.3c-2.2,0-4-1.8-4-4v-20c0-2.2,1.8-4,4-4&#10;&#9;&#9;s4,1.8,4,4v20C640.9,1225.5,639.1,1227.3,636.9,1227.3z M636.9,1187.3c-2.2,0-4-1.8-4-4v-20c0-2.2,1.8-4,4-4s4,1.8,4,4v20&#10;&#9;&#9;C640.9,1185.5,639.1,1187.3,636.9,1187.3z M636.9,1147.3c-2.2,0-4-1.8-4-4v-20c0-2.2,1.8-4,4-4s4,1.8,4,4v20&#10;&#9;&#9;C640.9,1145.5,639.1,1147.3,636.9,1147.3z" style="fill: rgb(74, 80, 93);"/>
</g><g>
	<path class="st2" d="M700,500.3c-2.2,0-4-1.8-4-4v-20c0-2.2,1.8-4,4-4s4,1.8,4,4v20C704,498.5,702.2,500.3,700,500.3z M700,460.3&#10;&#9;&#9;c-2.2,0-4-1.8-4-4v-20c0-2.2,1.8-4,4-4s4,1.8,4,4v20C704,458.5,702.2,460.3,700,460.3z M700,420.3c-2.2,0-4-1.8-4-4v-10.2&#10;&#9;&#9;c0-2.2,1.8-4,4-4s4,1.8,4,4v10.2C704,418.5,702.2,420.3,700,420.3z" style="fill: rgb(74, 80, 93);"/>
</g><g>
	<path class="st2" d="M374.1,804h-20c-2.2,0-4-1.8-4-4s1.8-4,4-4h20c2.2,0,4,1.8,4,4S376.3,804,374.1,804z M334.1,804h-20&#10;&#9;&#9;c-2.2,0-4-1.8-4-4s1.8-4,4-4h20c2.2,0,4,1.8,4,4S336.3,804,334.1,804z M294.1,804h-20c-2.2,0-4-1.8-4-4s1.8-4,4-4h20&#10;&#9;&#9;c2.2,0,4,1.8,4,4S296.3,804,294.1,804z M254.1,804h-20c-2.2,0-4-1.8-4-4s1.8-4,4-4h20c2.2,0,4,1.8,4,4S256.3,804,254.1,804z&#10;&#9;&#9; M214.1,804h-20c-2.2,0-4-1.8-4-4s1.8-4,4-4h20c2.2,0,4,1.8,4,4S216.3,804,214.1,804z M188.4,789.6c-2.2,0-4-1.8-4-4v-20&#10;&#9;&#9;c0-2.2,1.8-4,4-4s4,1.8,4,4v20C192.4,787.8,190.6,789.6,188.4,789.6z M188.4,749.6c-2.2,0-4-1.8-4-4v-20c0-2.2,1.8-4,4-4s4,1.8,4,4&#10;&#9;&#9;v20C192.4,747.8,190.6,749.6,188.4,749.6z M188.4,709.6c-2.2,0-4-1.8-4-4v-20c0-2.2,1.8-4,4-4s4,1.8,4,4v20&#10;&#9;&#9;C192.4,707.8,190.6,709.6,188.4,709.6z M188.4,669.6c-2.2,0-4-1.8-4-4v-20c0-2.2,1.8-4,4-4s4,1.8,4,4v20&#10;&#9;&#9;C192.4,667.8,190.6,669.6,188.4,669.6z M188.4,629.6c-2.2,0-4-1.8-4-4v-20c0-2.2,1.8-4,4-4s4,1.8,4,4v20&#10;&#9;&#9;C192.4,627.8,190.6,629.6,188.4,629.6z M188.4,589.6c-2.2,0-4-1.8-4-4v-20c0-2.2,1.8-4,4-4s4,1.8,4,4v20&#10;&#9;&#9;C192.4,587.8,190.6,589.6,188.4,589.6z M188.4,549.6c-2.2,0-4-1.8-4-4v-20c0-2.2,1.8-4,4-4s4,1.8,4,4v20&#10;&#9;&#9;C192.4,547.8,190.6,549.6,188.4,549.6z M188.4,509.6c-2.2,0-4-1.8-4-4v-20c0-2.2,1.8-4,4-4s4,1.8,4,4v20&#10;&#9;&#9;C192.4,507.8,190.6,509.6,188.4,509.6z" style="fill: rgb(74, 80, 93);"/>
</g><g>
	<path class="st2" d="M360,224.2c-8.6,0-15.6-7-15.6-15.6c0-8.6,7-15.6,15.6-15.6s15.6,7,15.6,15.6&#10;&#9;&#9;C375.6,217.2,368.6,224.2,360,224.2z M360,201c-4.2,0-7.6,3.4-7.6,7.6s3.4,7.6,7.6,7.6s7.6-3.4,7.6-7.6S364.2,201,360,201z" style="fill: rgb(74, 80, 93);"/>
</g><g>
	<path class="st2" d="M820,371.4c-8.6,0-15.6-7-15.6-15.6c0-8.6,7-15.6,15.6-15.6c8.6,0,15.6,7,15.6,15.6&#10;&#9;&#9;C835.6,364.4,828.6,371.4,820,371.4z M820,348.2c-4.2,0-7.6,3.4-7.6,7.6s3.4,7.6,7.6,7.6c4.2,0,7.6-3.4,7.6-7.6&#10;&#9;&#9;S824.2,348.2,820,348.2z" style="fill: rgb(74, 80, 93);"/>
</g><g>
	<path class="st2" d="M1212.1,351c-8.6,0-15.6-7-15.6-15.6s7-15.6,15.6-15.6s15.6,7,15.6,15.6S1220.7,351,1212.1,351z M1212.1,327.8&#10;&#9;&#9;c-4.2,0-7.6,3.4-7.6,7.6s3.4,7.6,7.6,7.6s7.6-3.4,7.6-7.6S1216.3,327.8,1212.1,327.8z" style="fill: rgb(74, 80, 93);"/>
</g><g>
	<path class="st2" d="M1217.3,964.2c-8.6,0-15.6-7-15.6-15.6s7-15.6,15.6-15.6s15.6,7,15.6,15.6S1225.9,964.2,1217.3,964.2z&#10;&#9;&#9; M1217.3,941c-4.2,0-7.6,3.4-7.6,7.6s3.4,7.6,7.6,7.6s7.6-3.4,7.6-7.6S1221.5,941,1217.3,941z" style="fill: rgb(74, 80, 93);"/>
</g><g>
	<path class="st2" d="M951.5,1453.9c-8.6,0-15.6-7-15.6-15.6s7-15.6,15.6-15.6s15.6,7,15.6,15.6S960.1,1453.9,951.5,1453.9z&#10;&#9;&#9; M951.5,1430.7c-4.2,0-7.6,3.4-7.6,7.6s3.4,7.6,7.6,7.6s7.6-3.4,7.6-7.6S955.7,1430.7,951.5,1430.7z" style="fill: rgb(74, 80, 93);"/>
</g><g>
	<path class="st2" d="M361.2,1480.4c-8.6,0-15.6-7-15.6-15.6s7-15.6,15.6-15.6c8.6,0,15.6,7,15.6,15.6S369.8,1480.4,361.2,1480.4z&#10;&#9;&#9; M361.2,1457.2c-4.2,0-7.6,3.4-7.6,7.6s3.4,7.6,7.6,7.6s7.6-3.4,7.6-7.6S365.4,1457.2,361.2,1457.2z" style="fill: rgb(74, 80, 93);"/>
</g><g>
	<path class="st2" d="M80.2,1107.7c-8.6,0-15.6-7-15.6-15.6c0-8.6,7-15.6,15.6-15.6c8.6,0,15.6,7,15.6,15.6&#10;&#9;&#9;C95.8,1100.7,88.8,1107.7,80.2,1107.7z M80.2,1084.4c-4.2,0-7.6,3.4-7.6,7.6c0,4.2,3.4,7.6,7.6,7.6s7.6-3.4,7.6-7.6&#10;&#9;&#9;C87.8,1087.9,84.4,1084.4,80.2,1084.4z" style="fill: rgb(74, 80, 93);"/>
</g><g>
	<path class="st2" d="M91.8,619c-8.6,0-15.6-7-15.6-15.6c0-8.6,7-15.6,15.6-15.6c8.6,0,15.6,7,15.6,15.6&#10;&#9;&#9;C107.4,612,100.4,619,91.8,619z M91.8,595.8c-4.2,0-7.6,3.4-7.6,7.6s3.4,7.6,7.6,7.6s7.6-3.4,7.6-7.6S96,595.8,91.8,595.8z" style="fill: rgb(74, 80, 93);"/>
</g><g>
	<g>
		<path class="st2" d="M438.3,90.3h-88.9c-2.2,0-4-1.8-4-4s1.8-4,4-4h88.9c2.2,0,4,1.8,4,4S440.5,90.3,438.3,90.3z" style="fill: rgb(74, 80, 93);"/>
	</g>
	<g>
		<path class="st2" d="M477.9,90.3h-19.6c-2.2,0-4-1.8-4-4s1.8-4,4-4h19.6c2.2,0,4,1.8,4,4S480.1,90.3,477.9,90.3z" style="fill: rgb(74, 80, 93);"/>
	</g>
</g><g>
	<g>
		<path class="st2" d="M379.7,989h-88.9c-2.2,0-4-1.8-4-4s1.8-4,4-4h88.9c2.2,0,4,1.8,4,4S381.9,989,379.7,989z" style="fill: rgb(74, 80, 93);"/>
	</g>
	<g>
		<path class="st2" d="M270.8,989h-19.6c-2.2,0-4-1.8-4-4s1.8-4,4-4h19.6c2.2,0,4,1.8,4,4S273,989,270.8,989z" style="fill: rgb(74, 80, 93);"/>
	</g>
</g><g>
	<g>
		<path class="st2" d="M616.3,1519.9c-7,0-10.1-6.9-12.5-12.4c-1.5-3.4-3.4-7.6-5.2-7.6s-3.7,4.2-5.2,7.6&#10;&#9;&#9;&#9;c-2.5,5.5-5.5,12.4-12.5,12.4c-7,0-10.1-6.9-12.5-12.4c-1.5-3.4-3.4-7.6-5.2-7.6s-3.7,4.2-5.2,7.6c-2.4,5.5-5.5,12.4-12.5,12.4&#10;&#9;&#9;&#9;c-7,0-10.1-6.9-12.5-12.4c-1.5-3.4-3.4-7.6-5.2-7.6c-2.2,0-4-1.8-4-4s1.8-4,4-4c7,0,10.1,6.9,12.5,12.4c1.5,3.4,3.4,7.6,5.2,7.6&#10;&#9;&#9;&#9;c1.8,0,3.7-4.2,5.2-7.6c2.4-5.5,5.5-12.4,12.5-12.4s10.1,6.9,12.5,12.4c1.5,3.4,3.4,7.6,5.2,7.6c1.8,0,3.7-4.2,5.2-7.6&#10;&#9;&#9;&#9;c2.5-5.5,5.5-12.4,12.5-12.4c7,0,10.1,6.9,12.5,12.4c1.5,3.4,3.4,7.6,5.2,7.6c2.2,0,4,1.8,4,4S618.5,1519.9,616.3,1519.9z" style="fill: rgb(74, 80, 93);"/>
	</g>
</g><g>
	<g>
		<path class="st2" d="M1283.3,1070.4h-88.9c-2.2,0-4-1.8-4-4s1.8-4,4-4h88.9c2.2,0,4,1.8,4,4S1285.5,1070.4,1283.3,1070.4z" style="fill: rgb(74, 80, 93);"/>
	</g>
	<g>
		<path class="st2" d="M1174.5,1070.4h-19.6c-2.2,0-4-1.8-4-4s1.8-4,4-4h19.6c2.2,0,4,1.8,4,4S1176.7,1070.4,1174.5,1070.4z" style="fill: rgb(74, 80, 93);"/>
	</g>
</g><g>
	<g>
		<g>
			<path class="st2" d="M1291.1,985.5h-19.6c-2.2,0-4-1.8-4-4s1.8-4,4-4h19.6c2.2,0,4,1.8,4,4S1293.3,985.5,1291.1,985.5z" style="fill: rgb(74, 80, 93);"/>
		</g>
	</g>
	<g>
		<g>
			<path class="st2" d="M1281.3,995.3c-2.2,0-4-1.8-4-4v-19.6c0-2.2,1.8-4,4-4s4,1.8,4,4v19.6&#10;&#9;&#9;&#9;&#9;C1285.3,993.5,1283.5,995.3,1281.3,995.3z" style="fill: rgb(74, 80, 93);"/>
		</g>
	</g>
</g><g>
	<g>
		<g>
			<path class="st2" d="M882.5,1517.5h-19.6c-2.2,0-4-1.8-4-4s1.8-4,4-4h19.6c2.2,0,4,1.8,4,4S884.7,1517.5,882.5,1517.5z" style="fill: rgb(74, 80, 93);"/>
		</g>
	</g>
	<g>
		<g>
			<path class="st2" d="M872.7,1527.3c-2.2,0-4-1.8-4-4v-19.6c0-2.2,1.8-4,4-4s4,1.8,4,4v19.6&#10;&#9;&#9;&#9;&#9;C876.7,1525.5,874.9,1527.3,872.7,1527.3z" style="fill: rgb(74, 80, 93);"/>
		</g>
	</g>
</g><g>
	<g>
		<g>
			<path class="st2" d="M101.6,1194.6H82c-2.2,0-4-1.8-4-4s1.8-4,4-4h19.6c2.2,0,4,1.8,4,4S103.8,1194.6,101.6,1194.6z" style="fill: rgb(74, 80, 93);"/>
		</g>
	</g>
	<g>
		<g>
			<path class="st2" d="M91.8,1204.4c-2.2,0-4-1.8-4-4v-19.6c0-2.2,1.8-4,4-4s4,1.8,4,4v19.6C95.8,1202.6,94,1204.4,91.8,1204.4z" style="fill: rgb(74, 80, 93);"/>
		</g>
	</g>
</g><g>
	<g>
		<g>
			<path class="st2" d="M294.4,572.5h-19.6c-2.2,0-4-1.8-4-4s1.8-4,4-4h19.6c2.2,0,4,1.8,4,4S296.6,572.5,294.4,572.5z" style="fill: rgb(74, 80, 93);"/>
		</g>
	</g>
	<g>
		<g>
			<path class="st2" d="M284.6,582.3c-2.2,0-4-1.8-4-4v-19.6c0-2.2,1.8-4,4-4s4,1.8,4,4v19.6C288.6,580.5,286.8,582.3,284.6,582.3z" style="fill: rgb(74, 80, 93);"/>
		</g>
	</g>
</g><g>
	<g>
		<g>
			<path class="st2" d="M520.7,238.1h-19.6c-2.2,0-4-1.8-4-4s1.8-4,4-4h19.6c2.2,0,4,1.8,4,4S522.9,238.1,520.7,238.1z" style="fill: rgb(74, 80, 93);"/>
		</g>
	</g>
	<g>
		<g>
			<path class="st2" d="M510.9,247.9c-2.2,0-4-1.8-4-4v-19.6c0-2.2,1.8-4,4-4s4,1.8,4,4v19.6C514.9,246.1,513.1,247.9,510.9,247.9z" style="fill: rgb(74, 80, 93);"/>
		</g>
	</g>
</g><g>
	<g>
		<g>
			<path class="st2" d="M953.8,88.3h-19.6c-2.2,0-4-1.8-4-4s1.8-4,4-4h19.6c2.2,0,4,1.8,4,4S956.1,88.3,953.8,88.3z" style="fill: rgb(74, 80, 93);"/>
		</g>
	</g>
	<g>
		<g>
			<path class="st2" d="M944,98.1c-2.2,0-4-1.8-4-4V74.5c0-2.2,1.8-4,4-4s4,1.8,4,4v19.6C948,96.3,946.3,98.1,944,98.1z" style="fill: rgb(74, 80, 93);"/>
		</g>
	</g>
</g><g>
	<g>
		<g>
			<path class="st2" d="M1281.3,228.3h-19.6c-2.2,0-4-1.8-4-4s1.8-4,4-4h19.6c2.2,0,4,1.8,4,4S1283.5,228.3,1281.3,228.3z" style="fill: rgb(74, 80, 93);"/>
		</g>
	</g>
	<g>
		<g>
			<path class="st2" d="M1271.5,238.1c-2.2,0-4-1.8-4-4v-19.6c0-2.2,1.8-4,4-4s4,1.8,4,4v19.6&#10;&#9;&#9;&#9;&#9;C1275.5,236.3,1273.7,238.1,1271.5,238.1z" style="fill: rgb(74, 80, 93);"/>
		</g>
	</g>
</g><g>
	<g>
		<path d="M1261.5,474.6h-6.9v-7.2h6.9V474.6z"/>
	</g>
	<g>
		<path d="M1280.7,474.6h-6.9v-7.2h6.9V474.6z"/>
	</g>
	<g>
		<path d="M1300,474.6h-6.9v-7.2h6.9V474.6z"/>
	</g>
</g><g>
	<g>
		<path d="M1167,1473.4h-6.9v-7.2h6.9V1473.4z"/>
	</g>
	<g>
		<path d="M1186.3,1473.4h-6.9v-7.2h6.9V1473.4z"/>
	</g>
	<g>
		<path d="M1205.5,1473.4h-6.9v-7.2h6.9V1473.4z"/>
	</g>
</g><g>
	<g>
		<path d="M52.8,807.2h-6.9V800h6.9V807.2z"/>
	</g>
	<g>
		<path d="M72.1,807.2h-6.9V800h6.9V807.2z"/>
	</g>
	<g>
		<path d="M91.3,807.2h-6.9V800h6.9V807.2z"/>
	</g>
</g><g>
	<g>
		<path d="M328.3,478.1h-6.9V471h6.9V478.1z"/>
	</g>
	<g>
		<path d="M347.6,478.1h-6.9V471h6.9V478.1z"/>
	</g>
	<g>
		<path d="M366.8,478.1h-6.9V471h6.9V478.1z"/>
	</g>
</g><g>
	<path class="st2" d="M1254.5,403.2c-1,0-2-0.4-2.8-1.2l-16.4-16.4c-1.6-1.6-1.6-4.1,0-5.7l16.4-16.4c1.6-1.6,4.1-1.6,5.7,0&#10;&#9;&#9;l16.4,16.4c1.6,1.6,1.6,4.1,0,5.7l-16.4,16.4C1256.6,402.8,1255.6,403.2,1254.5,403.2z M1243.8,382.8l10.8,10.8l10.8-10.8&#10;&#9;&#9;l-10.8-10.8L1243.8,382.8z" style="fill: rgb(74, 80, 93);"/>
</g><g>
	<path class="st2" d="M1300,657.7c-1,0-2-0.4-2.8-1.2l-16.4-16.4c-0.8-0.8-1.2-1.8-1.2-2.8s0.4-2.1,1.2-2.8l16.4-16.4&#10;&#9;&#9;c1.6-1.6,4.1-1.6,5.7,0l16.4,16.4c0.8,0.8,1.2,1.8,1.2,2.8s-0.4,2.1-1.2,2.8l-16.4,16.4C1302,657.3,1301,657.7,1300,657.7z&#10;&#9;&#9; M1289.2,637.3L1300,648l10.8-10.8l-10.8-10.8L1289.2,637.3z" style="fill: rgb(74, 80, 93);"/>
</g><g>
	<path class="st2" d="M1291.1,1398.9c-1.1,0-2.1-0.4-2.8-1.2l-16.4-16.4c-1.6-1.6-1.6-4.1,0-5.7l16.4-16.4c0.8-0.8,1.8-1.2,2.8-1.2&#10;&#9;&#9;l0,0c1.1,0,2.1,0.4,2.8,1.2l16.4,16.4c1.6,1.6,1.6,4.1,0,5.7l-16.4,16.4C1293.2,1398.5,1292.2,1398.9,1291.1,1398.9z&#10;&#9;&#9; M1280.4,1378.5l10.8,10.8l10.8-10.8l-10.8-10.8L1280.4,1378.5z" style="fill: rgb(74, 80, 93);"/>
</g><g>
	<path class="st2" d="M546.4,1259.6c-1,0-2-0.4-2.8-1.2l-16.4-16.4c-0.8-0.8-1.2-1.8-1.2-2.8s0.4-2.1,1.2-2.8l16.4-16.4&#10;&#9;&#9;c1.6-1.6,4.1-1.6,5.7,0l16.4,16.4c0.8,0.8,1.2,1.8,1.2,2.8s-0.4,2.1-1.2,2.8l-16.4,16.4C548.5,1259.2,547.4,1259.6,546.4,1259.6z&#10;&#9;&#9; M535.6,1239.1l10.8,10.8l10.8-10.8l-10.8-10.8L535.6,1239.1z" style="fill: rgb(74, 80, 93);"/>
</g><g>
	<path class="st2" d="M294.4,924.3c-1,0-2-0.4-2.8-1.2l-16.4-16.4c-1.6-1.6-1.6-4.1,0-5.7l16.4-16.4c1.6-1.6,4.1-1.6,5.7,0&#10;&#9;&#9;l16.4,16.4c1.6,1.6,1.6,4.1,0,5.7l-16.4,16.4C296.4,923.9,295.4,924.3,294.4,924.3z M283.6,903.9l10.8,10.8l10.8-10.8l-10.8-10.8&#10;&#9;&#9;L283.6,903.9z" style="fill: rgb(74, 80, 93);"/>
</g><g>
	<path class="st2" d="M456,498.6c-1,0-2-0.4-2.8-1.2L436.7,481c-1.6-1.6-1.6-4.1,0-5.7l16.4-16.4c1.6-1.6,4.1-1.6,5.7,0l16.4,16.4&#10;&#9;&#9;c1.6,1.6,1.6,4.1,0,5.7l-16.4,16.4C458,498.2,457,498.6,456,498.6z M445.2,478.1l10.8,10.8l10.8-10.8L456,467.4L445.2,478.1z" style="fill: rgb(74, 80, 93);"/>
</g></g></svg>