<svg height="496pt" viewBox="0 0 496 496.002" width="496pt" xmlns="http://www.w3.org/2000/svg"><path d="m488 392.003906h-48v-80c0-25.1875-10.6875-47.875-27.703125-63.929687 17.703125-16.578125 27.703125-39.425781 27.703125-64.070313v-80h48c3.234375 0 6.152344-1.953125 7.394531-4.9375 1.238281-2.992187.550781-6.433594-1.738281-8.71875l-88-88c-3.128906-3.128906-8.183594-3.128906-11.3125 0l-88 88c-2.285156 2.285156-2.972656 5.726563-1.734375 8.71875 1.238281 2.984375 4.160156 4.9375 7.390625 4.9375h48v64c0 13.230469-10.765625 24-24 24h-16c0-50.898437-34.152344-93.890625-80.710938-107.464844l21.609376-37.042968c10.886718-2.269532 19.101562-11.933594 19.101562-23.492188 0-13.234375-10.765625-23.99999975-24-23.99999975-10.71875 0-19.710938 7.10937475-22.78125 16.83203175l-106.96875 14.261718c-3.554688-8.832031-12.167969-15.09375-22.25-15.09375-13.230469 0-24 10.765625-24 24 0 1.359375.183594 2.671875.402344 3.972656l-51.898438 44.480469c-1.453125-.277343-2.957031-.453125-4.503906-.453125-13.230469 0-24 10.765625-24 24 0 13.230469 10.769531 24 24 24 1.289062 0 2.539062-.1875 3.769531-.386718l29.769531 38.695312c-.832031 5.203125-1.433593 10.472656-1.523437 15.882812l-55.261719 118.421876c-1.160156 2.480468-.96875 5.375.503906 7.679687 1.464844 2.3125 4.007813 3.707031 6.742188 3.707031h48v96c0 4.414063 3.585938 8 8 8h80v72h16v-80c0-4.417968-3.582031-8-8-8h-80v-96c0-4.417968-3.582031-8-8-8h-43.4375l50.6875-108.617187c.367188-.785157.457031-1.65625.558594-2.511719l31.007812 40.3125c-8.96875 7.335938-14.816406 18.351562-14.816406 30.816406 0 22.054688 17.945312 40 40 40 22.058594 0 40-17.945312 40-40 0-11.265625-4.71875-21.417968-12.238281-28.699218l33.121093-59.621094c1.03125.140625 2.054688.320312 3.117188.320312 13.234375 0 24-10.769531 24-24 0-6.339844-2.511719-12.058594-6.535156-16.355468l21.449218-36.765626c41.886719 10.320313 73.085938 48.09375 73.085938 93.121094h-104v16h136c22.058594 0 40-17.945312 40-40v-72c0-4.417968-3.582031-8-8-8h-36.6875l68.6875-68.691406 68.6875 68.691406h-36.6875c-4.414062 0-8 3.582032-8 8v88c0 20.980469-8.933594 40.324219-24.542969 54.007813-13.710937-8.824219-29.976562-14.007813-47.457031-14.007813h-152v16h152c39.695312 0 72 32.300782 72 72v88c0 4.414063 3.585938 8 8 8h36.6875l-68.6875 68.6875-68.6875-68.6875h36.6875c4.417969 0 8-3.585937 8-8v-72c0-22.058594-17.941406-40-40-40h-136v16h92.121094l-35.375 76.644532c-.496094 1.050781-.746094 2.195312-.746094 3.355468v112h16v-110.242187l37.738281-81.757813h26.261719c13.234375 0 24 10.765625 24 24v64h-48c-3.230469 0-6.152344 1.949219-7.390625 4.933594-1.238281 2.992188-.550781 6.433594 1.734375 8.71875l88 88c1.5625 1.5625 3.609375 2.347656 5.65625 2.347656 2.050781 0 4.097656-.785156 5.65625-2.347656l88-88c2.289062-2.285156 2.976562-5.726562 1.738281-8.71875-1.242187-2.984375-4.160156-4.933594-7.394531-4.933594zm-317.734375-250.027344-67.792969-19.933593c10.777344-10.097657 23.824219-17.761719 38.34375-22.058594l32.945313 36.601563c-1.382813 1.632812-2.585938 3.425781-3.496094 5.390624zm-85.152344-25.046874-38.046875-11.191407c-.855468-3.128906-2.3125-5.984375-4.257812-8.464843l45.65625-39.136719c4.199218 3.609375 9.585937 5.867187 15.535156 5.867187 1.394531 0 2.738281-.1875 4.074219-.410156l21.128906 23.480469c-17.042969 6.320312-32.097656 16.640625-44.089844 29.855469zm37.128907-61.511719c2.03125-2.398438 3.574218-5.183594 4.542968-8.246094l106.96875-14.265625c2.007813 4.992188 5.65625 9.085938 10.253906 11.769531l-21.246093 36.414063c-4.839844-.640625-9.746094-1.085938-14.761719-1.085938h-40c-7.429688 0-14.679688.75-21.710938 2.140625zm133.757812-39.414063c4.410156 0 8 3.589844 8 8 0 4.40625-3.589844 8-8 8-4.40625 0-8-3.59375-8-8 0-4.410156 3.59375-8 8-8zm-152 16c4.410156 0 8 3.589844 8 8 0 4.40625-3.589844 8-8 8-4.40625 0-8-3.59375-8-8 0-4.410156 3.59375-8 8-8zm-88 80c0-4.410156 3.59375-8 8-8 4.410156 0 8 3.589844 8 8 0 4.40625-3.589844 8-8 8-4.40625 0-8-3.59375-8-8zm25.929688 15.789063c1.527343-1.726563 2.824218-3.648438 3.800781-5.757813l28.808593 8.472656c-4.921874 7.453126-8.953124 15.527344-12 24.078126zm86.070312 160.210937c-13.230469 0-24-10.769531-24-24 0-13.234375 10.769531-24 24-24 13.234375 0 24 10.765625 24 24 0 13.230469-10.765625 24-24 24zm0-64c-3.757812 0-7.328125.6875-10.78125 1.660156l-42.632812-55.421874c2.992187-12.847657 8.566406-24.671876 16.152343-34.976563l78.191407 23c1.054687 3.863281 2.992187 7.34375 5.671874 10.175781l-32.382812 58.296875c-4.433594-1.703125-9.195312-2.734375-14.21875-2.734375zm64-64c-4.40625 0-8-3.59375-8-8 0-4.410156 3.59375-8 8-8 4.410156 0 8 3.589844 8 8 0 4.40625-3.589844 8-8 8zm3.21875-31.675781c-1.066406-.140625-2.113281-.324219-3.21875-.324219-1.390625 0-2.734375.183594-4.070312.40625l-28.769532-31.960937c2.921875-.261719 5.855469-.445313 8.839844-.445313h40c1.992188 0 3.9375.175782 5.898438.292969zm0 0"/></svg>