<svg height="682pt" viewBox="-21 -40 682.66535 682" width="682pt" xmlns="http://www.w3.org/2000/svg"><path d="m393.238281 511.277344v-70.554688c0-6.890625-5.585937-12.476562-12.476562-12.476562-6.886719 0-12.476563 5.585937-12.476563 12.476562v70.554688c-19.101562 5.441406-33.132812 23.039062-33.132812 43.863281 0 25.152344 20.457031 45.617187 45.609375 45.617187 25.15625 0 45.613281-20.464843 45.613281-45.617187 0-20.824219-14.03125-38.421875-33.136719-43.863281zm-12.476562 64.527344c-11.390625 0-20.660157-9.273438-20.660157-20.664063s9.269532-20.660156 20.660157-20.660156c11.394531 0 20.664062 9.269531 20.664062 20.660156s-9.269531 20.664063-20.664062 20.664063zm0 0"/><path d="m594.382812 390.078125c-20.824218 0-38.421874 14.03125-43.863281 33.140625h-33.207031v-109.871094h13.003906c6.890625 0 12.476563-5.582031 12.476563-12.472656v-1.328125c0-26.597656 21.640625-48.238281 48.234375-48.238281h2.691406c3.746094 0 7.296875-1.683594 9.664062-4.585938 2.367188-2.898437 3.308594-6.710937 2.5625-10.378906-12.328124-60.519531-42.839843-114.933594-88.246093-157.355469-2.75-2.566406-6.503907-3.757812-10.234375-3.242187-3.726563.519531-7.015625 2.6875-8.964844 5.90625-3.652344 6.054687-8.457031 11.105468-14.273438 15.027344-.160156.113281-.246093.171874-.402343.289062-1.109375.796875-27.417969 19.335938-55.886719-1.660156-.617188-.453125-.957031-.695313-1.625-1.015625-1.597656-.921875-19.117188-11.773438-18.289062-42.707031.164062-6.097657 2.277343-12.714844 6.347656-19.757813 1.875-3.257813 2.179687-7.183594.832031-10.695313-1.339844-3.503906-4.199219-6.21875-7.765625-7.386718-29.753906-9.730469-60.808594-14.664063-92.304688-14.664063-29.042968 0-57.789062 4.210938-85.441406 12.503907-3.519531 1.0625-6.394531 3.613281-7.855468 6.988281-1.464844 3.375-1.367188 7.222656.269531 10.511719 11.289062 22.726562 2.894531 50.476562-19.101563 63.175781l-1.144531.664062c-22.605469 13.050781-51.15625 5.941407-64.988281-16.1875-1.949219-3.113281-5.171875-5.214843-8.808594-5.738281-3.640625-.519531-7.320312.585938-10.058594 3.027344-45.261718 40.246094-76.769531 92.433594-91.113281 150.917968-.875 3.5625-.136719 7.324219 2.011719 10.292969 2.152344 2.96875 5.496094 4.839844 9.152344 5.117188 24.957031 1.90625 44.507812 23.023437 44.507812 48.078125v12.441406c0 6.882812 5.585938 12.472656 12.476562 12.472656h23.128907v109.863282h-28.691407c-5.445312-19.101563-23.042968-33.136719-43.867187-33.136719-25.152344.003906-45.609375 20.460937-45.609375 45.613281s20.457031 45.617188 45.613281 45.617188c20.828125 0 38.425781-14.035157 43.863281-33.140626h41.167969c6.882813 0 12.476563-5.585937 12.476563-12.476562v-122.339844h36.738281v160.214844l-34.195313 40.371094c-5.929687-2.820313-12.554687-4.402344-19.542968-4.402344-25.148438 0-45.613282 20.457031-45.613282 45.613281 0 25.152344 20.464844 45.613281 45.613282 45.613281 25.152344 0 45.617187-20.460937 45.617187-45.613281 0-9.113281-2.699219-17.609375-7.324219-24.746093l37.441407-44.199219c.019531-.023438.027343-.042969.046875-.0625.175781-.210938.332031-.429688.496094-.648438.082031-.113281.175781-.226562.257812-.34375.144531-.21875.28125-.453125.417969-.683593.074219-.121094.15625-.242188.222656-.363282.109375-.207031.207031-.425781.304687-.636718.074219-.15625.15625-.308594.226563-.46875.046875-.113282.082031-.230469.125-.339844.105469-.265625.210937-.527344.292969-.800782.03125-.097656.050781-.203124.078125-.300781.085937-.292969.167969-.585937.230469-.882812.023437-.113281.035156-.230469.054687-.339844.046875-.292969.101563-.582031.132813-.878906.011718-.128907.011718-.261719.023437-.386719.019531-.285156.039063-.566406.042969-.851562 0-.027344 0-.050782 0-.078126v-164.785156h37.433594v197.929688c-19.101563 5.445312-33.136719 23.039062-33.136719 43.867187 0 25.148438 20.460937 45.613281 45.609375 45.613281 25.15625 0 45.617187-20.460937 45.617187-45.613281 0-20.828125-14.035156-38.421875-33.140625-43.867187v-197.929688h101.09375v30.066406c0 6.886719 5.589844 12.472657 12.476563 12.472657 6.890625 0 12.476562-5.585938 12.476562-12.472657v-30.066406h37.429688v164.785156c0 .03125.003906.054688.003906.078126.007813.285156.027344.566406.046875.851562.007812.125.007812.257812.023438.390625.027343.292969.082031.582031.132812.875.019531.109375.03125.226563.050781.339844.066407.296875.148438.589843.230469.882812.03125.097657.042969.203125.078125.304688.082031.269531.191406.53125.292969.796875.042968.117187.078125.234375.128906.34375.0625.15625.144531.308594.222656.464844.097656.214843.191406.429687.304688.636718.066406.125.148437.242188.222656.363282.136719.230468.269531.464843.421875.683593.082031.117188.175781.230469.257813.34375.160156.21875.316406.4375.492187.648438.015625.019531.03125.042969.050781.0625l37.441406 44.207031c-4.625 7.128906-7.324218 15.625-7.324218 24.738281 0 25.152344 20.460937 45.613281 45.613281 45.613281s45.609375-20.460937 45.609375-45.613281c0-25.148437-20.457031-45.613281-45.609375-45.613281-6.992187 0-13.613281 1.585938-19.539063 4.402344l-34.195312-40.371094v-160.214844h36.738281v122.339844c0 6.890625 5.585938 12.476562 12.472657 12.476562.773437 0 1.53125-.078124 2.261718-.214843.734375.136719 1.484375.214843 2.261719.214843h41.160156c5.445313 19.105469 23.042969 33.140626 43.867188 33.140626 25.152343 0 45.613281-20.464844 45.613281-45.617188s-20.460938-45.609375-45.617188-45.609375zm-548.769531 66.273437c-11.394531 0-20.664062-9.265624-20.664062-20.664062 0-11.390625 9.269531-20.660156 20.664062-20.660156s20.660157 9.269531 20.660157 20.660156c0 11.398438-9.265626 20.664062-20.660157 20.664062zm80.507813 119.453126c-11.390625 0-20.65625-9.273438-20.65625-20.664063s9.265625-20.660156 20.65625-20.660156c11.398437 0 20.664062 9.269531 20.664062 20.660156s-9.265625 20.664063-20.664062 20.664063zm149.257812-20.664063c0 11.390625-9.269531 20.664063-20.664062 20.664063-11.390625 0-20.65625-9.273438-20.65625-20.664063s9.265625-20.660156 20.65625-20.660156c11.394531 0 20.664062 9.269531 20.664062 20.660156zm254.640625 0c0 11.390625-9.269531 20.664063-20.664062 20.664063-11.390625 0-20.660157-9.273438-20.660157-20.664063s9.269532-20.660156 20.660157-20.660156c11.394531 0 20.664062 9.269531 20.664062 20.660156zm-475.441406-337.015625c13.132813-44.160156 37.164063-83.964844 70.261719-116.363281 22.84375 24.054687 59.59375 30.035156 89.496094 12.769531l1.140624-.660156c28.972657-16.722656 42.382813-50.664063 34.21875-81.894532 21.339844-5.273437 43.289063-7.9375 65.429688-7.9375 24.171875 0 48.046875 3.164063 71.167969 9.421876-1.980469 5.878906-3.0625 11.71875-3.210938 17.460937-1.167969 43.535156 24.792969 61.433594 30.644531 64.902344 34.476563 24.976562 70.261719 11.972656 84.679688 1.394531 4.4375-3.019531 8.480469-6.472656 12.109375-10.324219 32.855469 33.898438 56.035156 75.132813 67.777344 120.570313-30.691407 5.40625-54.855469 30.015625-59.601563 60.933594h-63.125c-.597656-28.484376-9.828125-55.667969-26.855468-78.777344-4.09375-5.542969-11.898438-6.726563-17.445313-2.644532-5.546875 4.089844-6.734375 11.902344-2.644531 17.449219 13.84375 18.789063 21.402344 40.847657 21.992187 63.972657h-225.765625c.742188-29.613282 12.773438-57.207032 34.078125-77.96875 4.480469-4.371094 9.359375-8.394532 14.496094-11.957032 18.9375-13.144531 41.171875-20.09375 64.316406-20.09375 5.351563 0 10.757813.390625 16.070313 1.15625 6.835937.988282 13.144531-3.742187 14.128906-10.566406.988281-6.816406-3.742188-13.144531-10.558594-14.128906-6.492187-.9375-13.097656-1.410156-19.640625-1.410156-28.25 0-55.414062 8.484374-78.542969 24.542968-6.265624 4.351563-12.21875 9.257813-17.6875 14.589844-26.160156 25.5-40.867187 59.433594-41.617187 95.832031h-72.375c-.019531-32.941406-22.324219-61.398437-52.9375-70.269531zm539.804687 238.226562c-11.390624 0-20.660156-9.265624-20.660156-20.664062 0-11.390625 9.269532-20.660156 20.660156-20.660156 11.398438 0 20.664063 9.269531 20.664063 20.660156 0 11.398438-9.265625 20.664062-20.664063 20.664062zm0 0"/><path d="m372.914062 401.742188.316407.246093c2.261719 1.722657 4.917969 2.550781 7.554687 2.550781 3.761719 0 7.476563-1.6875 9.933594-4.910156 4.179688-5.480468 3.125-13.304687-2.359375-17.484375l-.316406-.242187c-5.484375-4.183594-13.3125-3.125-17.488281 2.355468-4.171876 5.484376-3.117188 13.308594 2.359374 17.484376zm0 0"/><path d="m372.578125 192.730469.316406.242187c2.261719 1.726563 4.921875 2.554688 7.558594 2.554688 3.761719 0 7.476563-1.6875 9.933594-4.910156 4.171875-5.480469 3.117187-13.308594-2.359375-17.488282l-.316406-.238281c-5.484376-4.183594-13.3125-3.125-17.488282 2.355469-4.179687 5.480468-3.125 13.308594 2.355469 17.484375zm0 0"/></svg>