<?xml version="1.0"?>
<svg xmlns="http://www.w3.org/2000/svg" id="Layer_1" data-name="Layer 1" viewBox="0 0 512 512" width="512" height="512"><title>Global reach </title><path d="M469.588,223.588A32.458,32.458,0,0,0,437.7,250.222H390.893a134.527,134.527,0,0,0-35.761-85.584l33.2-33.2a32.388,32.388,0,1,0-8.357-8.614L346.61,156.189a134.51,134.51,0,0,0-85.622-34.9V74.44a32.43,32.43,0,1,0-12-.388V121.37a134.532,134.532,0,0,0-84.5,35.658l-33.174-33.174a32.343,32.343,0,1,0-8.677,8.293l33.4,33.4a134.5,134.5,0,0,0-34.959,85.69h-46.6a32.428,32.428,0,1,0-.471,12h47.148a134.521,134.521,0,0,0,35.506,84.342l-32.985,32.985a32.388,32.388,0,1,0,8.357,8.614l33.131-33.131A134.506,134.506,0,0,0,250,391.115v46.627a32.412,32.412,0,1,0,12,0V391.115a134.52,134.52,0,0,0,85.421-35.609l33.011,33.011a32.4,32.4,0,1,0,8.558-8.414L355.884,347a134.513,134.513,0,0,0,35.009-84.776h46.888a32.411,32.411,0,1,0,31.807-38.634ZM392.6,90.537a20.412,20.412,0,1,1,0,28.867A20.344,20.344,0,0,1,392.6,90.537ZM235.588,42.412A20.412,20.412,0,1,1,256,62.824,20.435,20.435,0,0,1,235.588,42.412ZM90.537,119.4a20.412,20.412,0,1,1,28.867,0A20.279,20.279,0,0,1,90.537,119.4ZM42.412,276.412A20.412,20.412,0,1,1,62.824,256,20.435,20.435,0,0,1,42.412,276.412ZM119.4,421.463a20.412,20.412,0,1,1-.641-29.446,5.773,5.773,0,0,0,1.8,1.866A20.43,20.43,0,0,1,119.4,421.463Zm157.008,48.125a20.412,20.412,0,1,1-21.724-20.346,5.851,5.851,0,0,0,2.624,0A20.422,20.422,0,0,1,276.412,469.588ZM421.463,392.6a20.412,20.412,0,1,1-28.867,0A20.279,20.279,0,0,1,421.463,392.6ZM256,379.255A123.033,123.033,0,1,1,379.033,256.222,123.172,123.172,0,0,1,256,379.255ZM469.588,276.412A20.412,20.412,0,1,1,490,256,20.435,20.435,0,0,1,469.588,276.412Z"/><path d="M327.656,192.183l-.019-.015a95.794,95.794,0,0,0-68.673-32.118,5.935,5.935,0,0,0-1.106-.026c-.618-.012-1.237-.024-1.858-.024s-1.24.012-1.859.024a5.916,5.916,0,0,0-1.1.026,95.8,95.8,0,0,0-68.68,32.125c-.012.01-.024.018-.035.028a5.977,5.977,0,0,0-1.031,1.181,95.815,95.815,0,0,0,0,125.232,5.978,5.978,0,0,0,1.031,1.182c.011.01.024.019.037.029a95.791,95.791,0,0,0,68.6,32.12,5.974,5.974,0,0,0,.765.054c.124,0,.245-.018.368-.025.635.012,1.271.024,1.909.024s1.274-.012,1.909-.024c.123.007.244.025.368.025a5.974,5.974,0,0,0,.765-.054,95.794,95.794,0,0,0,68.6-32.119l.015-.011a5.99,5.99,0,0,0,1.056-1.2,95.816,95.816,0,0,0,0-125.226A5.99,5.99,0,0,0,327.656,192.183Zm-4.291,113.939a94.777,94.777,0,0,0-15.356-12.346A128.06,128.06,0,0,0,313.226,262h26.536A83.531,83.531,0,0,1,323.365,306.122ZM172.238,262h26.536a128.02,128.02,0,0,0,5.243,31.866,95.688,95.688,0,0,0-15.363,12.282A83.527,83.527,0,0,1,172.238,262Zm16.415-56.147a95.924,95.924,0,0,0,15.362,12.291A128.039,128.039,0,0,0,198.774,250H172.238A83.531,83.531,0,0,1,188.653,205.853ZM262,233.24a94.772,94.772,0,0,0,35.242-9.009A116.94,116.94,0,0,1,301.217,250H262Zm0-12.028V174.861c13.931,8.5,24.644,21.61,31.348,37.923A82.852,82.852,0,0,1,262,221.212Zm-12-46.351v46.325a83.812,83.812,0,0,1-31.312-8.494C225.4,196.421,236.1,183.341,250,174.861Zm0,58.353V250H210.783a116.946,116.946,0,0,1,4-25.864A95.675,95.675,0,0,0,250,233.214ZM210.782,262H250v16.793a96.057,96.057,0,0,0-35.212,9.085A117,117,0,0,1,210.782,262ZM250,290.815v46.329c-13.906-8.482-24.606-21.563-31.312-37.834A83.883,83.883,0,0,1,250,290.815Zm12,46.329V290.785a82.781,82.781,0,0,1,31.35,8.429C286.646,315.529,275.933,328.646,262,337.144Zm0-58.378V262h39.218a117.012,117.012,0,0,1-3.978,25.779A95.043,95.043,0,0,0,262,278.766ZM313.226,250a128.058,128.058,0,0,0-5.216-31.769,94.824,94.824,0,0,0,15.355-12.353A83.534,83.534,0,0,1,339.762,250Zm2.275-53.231a82.894,82.894,0,0,1-11.715,9.851A94.131,94.131,0,0,0,283.7,176.714,84.173,84.173,0,0,1,315.5,196.769Zm-87.2-20.055a94.1,94.1,0,0,0-20.055,29.831,83.8,83.8,0,0,1-11.729-9.8A84.175,84.175,0,0,1,228.3,176.714ZM196.518,315.251a83.858,83.858,0,0,1,11.728-9.8A94.1,94.1,0,0,0,228.3,335.284,84.176,84.176,0,0,1,196.518,315.251ZM283.7,335.284a94.146,94.146,0,0,0,20.085-29.9,82.952,82.952,0,0,1,11.713,9.852A84.17,84.17,0,0,1,283.7,335.284Z"/></svg>
