<?xml version="1.0" encoding="iso-8859-1"?>
<!-- Generator: Adobe Illustrator 21.0.0, SVG Export Plug-In . SVG Version: 6.00 Build 0)  -->
<svg version="1.1" id="Capa_1" xmlns="http://www.w3.org/2000/svg" xmlns:xlink="http://www.w3.org/1999/xlink" x="0px" y="0px"
	 viewBox="0 0 482.114 482.114" style="enable-background:new 0 0 482.114 482.114;" xml:space="preserve">
<g>
	<g>
		<path d="M475.249,330.426c-0.003,0-0.006-0.001-0.009-0.001l0-0.024l-31.112-4.44c-4.375-0.618-7.42-4.666-6.802-9.04
			c0.298-2.109,1.425-4.012,3.13-5.288l10.2-7.632H472c4.418,0,8-3.582,8-8v-288c0-4.418-3.582-8-8-8H8c-4.418,0-8,3.582-8,8v288
			c0,4.418,3.582,8,8,8h20.688l-10.344,10.344c-2.726,2.729-3.116,7.015-0.928,10.192l15.2,22.112l-26.296,5.52
			c-3.691,0.793-6.325,4.057-6.32,7.832v32c-0.002,3.784,2.649,7.052,6.352,7.832l26.296,5.528l-15.2,22.104
			c-2.188,3.177-1.798,7.463,0.928,10.192l24,24c2.729,2.726,7.015,3.116,10.192,0.928l22.104-15.2l5.528,26.296
			c0.79,3.679,4.037,6.31,7.8,6.32h32c3.784,0.002,7.052-2.649,7.832-6.352l5.528-26.304l22.104,15.24
			c3.177,2.188,7.463,1.798,10.192-0.928l24-24c2.726-2.729,3.116-7.015,0.928-10.192l-15.2-22.112l26.296-5.52
			c3.691-0.793,6.325-4.057,6.32-7.832v-32c0.002-3.784-2.649-7.052-6.352-7.832l-26.296-5.528l15.2-22.104
			c2.188-3.177,1.798-7.463-0.928-10.192l-10.312-10.344h33.016l-6.4,44.52c-0.634,4.372,2.396,8.431,6.768,9.066
			c0.034,0.005,0.069,0.01,0.103,0.014l31.112,4.44c4.375,0.618,7.42,4.666,6.802,9.04c-0.298,2.109-1.425,4.012-3.13,5.288
			L222.4,395.201c-3.535,2.651-4.251,7.665-1.6,11.2l28.8,38.4c2.651,3.535,7.665,4.251,11.2,1.6l25.144-18.864
			c3.534-2.652,8.549-1.936,11.2,1.598c1.275,1.699,1.822,3.835,1.52,5.938l-4.448,31.112c-0.627,4.374,2.41,8.427,6.783,9.055
			c0.003,0,0.006,0.001,0.009,0.001l47.512,6.784c0.376,0.057,0.756,0.087,1.136,0.088c3.982,0,7.358-2.929,7.92-6.872l4.448-31.112
			c0.623-4.374,4.674-7.415,9.048-6.792c2.102,0.299,3.998,1.422,5.272,3.12l18.856,25.144c2.651,3.535,7.665,4.251,11.2,1.6
			l38.4-28.8c3.535-2.651,4.251-7.665,1.6-11.2l-18.864-25.144c-2.652-3.534-1.936-8.549,1.598-11.2
			c1.699-1.275,3.836-1.822,5.938-1.52l31.112,4.44c4.373,0.628,8.428-2.409,9.056-6.782c0-0.001,0-0.001,0-0.002l6.792-47.512
			C482.659,335.108,479.622,331.054,475.249,330.426z M192,366.497v19.008l-19.944,4.192c-8.648,1.817-14.185,10.3-12.368,18.948
			c0.437,2.078,1.282,4.048,2.488,5.796l11.424,16.616l-14.544,14.544l-16.616-11.456c-7.276-5.014-17.239-3.18-22.254,4.096
			c-1.202,1.745-2.046,3.711-2.482,5.784l-4.2,19.976H94.496l-4.2-19.936c-1.829-8.645-10.32-14.171-18.965-12.342
			c-2.053,0.434-4,1.268-5.731,2.454l-16.656,11.424L34.4,431.057l11.456-16.616c5.018-7.274,3.19-17.238-4.084-22.256
			c-1.748-1.206-3.718-2.052-5.796-2.488L16,385.505v-19.008l19.944-4.192c8.645-1.83,14.169-10.322,12.339-18.967
			c-0.435-2.055-1.271-4.005-2.459-5.737L34.4,320.945l14.544-14.544L65.6,317.825c7.276,5.014,17.24,3.18,22.254-4.096
			c1.202-1.745,2.046-3.711,2.482-5.784l4.16-19.944h19.008l4.2,19.936c1.816,8.648,10.298,14.187,18.946,12.371
			c2.075-0.436,4.043-1.28,5.79-2.483l16.616-11.424l14.544,14.544l-11.424,16.656c-5.018,7.274-3.19,17.238,4.084,22.256
			c1.748,1.206,3.718,2.052,5.796,2.488L192,366.497z M138.136,301.353l-4.8,3.296l-5.528-26.296
			c-0.778-3.695-4.033-6.342-7.808-6.352h-16v-56h32v80C136.013,297.99,136.776,299.901,138.136,301.353z M176,168.001
			c-4.418,0-8,3.582-8,8v112h-16v-80c0-4.418-3.582-8-8-8H96c-4.418,0-8,3.582-8,8v64c-3.784-0.002-7.052,2.649-7.832,6.352
			l-5.528,26.304l-22.104-15.24c-1.339-0.899-2.923-1.362-4.536-1.328v-0.088H16v-272h448v261.336l-25.6-34.136
			c-2.651-3.535-7.665-4.251-11.2-1.6l-25.144,18.864c-3.534,2.652-8.549,1.936-11.2-1.598c-1.275-1.699-1.822-3.835-1.52-5.938
			l4.448-31.112c0.305-2.216-0.343-4.457-1.784-6.168V72.001c0-4.418-3.582-8-8-8h-48c-4.418,0-8,3.582-8,8v157.712l-2.024,14.16
			c-0.587,4.343-4.584,7.389-8.927,6.802c-1.975-0.267-3.777-1.267-5.049-2.802V112.001c0-4.418-3.582-8-8-8h-48
			c-4.418,0-8,3.582-8,8v134l-4.8,3.6c-3.535,2.651-4.251,7.665-1.6,11.2l18.864,25.144c2.652,3.534,1.936,8.549-1.598,11.2
			c-1.699,1.275-3.836,1.822-5.938,1.52L232,295.681v-119.68c0-4.418-3.582-8-8-8H176z M376,80.001v131.2l-32-4.576V80.001H376z
			 M296,120.001v106.672l-3.2-4.272c-2.651-3.535-7.665-4.251-11.2-1.6l-17.6,13.2v-114H296z M216,288.001h-32v-104h32V288.001z
			 M460.528,376.801l-23.2-3.312c-13.122-1.874-25.278,7.244-27.152,20.366c-0.9,6.301,0.74,12.702,4.56,17.794l14.064,18.752
			l-25.6,19.2l-14.056-18.744c-7.947-10.609-22.989-12.766-33.597-4.82c-5.1,3.82-8.471,9.512-9.371,15.82l-3.312,23.2
			l-31.664-4.528l3.312-23.2c1.87-13.122-7.252-25.276-20.374-27.146c-6.295-0.897-12.689,0.741-17.778,4.554l-18.76,14.064
			l-19.2-25.6l18.736-14.056c10.605-7.952,12.756-22.995,4.804-33.599c-3.818-5.092-9.503-8.459-15.804-9.361l-23.2-3.32
			l4.528-31.672l23.2,3.312c13.122,1.874,25.278-7.244,27.152-20.366c0.9-6.301-0.74-12.702-4.56-17.794L259.2,257.601l25.6-19.2
			l14.056,18.744c7.947,10.609,22.989,12.766,33.597,4.82c5.1-3.82,8.471-9.512,9.371-15.82l3.312-23.2l31.672,4.528l-3.312,23.2
			c-1.87,13.122,7.252,25.276,20.374,27.146c6.295,0.897,12.689-0.741,17.778-4.554l18.752-14.064l19.2,25.6l-18.736,14.056
			c-10.605,7.952-12.756,22.995-4.804,33.599c3.818,5.092,9.503,8.459,15.804,9.361l23.2,3.32L460.528,376.801z"/>
	</g>
</g>
<g>
	<g>
		<path d="M104,328.001c-26.51,0-48,21.49-48,48c0,26.51,21.49,48,48,48c26.51,0,48-21.49,48-48
			C151.974,349.502,130.499,328.027,104,328.001z M104,408.001c-17.673,0-32-14.327-32-32c0-17.673,14.327-32,32-32s32,14.327,32,32
			C136,393.674,121.673,408.001,104,408.001z"/>
	</g>
</g>
<g>
	<g>
		<path d="M344,280.001c-35.346,0-64,28.654-64,64c0,35.346,28.654,64,64,64c35.346,0,64-28.654,64-64
			C407.96,308.671,379.33,280.041,344,280.001z M344,392.001c-26.51,0-48-21.49-48-48c0-26.51,21.49-48,48-48
			c26.51,0,48,21.49,48,48C391.974,370.5,370.499,391.975,344,392.001z"/>
	</g>
</g>
<g>
	<g>
		<path d="M321.6,32.161l-40-8l-3.2,15.68l19.392,3.888L83.952,169.097l8.096,13.808L308.656,55.929l-4.496,22.472l15.68,3.136l8-40
			C328.685,37.229,325.9,33.045,321.6,32.161z"/>
	</g>
</g>
<g>
	<g>
		<rect x="32" y="216.001" width="16" height="56"/>
	</g>
</g>
<g>
	<g>
		<rect x="32" y="184.001" width="16" height="16"/>
	</g>
</g>
<g>
	<g>
		<rect x="432" y="104.001" width="16" height="120"/>
	</g>
</g>
<g>
	<g>
		<rect x="432" y="72.001" width="16" height="16"/>
	</g>
</g>
<g>
	<g>
		<rect x="184" y="456.001" width="16" height="16"/>
	</g>
</g>
<g>
	<g>
		<rect x="216" y="456.001" width="16" height="16"/>
	</g>
</g>
<g>
	<g>
		<rect x="248" y="456.001" width="16" height="16"/>
	</g>
</g>
<g>
</g>
<g>
</g>
<g>
</g>
<g>
</g>
<g>
</g>
<g>
</g>
<g>
</g>
<g>
</g>
<g>
</g>
<g>
</g>
<g>
</g>
<g>
</g>
<g>
</g>
<g>
</g>
<g>
</g>
</svg>
