<svg height="511pt" viewBox="0 0 511.99152 511" width="511pt" xmlns="http://www.w3.org/2000/svg"><path d="m324.265625 203.050781c0-37.703125-30.5625-68.269531-68.265625-68.269531s-68.265625 30.566406-68.265625 68.269531c.441406 22.089844 6.867187 43.648438 18.59375 62.378907 5.957031 8.273437 10.566406 17.441406 13.652344 27.160156-9.203125 3.929687-15.175781 12.972656-15.179688 22.980468v1.261719c.035157 10.707031 6.90625 20.195313 17.066407 23.570313v1.398437c0 18.851563 15.28125 34.132813 34.132812 34.132813s34.132812-15.28125 34.132812-34.132813v-1.398437c10.160157-3.375 17.03125-12.863282 17.066407-23.570313v-1.261719c-.011719-10.015624-5.996094-19.058593-15.214844-22.980468 3.097656-9.726563 7.722656-18.894532 13.695313-27.171875 11.722656-18.726563 18.144531-40.28125 18.585937-62.367188zm-119.464844 0c1.222657-27.386719 23.785157-48.960937 51.199219-48.960937s49.976562 21.574218 51.199219 48.960937c-.449219 18.613281-5.808594 36.773438-15.539063 52.648438-2.355468 3.414062-4.324218 6.613281-6.125 9.730469l4.546875-42.183594c.351563-3.265625-1.203125-6.445313-4-8.171875-2.796875-1.722657-6.335937-1.691407-9.097656.085937-12.925781 7.707032-29.042969 7.707032-41.96875 0-2.761719-1.777344-6.300781-1.808594-9.097656-.085937-2.796875 1.726562-4.351563 4.90625-4 8.171875l4.539062 42.183594c-1.792969-3.117188-3.753906-6.332032-6.109375-9.722657-9.703125-15.886719-15.0625-34.046875-15.546875-52.65625zm41.539063 87.550781-5.863282-54.382812c10.195313 2.785156 20.96875 2.648438 31.089844-.394531l-5.90625 54.777343zm9.660156 68.265626c-9.425781 0-17.066406-7.640626-17.066406-17.066407h34.132812c0 9.425781-7.640625 17.066407-17.066406 17.066407zm34.132812-42.035157c-.003906 4.363281-3.539062 7.898438-7.902343 7.902344h-52.460938c-4.363281-.003906-7.898437-3.539063-7.902343-7.902344v-1.261719c.003906-4.363281 3.539062-7.898437 7.902343-7.902343h52.460938c4.363281.003906 7.898437 3.539062 7.902343 7.902343zm0 0"/><path d="m20.121094 356.113281c12.875 30.40625 31.5 58.035157 54.863281 81.371094 3.363281 3.101563 8.574219 2.992187 11.8125-.242187 3.234375-3.238282 3.339844-8.449219.242187-11.8125-43.015624-42.757813-67.992187-100.386719-69.777343-161.007813 5.042969-.101563 11.367187 0 17.066406.210937 2.042969 55.96875 25.214844 109.082032 64.855469 148.644532 10.0625 10.058594 21.058594 19.136718 32.84375 27.109375 34.164062 23.1875 74.175781 36.269531 115.4375 37.734375v17.066406c-44.671875-1.449219-88.023438-15.511719-125.046875-40.558594-2.523438-1.792968-5.820313-2.078125-8.613281-.742187-2.796876 1.332031-4.648438 4.078125-4.84375 7.167969-.191407 3.089843 1.304687 6.042968 3.910156 7.714843 63.472656 42.722657 142.71875 54.84375 216.0625 33.046875s133.109375-75.230468 162.945312-145.6875c1.796875-4.332031-.238281-9.300781-4.558594-11.128906-4.320312-1.824219-9.304687.175781-11.160156 4.480469-12.019531 28.375-29.40625 54.164062-51.199218 75.949219-10.839844 10.828124-22.683594 20.597656-35.371094 29.183593-37.003906 25.089844-80.371094 39.152344-125.054688 40.550781v-17.066406c12.136719-.4375 24.214844-1.867187 36.121094-4.269531 14.265625-2.933594 28.210938-7.273437 41.625-12.953125 2.828125-1.171875 4.8125-3.773438 5.195312-6.8125.386719-3.039062-.886718-6.046875-3.335937-7.890625-2.449219-1.839844-5.695313-2.226563-8.507813-1.015625-12.375 5.238281-25.238281 9.238281-38.398437 11.949219-27.207031 5.519531-55.246094 5.519531-82.449219 0-26.183594-5.375-51.050781-15.847657-73.191406-30.824219-32.933594-22.25-58.71875-53.5625-74.238281-90.15625-5.246094-12.371094-9.25-25.234375-11.949219-38.398438-5.550781-27.203124-5.550781-55.246093 0-82.449218 5.363281-26.1875 15.820312-51.070313 30.78125-73.222656 2.636719-3.90625 1.613281-9.210938-2.292969-11.851563-3.902343-2.636719-9.207031-1.613281-11.847656 2.292969-23.101563 34.0625-36.164063 73.933594-37.691406 115.0625-5.042969-.179688-11.402344-.324219-17.066407-.210938 2.90625-76.164062 41.957032-146.375 105.128907-189.015625 3.78125-2.683593 4.726562-7.890625 2.132812-11.734375-2.59375-3.839844-7.78125-4.910156-11.679687-2.40625-27.246094 18.410156-50.710938 41.875-69.121094 69.121094-18.742188 27.695312-31.839844 58.8125-38.554688 91.570312-6.925781 34.042969-6.925781 69.128907 0 103.167969 3.378907 16.472657 8.378907 32.574219 14.925782 48.0625zm0 0"/><path d="m491.878906 156.824219c-12.875-30.40625-31.5-58.039063-54.859375-81.375-6.421875-6.394531-13.175781-12.445313-20.234375-18.132813-.050781 0-.066406-.09375-.121094-.136718-.050781-.042969-.101562 0-.144531-.066407-5.621093-4.539062-11.40625-8.882812-17.390625-12.921875-27.683594-18.726562-58.789062-31.816406-91.535156-38.519531-34.046875-6.902344-69.132812-6.902344-103.175781 0-16.476563 3.375-32.578125 8.371094-48.070313 14.917969-4.238281 1.894531-6.183594 6.832031-4.375 11.109375 1.804688 4.277343 6.699219 6.324219 11.015625 4.609375 14.445313-6.109375 29.464844-10.769532 44.832031-13.917969 31.789063-6.441406 64.546876-6.441406 96.332032 0 30.558594 6.257813 59.585937 18.472656 85.429687 35.941406 3.414063 2.296875 6.570313 4.898438 9.835938 7.363281l-10.382813 13.65625c-3.011718-2.28125-5.972656-4.675781-9.0625-6.828124-24.003906-16.242188-50.96875-27.601563-79.359375-33.433594-29.46875-5.992188-59.84375-5.992188-89.3125 0-28.375 5.835937-55.324219 17.195312-79.316406 33.433594-11.78125 7.972656-22.78125 17.050781-32.84375 27.109374-3.234375 3.347657-3.1875 8.671876.105469 11.964844 3.289062 3.289063 8.613281 3.335938 11.960937.101563 18.683594-18.6875 40.792969-33.605469 65.117188-43.9375 12.375-5.238281 25.238281-9.238281 38.398437-11.945313 27.207032-5.523437 55.246094-5.523437 82.449219 0 26.199219 5.375 51.082031 15.851563 73.234375 30.839844 32.933594 22.25 58.71875 53.5625 74.238281 90.152344 5.246094 12.375 9.25 25.238281 11.949219 38.402344 2.207031 10.78125 3.542969 21.726562 3.992188 32.722656h-17.277344c-1.984375-46.773438-21.476563-91.089844-54.613282-124.160156-3.335937-3.332032-8.742187-3.328126-12.074218.003906-3.332032 3.335937-3.328125 8.738281.007812 12.070312 15.578125 15.566406 28.011719 33.992188 36.613282 54.265625 22.492187 53.085938 16.558593 113.953125-15.757813 161.699219-6.136719 9.070312-13.121094 17.53125-20.867187 25.273438-2.875 2.875-5.972657 5.546874-9.035157 8.21875l-10.238281-13.652344c2.457031-2.167969 4.957031-4.269532 7.269531-6.605469 14-14.015625 25.171875-30.601563 32.894531-48.84375 3.929688-9.289063 6.933594-18.941406 8.96875-28.820313.691407-3.019531-.304687-6.175781-2.605468-8.246093-2.304688-2.074219-5.546875-2.738281-8.476563-1.734375-2.933593 1.007812-5.089843 3.519531-5.632812 6.570312-3.59375 17.453125-10.582031 34.03125-20.566407 48.792969-9.839843 14.550781-22.375 27.082031-36.925781 36.921875-7.300781 4.933594-15.0625 9.152344-23.175781 12.597656-8.246094 3.492188-16.824219 6.160156-25.597656 7.960938-18.140625 3.695312-36.835938 3.695312-54.972656 0-8.777344-1.800782-17.351563-4.46875-25.601563-7.960938-8.113281-3.445312-15.875-7.667968-23.175781-12.605468-14.550782-9.832032-27.085938-22.363282-36.921875-36.914063-31.164063-46.074219-31.164063-106.46875 0-152.542969 9.839843-14.554687 22.375-27.085937 36.929687-36.921875 7.300782-4.9375 15.058594-9.152343 23.167969-12.597656 8.25-3.492187 16.824219-6.160156 25.601563-7.960937 18.136718-3.695313 36.832031-3.695313 54.972656 0 8.773437 1.800781 17.351562 4.46875 25.597656 7.960937 8.113281 3.445313 15.875 7.664063 23.175781 12.605469 14.554688 9.832031 27.089844 22.363281 36.925781 36.914062 9.984376 14.761719 16.972657 31.339844 20.566407 48.792969.542969 3.050781 2.699219 5.5625 5.632812 6.566406 2.929688 1.003907 6.171875.34375 8.476563-1.730469 2.300781-2.070312 3.296875-5.230468 2.605468-8.25-4.039062-19.644531-11.90625-38.300781-23.152343-54.910156-16.675781-24.714844-40.152344-44.070312-67.589844-55.730468-16.21875-6.964844-33.566406-10.910157-51.199219-11.648438v-17.066406c31.042969 1.339844 61.105469 11.289062 86.816406 28.738281 2.523438 1.792969 5.820313 2.078125 8.617188.742187 2.792969-1.332031 4.644531-4.074218 4.839844-7.164062.191406-3.09375-1.300782-6.042969-3.910156-7.71875-10.042969-6.785156-20.71875-12.589844-31.878907-17.328125-11.351562-4.8125-23.15625-8.480469-35.234375-10.957031-12.402344-2.539063-25.03125-3.820313-37.691406-3.824219h-.1875c-12.660156-.003906-25.289062 1.273437-37.691406 3.804687-4.515625 1.039063-7.378906 5.488282-6.453125 10.027344.925781 4.539063 5.304687 7.507813 9.867187 6.691406 8.523438-1.667968 17.160156-2.671874 25.835938-3.011718v17.066406c-17.632813.738281-34.980469 4.683594-51.199219 11.648438-18.238281 7.746093-34.816406 18.933593-48.828125 32.945312-1.253906 1.253906-2.371094 2.644531-3.582031 3.941406l-13.089844-10.914062c1.550781-1.703125 3.003906-3.460938 4.625-5.117188 15.5625-15.589844 33.988281-28.023437 54.269531-36.617187 4.34375-1.84375 6.367188-6.855469 4.523438-11.195313-1.839844-4.339844-6.855469-6.367187-11.195313-4.523437-22.292969 9.460937-42.550781 23.128906-59.664062 40.261719-3.96875 3.964843-7.679688 8.148437-11.316407 12.449218l-.109374.085938-.042969.085937c-19.878907 23.703125-33.542969 51.980469-39.757813 82.285157-15.167968 74.511718 16.007813 150.824218 79.003906 193.40625 3.902344 2.644531 9.210938 1.621093 11.851563-2.285157s1.617187-9.210937-2.289063-11.851562c-27.445312-18.535157-48.941406-44.613281-61.890624-75.09375-22.496094-53.085938-16.570313-113.953125 15.742187-161.699219 1.648437-2.441406 3.527344-4.726562 5.300781-7.082031l13.097656 10.921875c-1.40625 1.894531-2.917968 3.722656-4.265624 5.667968-41.222657 60.929688-33.421876 142.539063 18.597656 194.558594 52.015625 52.019532 133.625 59.820313 194.554687 18.601563.71875-.484375 1.375-1.066407 2.09375-1.5625l10.238281 13.613281c-.957031.671875-1.84375 1.449219-2.808593 2.105469-9.136719 6.175781-18.855469 11.453125-29.011719 15.753906-10.308594 4.375-21.027344 7.710937-32 9.957031-22.664062 4.609375-46.027344 4.609375-68.691406 0-10.972656-2.246094-21.691406-5.582031-32-9.957031-4.34375-1.84375-9.355469.183594-11.199219 4.523437-1.839844 4.339844.183594 9.351563 4.523437 11.195313 46.679688 19.738281 99.363282 19.738281 146.039063 0 11.160156-4.742187 21.839844-10.546875 31.890625-17.332031 3.414062-2.304688 6.636719-4.871094 9.890625-7.40625.160156-.101563.339844-.136719.503906-.257813.160157-.117187.179688-.238281.296875-.339843 15.574219-11.964844 29.089844-26.394532 40.011719-42.71875 19.527344-28.449219 30.535156-61.878907 31.730469-96.367188h17.277344c-2.777344 65.019531-36.242188 124.867188-90.179688 161.28125-3.90625 2.640625-4.929688 7.949219-2.285156 11.851562 2.640625 3.90625 7.945312 4.929688 11.851562 2.289063 35.671875-24.097656 63.601563-58.007813 80.425782-97.628906 35.125-83.164063 16.304687-179.316407-47.582032-243.097657-3.34375-3.355468-6.960937-6.4375-10.519531-9.566406l10.417969-13.65625c4.164062 3.621094 8.34375 7.230469 12.238281 11.09375 56.753906 56.863282 81.214844 138.398438 65.132813 217.113282-.945313 4.617187 2.03125 9.125 6.648437 10.070312.5625.113281 1.132813.167969 1.707031.171875 4.050782-.003906 7.542969-2.855469 8.351563-6.828125 6.929687-34.039062 6.929687-69.125 0-103.167969-3.371094-16.484375-8.367188-32.597656-14.914063-48.101562zm0 0"/></svg>