<svg height="491pt" viewBox="-61 0 491 491.312" width="491pt" xmlns="http://www.w3.org/2000/svg"><path d="m240.15625 59.3125v16h112v16h-112v16h112v64h-16v-48h-96v16h80v32h-32v-16h-16v112h16v-16h64v160h-64v16h80v-368zm112 128v16h-64v-16zm-64 48v-16h64v16zm0 0"/><path d="m232.15625 411.3125h-216v-32h32v16h16v-240h-16v16h-32v-96h176v-16h-192v368h232zm-184-48h-32v-16h32zm0-32h-32v-16h32zm0-32h-32v-16h32zm0-32h-32v-16h32zm0-32h-32v-16h32zm0-48v16h-32v-16zm0 0"/><path d="m272.15625 379.3125h-176v-112h160v-80h-96v-48h64v-108.6875l18.34375 18.34375 11.3125-11.3125-37.65625-37.65625-37.65625 37.65625 11.3125 11.3125 18.34375-18.34375v92.6875h-64v80h96v48h-160v144h176v80h-24v16h64v-16h-24zm0 0"/><path d="m224.15625 235.3125v-16h-128v-96h-64v16h48v96zm0 0"/><path d="m112.15625 123.3125h16v80h-16zm0 0"/><path d="m32.15625 91.3125h160v16h-160zm0 0"/><path d="m168.15625 155.3125h88v16h-88zm0 0"/><path d="m336.15625 283.3125h-224v80h176v32h16v-48h-176v-48h208zm0 0"/><path d="m336.15625 395.3125v-80h-192v16h176v64zm0 0"/></svg>