<svg height="512pt" viewBox="0 -36 512 512" width="512pt" xmlns="http://www.w3.org/2000/svg"><path d="m498.386719 419.304688h-18.003907v-240.402344c0-5.554688-4.5-10.054688-10.054687-10.054688-5.550781 0-10.054687 4.5-10.054687 10.054688v240.402344h-22.972657v-339.734376l11.558594-8.554687c3.421875 2.578125 7.257813 4.621094 11.414063 5.984375v21.796875c0 5.550781 4.503906 10.054687 10.054687 10.054687 5.554687 0 10.054687-4.503906 10.054687-10.054687v-20.621094c18.015626-3.660156 31.617188-19.617187 31.617188-38.691406 0-21.773437-17.710938-39.484375-39.484375-39.484375-21.769531 0-39.480469 17.710938-39.480469 39.484375 0 5.605469 1.191406 10.9375 3.308594 15.773437l-70.828125 52.421876c-7.234375-8.011719-17.660156-13.085938-29.28125-13.085938-21.769531 0-39.484375 17.710938-39.484375 39.480469 0 2.777343.296875 5.488281.847656 8.105469l-100.398437 23.007812c-6.878907-11.632812-19.515625-19.476562-33.980469-19.476562-21.769531 0-39.484375 17.710937-39.484375 39.480468 0 2.988282.363281 5.890625.996094 8.695313l-65.691407 56.765625c-5.773437-3.308594-12.441406-5.230469-19.558593-5.230469-21.769531-.003906-39.480469 17.710937-39.480469 39.480469 0 18.289062 12.519531 33.671875 29.429688 38.136718v96.265626h-11.578126c-5.550781 0-10.054687 4.503906-10.054687 10.058593 0 5.550781 4.503906 10.054688 10.054687 10.054688h480.535157c5.554687 0 10.058593-4.503907 10.058593-10.054688 0-5.554687-4.503906-10.058593-10.058593-10.058593zm-81.195313 0h-22.976562v-307.84375l22.976562-17.003907zm-324.570312-171.089844 22.976562-19.855469v190.945313h-22.976562zm43.085937-34.761719c6.09375 5.933594 14.085938 9.914063 22.976563 10.9375v194.914063h-22.976563zm43.085938 8.007813c11.53125-4.972657 20.222656-15.285157 22.972656-27.808594v225.652344h-22.972656zm43.082031-41.296876 22.976562-5.265624v244.40625h-22.976562zm43.085938-9.875 22.976562-5.261718v254.277344h-22.976562zm43.085937-8.621093c6.019531 6.148437 14.027344 10.316406 22.972656 11.503906v246.132813h-22.972656zm43.082031 8.949219c11.042969-4.515626 19.582032-13.886719 22.976563-25.453126v274.140626h-22.976563zm121.390625-150.507813c10.679688 0 19.371094 8.691406 19.371094 19.375s-8.691406 19.371094-19.371094 19.371094c-10.683593 0-19.375-8.6875-19.375-19.371094s8.691407-19.375 19.375-19.375zm-136.285156 94.59375c10.683594 0 19.375 8.6875 19.375 19.371094 0 10.683593-8.691406 19.375-19.375 19.375-10.679687 0-19.371094-8.691407-19.371094-19.375 0-10.683594 8.691407-19.371094 19.371094-19.371094zm-173.015625 51.113281c10.683594 0 19.375 8.691406 19.375 19.375s-8.691406 19.371094-19.375 19.371094c-10.679688 0-19.371094-8.6875-19.371094-19.371094s8.691406-19.375 19.371094-19.375zm-143.109375 119.085938c0-10.683594 8.691406-19.375 19.375-19.375 10.679687 0 19.371094 8.691406 19.371094 19.375s-8.691407 19.371094-19.371094 19.371094c-10.683594 0-19.375-8.6875-19.375-19.371094zm29.429687 38.136718c9.550782-2.523437 17.691407-8.511718 22.972657-16.570312v112.835938h-22.972657zm0 0"/><path d="m479.5625 134.90625c-2.085938-5.148438-7.949219-7.628906-13.09375-5.542969-5.148438 2.082031-7.628906 7.945313-5.546875 13.09375l.175781.429688c1.582032 3.910156 5.347656 6.28125 9.320313 6.28125 1.257812 0 2.535156-.238281 3.773437-.738281 5.144532-2.082032 7.628906-7.945313 5.542969-13.09375zm0 0"/></svg>