<svg height="512pt" viewBox="0 -10 512 512" width="512pt" xmlns="http://www.w3.org/2000/svg"><path d="m68.441406 375.582031v-12.730469c0-5.367187.363282-10.765624 1.082032-16.042968.757812-5.574219-3.148438-10.707032-8.71875-11.460938-5.578126-.757812-10.707032 3.144532-11.460938 8.71875-.839844 6.183594-1.265625 12.503906-1.265625 18.785156v12.726563c-27.277344 4.839844-48.078125 28.667969-48.078125 57.3125 0 32.125 26.136719 58.261719 58.261719 58.261719 32.121093 0 58.257812-26.136719 58.257812-58.261719 0-28.644531-20.796875-52.472656-48.078125-57.308594zm-10.179687 95.203125c-20.898438 0-37.894531-17-37.894531-37.894531s17-37.894531 37.894531-37.894531 37.890625 17 37.890625 37.894531-16.996094 37.894531-37.890625 37.894531zm0 0"/><path d="m512 58.261719c0-32.125-26.136719-58.261719-58.261719-58.261719-32.121093 0-58.257812 26.136719-58.257812 58.261719 0 28.507812 20.597656 52.257812 47.683593 57.25-4.699218 60.832031-55.664062 108.902343-117.683593 108.902343h-138.960938c-38.003906 0-74.746093 15.871094-100.808593 43.550782-3.855469 4.09375-3.664063 10.539062.433593 14.394531 1.964844 1.851563 4.472657 2.769531 6.976563 2.769531 2.710937 0 5.414062-1.074218 7.417968-3.203125 22.554688-23.953125 53.089844-37.144531 85.980469-37.144531h138.960938c73.214843 0 133.296875-57.136719 138.097656-129.15625 27.445313-4.699219 48.421875-28.597656 48.421875-57.363281zm-58.261719 37.894531c-20.894531 0-37.894531-17-37.894531-37.894531 0-20.898438 17-37.894531 37.894531-37.894531s37.894531 16.996093 37.894531 37.894531c0 20.894531-17 37.894531-37.894531 37.894531zm0 0"/><path d="m41.355469 217.839844c1.992187 1.988281 4.597656 2.984375 7.203125 2.984375 2.605468 0 5.210937-.996094 7.199218-2.984375l18.960938-18.957032 18.957031 18.957032c1.992188 1.988281 4.597657 2.984375 7.203125 2.984375 2.605469 0 5.210938-.996094 7.199219-2.984375 3.976563-3.976563 3.976563-10.421875 0-14.402344l-18.960937-18.957031 18.960937-18.960938c3.976563-3.976562 3.976563-10.425781 0-14.402343-3.976563-3.976563-10.425781-3.976563-14.402344 0l-18.957031 18.960937-18.960938-18.960937c-3.976562-3.972657-10.421874-3.972657-14.402343 0-3.976563 3.976562-3.976563 10.425781 0 14.402343l18.960937 18.960938-18.960937 18.960937c-3.976563 3.976563-3.976563 10.421875 0 14.398438zm0 0"/><path d="m203.386719 194.28125c1.988281 1.984375 4.59375 2.980469 7.199219 2.980469 2.605468 0 5.214843-.996094 7.203124-2.980469l18.957032-18.960938 18.960937 18.960938c1.992188 1.984375 4.597657 2.980469 7.203125 2.980469 2.605469 0 5.210938-.996094 7.199219-2.980469 3.976563-3.976562 3.976563-10.425781 0-14.402344l-18.960937-18.960937 18.960937-18.960938c3.976563-3.976562 3.976563-10.421875 0-14.402343-3.976563-3.972657-10.425781-3.972657-14.402344 0l-18.960937 18.960937-18.957032-18.960937c-3.976562-3.972657-10.425781-3.972657-14.402343 0-3.976563 3.976562-3.976563 10.425781 0 14.402343l18.960937 18.960938-18.960937 18.960937c-3.976563 3.976563-3.976563 10.425782 0 14.402344zm0 0"/><path d="m292.910156 96.753906c1.988282 1.988282 4.597656 2.984375 7.203125 2.984375s5.210938-.996093 7.199219-2.984375l18.960938-18.957031 18.960937 18.957031c1.988281 1.988282 4.59375 2.984375 7.199219 2.984375 2.605468 0 5.214844-.996093 7.199218-2.984375 3.976563-3.976562 3.976563-10.421875 0-14.402344l-18.957031-18.957031 18.957031-18.960937c3.976563-3.976563 3.980469-10.425782 0-14.402344-3.976562-3.972656-10.421874-3.976562-14.398437 0l-18.960937 18.960938-18.960938-18.960938c-3.976562-3.972656-10.421875-3.972656-14.398438 0-3.976562 3.976562-3.976562 10.425781 0 14.402344l18.957032 18.960937-18.957032 18.957031c-3.976562 3.980469-3.980468 10.425782-.003906 14.402344zm0 0"/><path d="m219.792969 295.601562c-3.976563-3.972656-10.425781-3.972656-14.402344 0l-18.957031 18.960938-18.960938-18.960938c-3.976562-3.972656-10.425781-3.972656-14.402344 0-3.976562 3.976563-3.976562 10.425782 0 14.402344l18.960938 18.960938-18.960938 18.960937c-3.976562 3.976563-3.976562 10.421875 0 14.398438 1.988282 1.988281 4.59375 2.984375 7.203126 2.984375 2.605468 0 5.210937-.996094 7.199218-2.984375l18.960938-18.957031 18.957031 18.957031c1.988281 1.988281 4.59375 2.984375 7.203125 2.984375 2.605469 0 5.210938-.996094 7.199219-2.984375 3.976562-3.976563 3.976562-10.421875 0-14.398438l-18.960938-18.960937 18.960938-18.960938c3.976562-3.976562 3.976562-10.421875 0-14.402344zm0 0"/><path d="m439.023438 267.210938c-3.976563-3.976563-10.425782-3.976563-14.402344 0l-18.960938 18.960937-18.957031-18.960937c-3.976563-3.972657-10.425781-3.976563-14.402344 0-3.976562 3.976562-3.976562 10.425781 0 14.402343l18.960938 18.960938-18.960938 18.957031c-3.976562 3.976562-3.976562 10.425781 0 14.402344 1.988281 1.988281 4.59375 2.984375 7.199219 2.984375 2.609375 0 5.214844-.996094 7.203125-2.984375l18.957031-18.957032 18.960938 18.957032c1.988281 1.988281 4.59375 2.984375 7.199218 2.984375 2.609376 0 5.214844-.996094 7.203126-2.984375 3.976562-3.976563 3.976562-10.421875 0-14.402344l-18.960938-18.957031 18.960938-18.960938c3.976562-3.976562 3.976562-10.425781 0-14.402343zm0 0"/><path d="m330.597656 373.882812c-3.976562-3.976562-10.425781-3.976562-14.402344 0l-18.960937 18.960938-18.957031-18.960938c-3.976563-3.976562-10.425782-3.976562-14.402344 0-3.976562 3.976563-3.976562 10.425782 0 14.402344l18.960938 18.960938-18.960938 18.957031c-3.976562 3.976563-3.976562 10.425781 0 14.402344 1.988281 1.988281 4.59375 2.984375 7.199219 2.984375s5.214843-.996094 7.199219-2.984375l18.960937-18.960938 18.960937 18.960938c1.988282 1.988281 4.59375 2.984375 7.199219 2.984375s5.214844-.996094 7.199219-2.984375c3.976562-3.976563 3.976562-10.425781 0-14.402344l-18.957031-18.957031 18.957031-18.960938c3.980469-3.976562 3.980469-10.425781.003906-14.402344zm0 0"/><path d="m66.117188 297.261719c-5.210938 2.109375-7.730469 8.046875-5.621094 13.261719l.152344.375c1.601562 3.960937 5.414062 6.367187 9.441406 6.367187 1.273437 0 2.566406-.238281 3.816406-.746094 5.214844-2.109375 7.730469-8.042969 5.625-13.257812l-.152344-.375c-2.109375-5.214844-8.046875-7.730469-13.261718-5.625zm0 0"/></svg>