<?xml version="1.0"?>
<svg xmlns="http://www.w3.org/2000/svg" id="Layer_1" data-name="Layer 1" viewBox="0 0 512 512" width="512" height="512"><title>target pin map location</title><path d="M256,51.387A161.969,161.969,0,0,0,140.48,99.342,173.609,173.609,0,0,0,90.35,210.366a163.613,163.613,0,0,0,9.883,67.353c7.819,21.429,20.548,41.631,37.834,60.044L251.626,458.72a6,6,0,0,0,8.748,0L373.933,337.763c17.286-18.413,30.015-38.615,37.834-60.044a163.613,163.613,0,0,0,9.883-67.353A173.609,173.609,0,0,0,371.52,99.342,161.969,161.969,0,0,0,256,51.387ZM400.494,273.605c-7.26,19.9-19.14,38.72-35.31,55.945L256,445.848,146.816,329.55c-16.17-17.225-28.05-36.047-35.31-55.945a151.681,151.681,0,0,1-9.183-62.438A161.618,161.618,0,0,1,148.98,107.812a151.118,151.118,0,0,1,214.04,0,161.618,161.618,0,0,1,46.657,103.355A151.681,151.681,0,0,1,400.494,273.605Z"/><path d="M262,112.707V96a6,6,0,0,0-12,0v16.707A93.623,93.623,0,0,0,162.706,200H146a6,6,0,0,0,0,12h16.706A93.623,93.623,0,0,0,250,299.293V316a6,6,0,0,0,12,0V299.293A93.623,93.623,0,0,0,349.294,212H366a6,6,0,0,0,0-12H349.294A93.623,93.623,0,0,0,262,112.707Zm0,174.54v-2.732a6,6,0,0,0-12,0v2.732A81.586,81.586,0,0,1,174.753,212h2.732a6,6,0,0,0,0-12h-2.732A81.586,81.586,0,0,1,250,124.753v2.732a6,6,0,1,0,12,0v-2.732A81.586,81.586,0,0,1,337.247,200h-2.732a6,6,0,0,0,0,12h2.732A81.586,81.586,0,0,1,262,287.247Z"/><path d="M256,160a46,46,0,1,0,46,46A46.052,46.052,0,0,0,256,160Zm0,80a34,34,0,1,1,34-34A34.038,34.038,0,0,1,256,240Z"/></svg>
