<svg height="512pt" viewBox="-62 0 512 512.00318" width="512pt" xmlns="http://www.w3.org/2000/svg"><path d="m257.542969 68.046875c-4.503907-18.082031-20.980469-31.238281-39.980469-31.238281-10.203125 0-20.101562 3.859375-27.632812 10.667968-7.535157-6.808593-17.429688-10.667968-27.636719-10.667968-18.996094 0-35.476563 13.15625-39.980469 31.238281-19.351562 9.277344-31.636719 28.617187-31.636719 50.371094 0 14.6875 5.757813 28.679687 15.949219 39.085937-.671875 3.066406-1.011719 6.207032-1.011719 9.378906 0 23.609376 18.828125 42.902344 42.257813 43.652344 4.5 10.691406 15.023437 17.929688 27.070312 17.929688l.234375-.003906c5.652344-.042969 10.816407-2.21875 14.75-5.753907 3.917969 3.535157 9.066407 5.710938 14.6875 5.753907l.300781.003906c12.050782 0 22.574219-7.238282 27.074219-17.929688 23.429688-.75 42.257813-20.042968 42.257813-43.652344 0-3.171874-.339844-6.3125-1.011719-9.378906 10.1875-10.40625 15.945313-24.398437 15.945313-39.085937 0-21.753907-12.285157-41.09375-31.636719-50.371094zm-82.484375 145.414063c-.023438 0-.09375.003906-.117188.003906-4.640625 0-8.804687-2.199219-11.449218-5.675782 5.066406-2.007812 9.761718-5 13.863281-8.875 3.007812-2.84375 3.144531-7.589843.300781-10.601562-2.847656-3.011719-7.59375-3.144531-10.605469-.300781-4.179687 3.949219-9.253906 6.496093-14.6875 7.378906-1.035156.109375-2.066406.167969-3.074219.167969-15.8125 0-28.675781-12.863282-28.675781-28.679688 0-3.148437.507813-6.242187 1.507813-9.195312 3.296875-8.542969 10.601562-15.132813 19.121094-17.496094 1.441406 4.695312 3.710937 9.054688 6.726562 12.796875 1.484375 1.835937 3.652344 2.792969 5.84375 2.792969 1.652344 0 3.316406-.542969 4.703125-1.660156 3.226563-2.601563 3.730469-7.320313 1.132813-10.546876-3.363282-4.175781-5.21875-9.699218-5.21875-15.558593 0-5.019531 1.339843-9.757813 3.878906-13.695313 2.242187-3.480468 1.238281-8.121094-2.246094-10.367187-3.480469-2.238281-8.125-1.234375-10.367188 2.246093-3.601562 5.59375-5.710937 12.101563-6.167968 18.964844-10.535156 2.261719-19.804688 8.476563-26.066406 17.230469-5.007813-6.910156-7.785157-15.273437-7.785157-23.972656 0-16.953125 10.199219-31.902344 25.976563-38.089844 2.527344-.988281 4.320312-3.265625 4.691406-5.953125 1.78125-12.867188 12.9375-22.566406 25.949219-22.566406 7.289062 0 14.058593 2.921875 19.0625 8.230468.691406.730469 1.074219 1.703126 1.074219 2.730469v12.9375c-9.570313.328125-18.761719 4.035157-25.980469 10.648438-3.054688 2.800781-3.257813 7.542969-.460938 10.597656 1.480469 1.617187 3.5 2.433594 5.53125 2.433594 1.808594 0 3.625-.648438 5.066407-1.96875 4.417968-4.050781 10.007812-6.367188 15.839843-6.691407v115.179688c0 4.132812-3.304687 7.523438-7.367187 7.554688zm91.335937-71.070313c-6.261719-8.753906-15.53125-14.96875-26.066406-17.230469-.457031-6.863281-2.566406-13.371094-6.167969-18.964844-2.242187-3.480468-6.882812-4.484374-10.367187-2.246093-3.484375 2.246093-4.488281 6.886719-2.246094 10.367187 2.535156 3.9375 3.878906 8.675782 3.878906 13.695313 0 5.859375-1.855469 11.382812-5.21875 15.558593-2.601562 3.226563-2.09375 7.945313 1.132813 10.546876 1.386718 1.117187 3.050781 1.660156 4.703125 1.660156 2.1875 0 4.359375-.957032 5.84375-2.792969 3.015625-3.742187 5.285156-8.101563 6.726562-12.796875 8.519531 2.363281 15.824219 8.953125 19.117188 17.5 1 2.953125 1.511719 6.042969 1.511719 9.191406 0 15.816406-12.867188 28.679688-28.679688 28.679688-1.003906 0-2.039062-.058594-3.074219-.167969-5.429687-.882813-10.507812-3.429687-14.6875-7.378906-3.011719-2.84375-7.757812-2.710938-10.601562.300781-2.847657 3.011719-2.710938 7.757812.300781 10.605469 4.097656 3.871093 8.792969 6.863281 13.859375 8.871093-2.644531 3.476563-6.808594 5.675782-11.449219 5.675782l-.113281-.003906c-4.066406-.03125-7.371094-3.421876-7.371094-7.554688v-115.183594c5.832031.324219 11.421875 2.644532 15.84375 6.691406 1.4375 1.320313 3.253907 1.972657 5.0625 1.972657 2.03125 0 4.054688-.816407 5.53125-2.433594 2.800781-3.054687 2.59375-7.796875-.460937-10.597656-7.21875-6.613281-16.40625-10.324219-25.976563-10.652344v-12.933594c0-1.027343.378907-1.996093 1.070313-2.730469 5.003906-5.308593 11.773437-8.230468 19.0625-8.230468 13.015625 0 24.167968 9.703125 25.949218 22.566406.371094 2.6875 2.164063 4.964844 4.691407 5.957031 15.777343 6.183594 25.976562 21.132813 25.976562 38.085938.003907 8.699219-2.773437 17.0625-7.78125 23.972656zm0 0"/><path d="m343.007812 272.878906c-.679687-1.144531-1.671874-2.117187-2.835937-2.765625l-55.539063-30.769531c4.285157-6.949219 8.925782-13.726562 13.925782-20.289062 18.210937-23.902344 27.835937-52.464844 27.835937-82.589844 0-30.070313-9.597656-58.601563-27.761719-82.496094-2.503906-3.300781-7.210937-3.941406-10.507812-1.4375-3.300781 2.507812-3.941406 7.214844-1.433594 10.511719 16.164063 21.265625 24.707032 46.65625 24.707032 73.421875 0 26.816406-8.566407 52.230468-24.769532 73.5-25.609375 33.609375-42.589844 72.515625-49.21875 112.675781h-94.945312c-6.574219-40.558594-23.382813-79.226563-48.710938-111.988281-17.328125-22.410156-26.28125-50.421875-25.210937-78.875 2.347656-62.46875 53.085937-113.707032 115.503906-116.640625 29.359375-1.394531 58.171875 7.835937 81.113281 25.964843 3.25 2.566407 7.96875 2.011719 10.535156-1.234374 2.570313-3.25 2.015626-7.96875-1.234374-10.535157-25.78125-20.371093-58.140626-30.722656-91.117188-29.179687-34.027344 1.601562-66.089844 15.941406-90.289062 40.378906-24.191407 24.433594-38.222657 56.640625-39.5 90.683594-1.203126 31.957031 8.859374 63.429687 28.332031 88.613281 4.835937 6.257813 9.335937 12.746094 13.5 19.425781l-55.703125 30.863282c-1.15625.640624-2.171875 1.617187-2.835938 2.765624l-34.445312 58.707032c-2.3906252 4.074218-3.023438 8.832031-1.773438 13.394531 1.246094 4.558594 4.210938 8.332031 8.347656 10.625l26.839844 14.871094v52.808593c0 2.726563 1.480469 5.238282 3.867188 6.5625l146.609375 81.222657c2.234375 1.234375 5.039062 1.238281 7.269531 0l91.84375-50.882813c3.621094-2.007812 4.933594-6.570312 2.925781-10.195312-2.007812-3.621094-6.574219-4.933594-10.195312-2.925782l-80.707031 44.714844v-106.28125l20.722656 35.320313c3.25 5.542969 8.996094 8.625 14.949218 8.625 2.867188 0 5.777344-.714844 8.484376-2.210938l87.453124-48.449219v40.078126l-20.523437 11.371093c-3.621094 2.007813-4.933594 6.570313-2.925781 10.195313 1.371094 2.46875 3.929687 3.863281 6.566406 3.863281 1.230469 0 2.480469-.300781 3.628906-.9375l24.386719-13.511719c2.386719-1.320312 3.867187-3.835937 3.867187-6.5625v-52.808594l26.839844-14.871093c4.136719-2.289063 7.101563-6.0625 8.347656-10.625 1.25-4.558594.617188-9.316407-1.773437-13.394531zm-153.082031 76.449219-21.089843-11.6875h42.183593zm131.136719-72.652344-66.65625 36.925781c4.625-21.128906 12.304688-41.773437 22.742188-61.253906zm-218.15625-24.4375c10.382812 19.320313 18.019531 40.015625 22.609375 61.402344l-66.722656-36.964844zm-52.089844 126.550781 14.054688 7.785157c1.152344.640625 2.398437.941406 3.628906.941406 2.636719 0 5.199219-1.394531 6.566406-3.867187 2.007813-3.621094.695313-8.1875-2.925781-10.195313l-55.898437-30.96875c-.765626-.425781-1.046876-1.097656-1.148438-1.460937-.101562-.363282-.199219-1.085938.242188-1.84375l30.746093-52.394532 133.484375 73.953125-30.800781 52.496094c-.664063 1.128906-2.082031 1.519531-3.226563.882813l-44.746093-24.789063c-3.621094-2.003906-8.1875-.695313-10.195313 2.925781-2.003906 3.625-.695312 8.1875 2.925782 10.195313l44.746093 24.789062c2.703125 1.5 5.613281 2.210938 8.480469 2.210938 5.953125 0 11.699219-3.082031 14.953125-8.621094l20.722656-35.320313v106.273438l-131.609375-72.914062zm313.941406-37.765624c-.097656.363281-.378906 1.035156-1.148437 1.460937l-129.292969 71.632813c-1.148437.636718-2.566406.246093-3.226562-.882813l-30.804688-52.496094 133.488282-73.953125 30.742187 52.394532c.445313.757812.34375 1.480468.242187 1.84375zm0 0"/><path d="m34.117188 217.339844h.035156c4.144531-.019532 7.484375-3.394532 7.464844-7.535156l-.007813-1.867188c-.023437-4.132812-3.378906-7.464844-7.5-7.464844-.015625 0-.027344 0-.039063 0-4.140624.019532-7.484374 3.394532-7.464843 7.539063l.011719 1.867187c.019531 4.128906 3.371093 7.460938 7.5 7.460938zm0 0"/><path d="m26.679688 237.40625c.019531 4.132812 3.375 7.464844 7.5 7.464844h.035156c4.144531-.019532 7.484375-3.394532 7.464844-7.539063l-.007813-1.867187c-.023437-4.128906-3.375-7.460938-7.5-7.460938-.011719 0-.027344 0-.039063 0-4.140624.019532-7.484374 3.394532-7.460937 7.535156zm0 0"/><path d="m46.972656 230.144531h.042969l1.863281-.007812c4.144532-.023438 7.484375-3.398438 7.464844-7.539063-.023438-4.128906-3.375-7.460937-7.5-7.460937-.015625 0-.027344 0-.039062 0l-1.867188.007812c-4.144531.023438-7.484375 3.398438-7.464844 7.539063.023438 4.128906 3.375 7.460937 7.5 7.460937zm0 0"/><path d="m19.441406 230.207031h.042969l1.867187-.007812c4.140626-.023438 7.480469-3.398438 7.460938-7.539063-.023438-4.128906-3.375-7.460937-7.5-7.460937-.011719 0-.027344 0-.039062 0l-1.867188.007812c-4.144531.023438-7.484375 3.398438-7.460938 7.539063.019532 4.128906 3.375 7.460937 7.496094 7.460937zm0 0"/><path d="m357.414062 159.082031.007813 1.867188c.023437 4.128906 3.375 7.460937 7.5 7.460937h.039063c4.140624-.019531 7.484374-3.394531 7.464843-7.535156l-.011719-1.867188c-.019531-4.128906-3.375-7.464843-7.5-7.464843-.011718 0-.023437 0-.035156 0-4.144531.023437-7.484375 3.398437-7.464844 7.539062zm0 0"/><path d="m364.988281 195.945312h.039063c4.140625-.023437 7.480468-3.398437 7.460937-7.539062l-.011719-1.867188c-.019531-4.132812-3.375-7.464843-7.496093-7.464843-.015625 0-.027344 0-.042969 0-4.140625.023437-7.480469 3.398437-7.460938 7.542969l.011719 1.863281c.019531 4.132812 3.375 7.464843 7.5 7.464843zm0 0"/><path d="m379.652344 166.207031c-.011719 0-.023438 0-.039063 0l-1.867187.007813c-4.140625.023437-7.480469 3.394531-7.464844 7.535156.023438 4.132812 3.375 7.46875 7.5 7.46875h.035156l1.867188-.011719c4.144531-.019531 7.484375-3.394531 7.464844-7.535156-.015626-4.128906-3.371094-7.464844-7.496094-7.464844zm0 0"/><path d="m350.25 181.277344h.039062l1.863282-.007813c4.144531-.019531 7.484375-3.394531 7.46875-7.535156-.023438-4.128906-3.375-7.464844-7.5-7.464844-.011719 0-.023438 0-.035156 0l-1.867188.007813c-4.144531.019531-7.484375 3.394531-7.46875 7.535156.019531 4.132812 3.375 7.464844 7.5 7.464844zm0 0"/><path d="m46.949219 38.976562h.039062c4.140625-.023437 7.480469-3.398437 7.460938-7.539062l-.011719-1.867188c-.019531-4.128906-3.375-7.460937-7.496094-7.460937-.015625 0-.027344 0-.042968 0-4.140626.019531-7.480469 3.394531-7.460938 7.539063l.011719 1.867187c.019531 4.128906 3.375 7.460937 7.5 7.460937zm0 0"/><path d="m54.5 57.101562c-.019531-4.128906-3.375-7.460937-7.496094-7.460937-.015625 0-.027344 0-.042968 0-4.140626.019531-7.480469 3.394531-7.460938 7.539063l.011719 1.867187c.019531 4.128906 3.375 7.460937 7.5 7.460937h.039062c4.140625-.023437 7.480469-3.398437 7.460938-7.539062zm0 0"/><path d="m59.804688 51.78125h.042968l1.867188-.011719c4.140625-.019531 7.480468-3.394531 7.460937-7.539062-.023437-4.128907-3.375-7.460938-7.5-7.460938-.011719 0-.027343 0-.039062 0l-1.867188.011719c-4.144531.019531-7.484375 3.394531-7.460937 7.539062.019531 4.128907 3.375 7.460938 7.496094 7.460938zm0 0"/><path d="m32.273438 51.84375h.039062l1.867188-.007812c4.144531-.023438 7.484374-3.398438 7.460937-7.542969-.019531-4.128907-3.375-7.460938-7.496094-7.460938-.015625 0-.027343 0-.042969 0l-1.867187.011719c-4.140625.019531-7.480469 3.398438-7.460937 7.539062.023437 4.128907 3.375 7.460938 7.5 7.460938zm0 0"/><path d="m336.460938 202.15625c-4.140626.019531-7.480469 3.394531-7.460938 7.539062l.011719 1.867188c.019531 4.128906 3.375 7.460938 7.5 7.460938h.039062c4.140625-.023438 7.480469-3.398438 7.460938-7.539063l-.007813-1.867187c-.023437-4.144532-3.429687-7.457032-7.542968-7.460938zm0 0"/><path d="m336.574219 246.554688h.039062c4.144531-.023438 7.484375-3.398438 7.460938-7.539063l-.007813-1.867187c-.023437-4.128907-3.375-7.460938-7.5-7.460938-.015625 0-.027344 0-.039062 0-4.144532.019531-7.484375 3.394531-7.460938 7.539062l.007813 1.867188c.019531 4.128906 3.375 7.460938 7.5 7.460938zm0 0"/><path d="m349.367188 231.828125h.042968l1.867188-.011719c4.140625-.019531 7.480468-3.394531 7.460937-7.539062-.023437-4.128906-3.375-7.460938-7.5-7.460938-.011719 0-.027343 0-.039062 0l-1.867188.011719c-4.144531.019531-7.484375 3.394531-7.460937 7.539063.019531 4.128906 3.375 7.460937 7.496094 7.460937zm0 0"/><path d="m323.667969 216.878906-1.867188.011719c-4.144531.019531-7.484375 3.398437-7.460937 7.539063.019531 4.128906 3.375 7.460937 7.5 7.460937h.039062l1.867188-.011719c4.140625-.019531 7.480468-3.394531 7.460937-7.539062-.019531-4.140625-3.351562-7.46875-7.539062-7.460938zm0 0"/><path d="m336.765625 86.21875c.949219 3.285156 3.945313 5.417969 7.203125 5.417969.6875 0 1.386719-.09375 2.082031-.296875l7.660157-2.210938c3.980468-1.148437 6.273437-5.308594 5.125-9.285156-1.148438-3.980469-5.308594-6.277344-9.285157-5.125l-7.660156 2.210938c-3.980469 1.148437-6.277344 5.308593-5.125 9.289062zm0 0"/><path d="m335.359375 74.269531c1.96875 0 3.933594-.769531 5.40625-2.300781l5.527344-5.746094c2.871093-2.984375 2.78125-7.730468-.203125-10.605468-2.988282-2.871094-7.734375-2.777344-10.605469.207031l-5.527344 5.746093c-2.875 2.984376-2.78125 7.730469.203125 10.605469 1.453125 1.398438 3.328125 2.09375 5.199219 2.09375zm0 0"/><path d="m355.488281 98.050781-7.742187-1.914062c-4.015625-.996094-8.085938 1.460937-9.082032 5.480469-.992187 4.023437 1.460938 8.085937 5.480469 9.082031l7.742188 1.914062c.601562.148438 1.210937.222657 1.804687.222657 3.367188 0 6.429688-2.285157 7.277344-5.703126.992188-4.019531-1.460938-8.085937-5.480469-9.082031zm0 0"/><path d="m21.730469 156.824219c.128906 0 .261719 0 .394531-.011719l7.964844-.414062c4.136718-.21875 7.316406-3.746094 7.097656-7.882813-.214844-4.136719-3.742188-7.351563-7.882812-7.097656l-7.960938.417969c-4.136719.214843-7.316406 3.742187-7.097656 7.882812.207031 4.003906 3.519531 7.105469 7.484375 7.105469zm0 0"/><path d="m21.640625 132.742188 7.101563 3.621093c1.09375.554688 2.253906.820313 3.398437.820313 2.730469 0 5.363281-1.5 6.691406-4.097656 1.878907-3.691407.410157-8.207032-3.277343-10.089844l-7.105469-3.621094c-3.691407-1.878906-8.207031-.414062-10.089844 3.277344-1.878906 3.691406-.410156 8.210937 3.28125 10.089844zm0 0"/><path d="m38.226562 174.066406c3.476563-2.253906 4.464844-6.898437 2.207032-10.375-2.253906-3.472656-6.902344-4.460937-10.375-2.203125l-6.6875 4.339844c-3.472656 2.253906-4.460938 6.902344-2.207032 10.375 1.4375 2.210937 3.84375 3.417969 6.296876 3.417969 1.398437 0 2.816406-.394532 4.078124-1.210938zm0 0"/></svg>