<?xml version="1.0" encoding="iso-8859-1"?>
<!-- Generator: Adobe Illustrator 19.0.0, SVG Export Plug-In . SVG Version: 6.00 Build 0)  -->
<svg version="1.1" id="Capa_1" xmlns="http://www.w3.org/2000/svg" xmlns:xlink="http://www.w3.org/1999/xlink" x="0px" y="0px"
	 viewBox="0 0 496 496" style="enable-background:new 0 0 496 496;" xml:space="preserve">
<g>
	<g>
		<g>
			<path d="M288,144c0-11.008-1.36-21.688-3.712-32H328c4.416,0,8,3.592,8,8v25.472c-9.288,3.312-16,12.112-16,22.528
				c0,13.232,10.768,24,24,24s24-10.768,24-24c0-10.416-6.712-19.216-16-22.528V120c0-13.232-10.768-24-24-24h-48.4
				c-8.992-25.32-24.776-47.424-45.288-64H376c30.872,0,56,25.12,56,56v57.472c-9.288,3.312-16,12.112-16,22.528
				c0,13.232,10.768,24,24,24s24-10.768,24-24c0-10.416-6.712-19.216-16-22.528V88c0-39.696-32.296-72-72-72H209.664
				C189.952,5.84,167.664,0,144,0C64.6,0,0,64.6,0,144c0,62.552,40.168,115.768,96,135.6V304H80v16h16v16H80v16h16v96
				c0,26.472,21.528,48,48,48s48-21.528,48-48v-96h16v-16h-16v-16h16v-16h-16v-24.4C247.832,259.768,288,206.552,288,144z M344,160
				c4.416,0,8,3.592,8,8s-3.584,8-8,8c-4.416,0-8-3.592-8-8S339.584,160,344,160z M440,160c4.416,0,8,3.592,8,8s-3.584,8-8,8
				c-4.416,0-8-3.592-8-8S435.584,160,440,160z M176,448c0,17.648-14.352,32-32,32s-32-14.352-32-32v-96h64V448z M176,336h-64v-16
				h64V336z M176,304h-64v-19.712c10.312,2.352,20.992,3.712,32,3.712s21.688-1.36,32-3.712V304z M144,272
				c-70.576,0-128-57.424-128-128S73.424,16,144,16s128,57.424,128,128S214.576,272,144,272z"/>
			<path d="M224.784,209.512C239.76,191.064,248,167.8,248,144c0-57.344-46.656-104-104-104S40,86.656,40,144s46.656,104,104,104
				c25.6,0,50.192-9.384,69.264-26.424l-10.656-11.928C186.48,224.064,165.664,232,144,232c-48.52,0-88-39.48-88-88s39.48-88,88-88
				s88,39.48,88,88c0,20.144-6.976,39.824-19.64,55.424L224.784,209.512z"/>
			<path d="M494.904,450.656L456,295.016V256h16v-48h-72V104c0-26.472-21.528-48-48-48h-17.472c-3.312-9.288-12.112-16-22.528-16
				c-13.232,0-24,10.768-24,24s10.768,24,24,24c10.416,0,19.216-6.712,22.528-16H352c17.648,0,32,14.352,32,32v104h-72v48h16v39.016
				l-38.912,155.648c-0.72,2.896-1.088,5.872-1.088,8.84C288,479.632,304.368,496,324.496,496h135.016
				c20.12,0,36.488-16.368,36.488-36.496C496,456.536,495.632,453.56,494.904,450.656z M312,72c-4.416,0-8-3.592-8-8s3.584-8,8-8
				c4.416,0,8,3.592,8,8S316.416,72,312,72z M328,224h128v16h-32v16h16v40l5.88,23.68c-24.256-1.496-37.128-8.328-50.608-15.536
				c-13.44-7.184-27.408-14.528-51.472-15.864l0.16-32.28H408v-16h-80V224z M459.504,480H324.496
				C313.192,480,304,470.808,304,459.504c0-1.664,0.2-3.336,0.608-4.968l37.584-150.328c20.936,1.016,32.488,7.064,45.536,14.048
				c14.6,7.808,31.224,16.48,62.16,17.536l29.496,118.736c0.416,1.64,0.616,3.312,0.616,4.976C480,470.808,470.808,480,459.504,480z
				"/>
			<path d="M352,424c-13.232,0-24,10.768-24,24s10.768,24,24,24s24-10.768,24-24S365.232,424,352,424z M352,456
				c-4.416,0-8-3.592-8-8c0-4.408,3.584-8,8-8c4.416,0,8,3.592,8,8C360,452.408,356.416,456,352,456z"/>
			<path d="M424,392c-13.232,0-24,10.768-24,24s10.768,24,24,24s24-10.768,24-24S437.232,392,424,392z M424,424
				c-4.416,0-8-3.592-8-8c0-4.408,3.584-8,8-8c4.416,0,8,3.592,8,8C432,420.408,428.416,424,424,424z"/>
			<path d="M144,176h64v-64h-64V176z M160,128h32v32h-32V128z"/>
			<rect x="88" y="104" width="40" height="16"/>
			<rect x="88" y="136" width="40" height="16"/>
			<rect x="88" y="168" width="40" height="16"/>
		</g>
	</g>
</g>
<g>
</g>
<g>
</g>
<g>
</g>
<g>
</g>
<g>
</g>
<g>
</g>
<g>
</g>
<g>
</g>
<g>
</g>
<g>
</g>
<g>
</g>
<g>
</g>
<g>
</g>
<g>
</g>
<g>
</g>
</svg>
