<?xml version="1.0" encoding="UTF-8"?>
<svg xmlns="http://www.w3.org/2000/svg" xmlns:xlink="http://www.w3.org/1999/xlink" width="512" height="512" viewBox="0 0 60 60" version="1.1"><!-- Generator: Sketch 51.3 (57544) - http://www.bohemiancoding.com/sketch --><title>026 - Vision</title><desc>Created with Sketch.</desc><defs/><g id="Page-1" stroke="none" stroke-width="1" fill="none" fill-rule="evenodd"><g id="026---Vision" transform="translate(-1.000000, 0.000000)" fill="#000000" fill-rule="nonzero"><path d="M2.472,37.391 C2.80078202,37.6194083 3.14797678,37.8200989 3.51,37.991 C3.942,38.212 4.667,38.582 4.718,38.841 C4.78085126,39.1828692 4.73974795,39.5357307 4.6,39.854 C4.451,40.174 4.295,40.449 4.16,40.686 C3.794,41.333 3.181,42.417 4.105,43.172 C4.321,43.372 4.694,43.661 5.034,43.922 C4.78370505,44.359639 4.67048978,44.8623148 4.709,45.365 C4.76206133,45.7609003 4.97674391,46.1171358 5.302,46.349 C5.524,46.505 5.761,46.641 5.994,46.774 C6.586,47.11 6.817,47.267 6.894,47.581 C6.94956021,47.9834802 6.91541128,48.3932674 6.794,48.781 C6.735,49.048 6.678,49.316 6.644,49.581 C6.54469822,50.4923539 6.65729272,51.4143284 6.973,52.275 C7.42281456,53.8638526 8.85996076,54.9707558 10.511,55 C10.7865929,54.9991845 11.0613714,54.9700312 11.331,54.913 C14.1877778,54.2358183 17.0028445,53.3934018 19.762,52.39 C22.015,53.712 23.438,57.732 23.809,59.241 C23.9197719,59.6870872 24.3203652,60.0002183 24.78,60 L49.88,59.93 C50.198095,59.9293833 50.4969218,59.7774667 50.6848608,59.5208273 C50.8727998,59.2641879 50.9274293,58.9334437 50.832,58.63 C50.584758,57.9524505 50.2437748,57.3128965 49.819,56.73 C49.5792082,56.3843183 49.3630492,56.0228282 49.172,55.648 C48.7190564,54.7315437 48.3414759,53.7797332 48.043,52.802 C47.4717419,50.8695435 47.0758071,48.8895347 46.86,46.886 C46.5084636,43.8945422 46.962088,40.8634747 48.174,38.106 C48.3949139,37.5995549 48.1634451,37.0099139 47.657,36.789 C47.1505549,36.5680861 46.5609139,36.7995549 46.34,37.306 C44.9866868,40.3907013 44.4806273,43.7805409 44.874,47.126 C45.1054034,49.2509065 45.5274365,51.3506972 46.135,53.4 C46.4640482,54.4749292 46.879054,55.5216399 47.376,56.53 C47.6041562,56.9828684 47.8630969,57.4195592 48.151,57.837 L48.218,57.937 L25.536,58 C24.8721602,55.6278229 23.6672676,53.4419012 22.016,51.614 L22.916,51.299 C23.586,51.065 24.091,50.889 24.35,50.806 C28.634,49.451 30.776,47.5 30.718,45.006 C30.7050213,44.4537153 30.2467847,44.0165213 29.6945,44.0295 C29.1422153,44.0424787 28.7050213,44.5007153 28.718,45.053 C28.742,46.082 27.899,47.583 23.742,48.898 C23.471,48.985 22.949,49.167 22.256,49.409 C21.513,49.669 20.568,49.999 19.526,50.353 L19.519,50.353 C16.7047997,51.3845725 13.8333482,52.2526858 10.919,52.953 C9.98854295,53.1291385 9.08427788,52.5417187 8.867,51.62 C8.65336419,51.0511056 8.5729723,50.4408114 8.632,49.836 C8.658,49.626 8.706,49.418 8.752,49.209 C8.95576498,48.5176489 8.98564963,47.7866772 8.839,47.081 C8.54814599,46.1623751 7.87220583,45.4156291 6.987,45.035 L6.78,44.917 C6.88797779,44.6989963 7.01691908,44.4920204 7.165,44.299 C7.33275906,44.0864363 7.40714209,43.8149259 7.3711438,43.5465408 C7.33514552,43.2781557 7.19184383,43.0358431 6.974,42.875 C6.734,42.699 6.168,42.275 5.754,41.941 C5.802,41.854 5.854,41.758 5.904,41.671 C6.061,41.396 6.24,41.076 6.415,40.706 C6.73144627,40.0050454 6.82465982,39.2237273 6.682,38.468 C6.442,37.248 5.273,36.65 4.421,36.214 C4.13330073,36.0772824 3.85736569,35.9170729 3.596,35.735 C3.38336862,35.5912941 3.18391862,35.42899 3,35.25 C3,35.098 3.163,34.73 3.925,33.803 C5.71607044,31.4972449 7.2517206,29.0039928 8.505,26.367 C8.73934083,25.9538574 8.87135428,25.4906102 8.89,25.016 C8.78670832,24.0108401 8.25404392,23.0993679 7.429,22.516 C7.029,22.145 6.644,21.795 6.599,21.469 C6.60563423,21.2329751 6.65864086,21.0005614 6.755,20.785 C6.918,20.356 7.106,19.936 7.295,19.515 C7.70505054,18.6694994 8.03256792,17.786408 8.273,16.878 L8.373,16.452 C8.58408599,15.4522697 8.85626318,14.4664205 9.188,13.5 C9.97629737,11.324256 11.1967986,9.33056659 12.776,7.639 C14.689,5.615 17.7,4.183 21.739,3.38 C24.4905852,2.78522204 27.275692,2.35777161 30.079,2.1 C30.4362656,2.07177602 30.7513353,1.85509707 30.9055254,1.531584 C31.0597155,1.20807093 31.0296009,0.826873076 30.8265254,0.531583988 C30.6234499,0.2362949 30.2782656,0.0717760128 29.921,0.1 C27.03836,0.364411025 24.1744271,0.803551853 21.345,1.415 C16.836,2.315 13.559,3.896 11.322,6.26 C9.55741114,8.14817091 8.19304573,10.3738111 7.311,12.803 C6.95071214,13.8495906 6.65482552,14.9172537 6.425,16 L6.325,16.422 C6.1115707,17.2063052 5.82532664,17.9689531 5.47,18.7 C5.27,19.156 5.062,19.612 4.883,20.084 C4.65284498,20.6094053 4.56192334,21.1852424 4.619,21.756 C4.82021123,22.6521932 5.3374331,23.4459531 6.076,23.992 C6.565,24.44 6.886,24.756 6.89,25.031 C6.85421996,25.1830023 6.79697882,25.3291355 6.72,25.465 C5.52247783,27.986227 4.05560327,30.370443 2.345,32.576 C1.62,33.458 0.86,34.487 1.02,35.517 C1.23211923,36.311598 1.75555427,36.9871609 2.472,37.391 Z" id="Shape"/><path d="M12.167,17.8 L12.267,17.365 C12.4424278,16.5295136 12.6657971,15.7048165 12.936,14.895 C13.5391016,13.2259058 14.4723406,11.6954483 15.68,10.395 C16.9761231,9.17314541 18.5624442,8.30202828 20.289,7.864 C20.6376132,7.76576066 20.9058574,7.48669775 20.9902433,7.13447458 C21.0746292,6.7822514 20.9619648,6.41193017 20.6957164,6.1663819 C20.4294681,5.92083364 20.0512577,5.83844433 19.707,5.951 C17.6463921,6.48650189 15.7586426,7.54420641 14.226,9.022 C12.8334238,10.5175212 11.756941,12.2786676 11.061,14.2 C10.7612032,15.086623 10.5141052,15.9902005 10.321,16.906 L10.221,17.339 C10.1356254,17.6881834 10.2442362,18.0563226 10.5054777,18.3032451 C10.7667192,18.5501676 11.1403903,18.6378757 11.4842121,18.5329737 C11.8280339,18.4280717 12.0890973,18.1467025 12.168,17.796 L12.167,17.8 Z" id="Shape"/><circle id="Oval" cx="10" cy="21" r="1"/><path d="M60.915,18.619 C60.8981097,18.5830812 60.8794193,18.5480367 60.859,18.514 C60.8390937,18.4705678 60.8163789,18.4284787 60.791,18.388 C60.44,17.934 52.257,7.515 41.762,7.024 L41.754,7.024 C41.546,7.01 41.327,7 41.12,7 L41,7 C40.755,7 40.5,7.01 40.255,7.021 L40.245,7.021 C29.745,7.508 21.56,17.932 21.209,18.386 C21.1836211,18.4264787 21.1609063,18.4685678 21.141,18.512 C21.1205807,18.5460367 21.1018903,18.5810812 21.085,18.617 C21.0316559,18.737802 21.0027667,18.8679733 21,19 C21.0032343,19.1299314 21.0317664,19.2579862 21.084,19.377 C21.1008903,19.4129188 21.1195807,19.4479633 21.14,19.482 C21.1599063,19.5254322 21.1826211,19.5675213 21.208,19.608 C21.559,20.062 29.741,30.481 40.236,30.972 L40.245,30.972 C40.453,30.983 40.672,30.993 40.879,30.993 L41,30.993 C41.245,30.993 41.5,30.983 41.72,30.973 C52.235,30.508 60.44,20.061 60.791,19.607 C60.8163789,19.5665213 60.8390937,19.5244322 60.859,19.481 C60.8794193,19.4469633 60.8981097,19.4119188 60.915,19.376 C60.9674511,19.2573656 60.9963207,19.1296599 61,19 C60.9969707,18.8686493 60.9680872,18.7391829 60.915,18.619 Z M41,29 C36.39,29 32.14,26.706 28.9,24.253 C32.6985204,25.9998476 36.8195617,26.9354262 41,27 C45.1860906,26.9350839 49.312496,25.9967226 53.115,24.245 C49.878,26.7 45.623,29 41,29 Z M34,20 C34.5522847,20 35,19.5522847 35,19 C35.0033074,15.6876624 37.6876624,13.0033074 41,13 C44.0745135,13.0369121 47.1194459,13.6056379 50,14.681 C51.3306022,17.4066083 51.3306022,20.5933917 50,23.319 C49.0312708,23.6690143 48.045324,23.9694044 47.046,24.219 C48.3050773,22.7717059 48.9989889,20.9183156 49,19 C49,18.4477153 48.5522847,18 48,18 C47.4477153,18 47,18.4477153 47,19 C46.9966926,22.3123376 44.3123376,24.9966926 41,25 C37.9254865,24.9630879 34.8805541,24.3943621 32,23.319 C30.6693978,20.5933917 30.6693978,17.4066083 32,14.681 C32.9687292,14.3309857 33.954676,14.0305956 34.954,13.781 C33.6949227,15.2282941 33.0010111,17.0816844 33,19 C33,19.5522847 33.4477153,20 34,20 Z M58.323,19 C56.4936251,20.2734277 54.5523081,21.3779701 52.523,22.3 C53.1643388,20.1487829 53.1643388,17.8572171 52.523,15.706 C54.551883,16.6265118 56.4931577,17.729022 58.323,19 Z M29.481,22.3 C27.4516919,21.3779701 25.5103749,20.2734277 23.681,19 C25.5103749,17.7265723 27.4516919,16.6220299 29.481,15.7 C28.8396612,17.8512171 28.8396612,20.1427829 29.481,22.294 L29.481,22.3 Z M41,11 C36.8139094,11.0649161 32.687504,12.0032774 28.885,13.755 C32.122,11.3 36.377,9 41,9 C45.623,9 49.86,11.294 53.1,13.747 C49.3014796,12.0001524 45.1804383,11.0645738 41,11 Z" id="Shape"/><path d="M41,22 C42.6568542,22 44,20.6568542 44,19 C44,17.3431458 42.6568542,16 41,16 C39.3431458,16 38,17.3431458 38,19 C38,20.6568542 39.3431458,22 41,22 Z M41,18 C41.5522847,18 42,18.4477153 42,19 C42,19.5522847 41.5522847,20 41,20 C40.4477153,20 40,19.5522847 40,19 C40,18.4477153 40.4477153,18 41,18 Z" id="Shape"/><path d="M42,37 L42,34 C42,33.4477153 41.5522847,33 41,33 C40.4477153,33 40,33.4477153 40,34 L40,37 C40,37.5522847 40.4477153,38 41,38 C41.5522847,38 42,37.5522847 42,37 Z" id="Shape"/><path d="M50,35.588 C50.3570824,35.587634 50.6868739,35.3968904 50.8652566,35.0875563 C51.0436393,34.7782222 51.0435415,34.3972425 50.865,34.088 L49.365,31.488 C49.1876384,31.1760492 48.8567268,30.9830468 48.4978817,30.9822579 C48.1390366,30.981469 47.8072796,31.1730146 47.6285481,31.4841826 C47.4498167,31.7953505 47.4515156,32.1784296 47.633,32.488 L49.133,35.088 C49.3118068,35.3977028 49.6423863,35.5883484 50,35.588 Z" id="Shape"/><path d="M48.5,7.01 C48.8576137,7.01034843 49.1881932,6.81970282 49.367,6.51 L50.867,3.91 C51.0484844,3.60042958 51.0501833,3.21735053 50.8714519,2.90618258 C50.6927204,2.59501463 50.3609634,2.40346901 50.0021183,2.4042579 C49.6432732,2.40504678 49.3123616,2.59804922 49.135,2.91 L47.635,5.51 C47.4564585,5.81924248 47.4563607,6.2002222 47.6347434,6.50955632 C47.8131261,6.81889043 48.1429176,7.00963395 48.5,7.01 Z" id="Shape"/><path d="M41,5 C41.5522847,5 42,4.55228475 42,4 L42,1 C42,0.44771525 41.5522847,3.38176876e-17 41,0 C40.4477153,-3.38176876e-17 40,0.44771525 40,1 L40,4 C40,4.55228475 40.4477153,5 41,5 Z" id="Shape"/><path d="M33.5,7.01 C33.8570824,7.00963395 34.1868739,6.81889043 34.3652566,6.50955632 C34.5436393,6.2002222 34.5435415,5.81924248 34.365,5.51 L32.865,2.91 C32.6876384,2.59804922 32.3567268,2.40504678 31.9978817,2.4042579 C31.6390366,2.40346901 31.3072796,2.59501463 31.1285481,2.90618258 C30.9498167,3.21735053 30.9515156,3.60042958 31.133,3.91 L32.633,6.51 C32.8118068,6.81970282 33.1423863,7.01034843 33.5,7.01 Z" id="Shape"/><path d="M32,35.588 C32.3576137,35.5883484 32.6881932,35.3977028 32.867,35.088 L34.367,32.488 C34.5484844,32.1784296 34.5501833,31.7953505 34.3714519,31.4841826 C34.1927204,31.1730146 33.8609634,30.981469 33.5021183,30.9822579 C33.1432732,30.9830468 32.8123616,31.1760492 32.635,31.488 L31.135,34.088 C30.9564585,34.3972425 30.9563607,34.7782222 31.1347434,35.0875563 C31.3131261,35.3968904 31.6429176,35.587634 32,35.588 Z" id="Shape"/></g></g></svg>
