<?xml version="1.0" encoding="UTF-8"?>
<svg width="105px" height="18px" viewBox="0 0 105 18" version="1.1" xmlns="http://www.w3.org/2000/svg" xmlns:xlink="http://www.w3.org/1999/xlink">
    <!-- Generator: Sketch 51.2 (57519) - http://www.bohemiancoding.com/sketch -->
    <title>Illinois-Wordmark-Horizontal-Reversed-Orange-RGB</title>
    <desc>Created with Sketch.</desc>
    <defs></defs>
    <g id="Symbols" stroke="none" stroke-width="1" fill="none" fill-rule="evenodd">
        <g id="footer---with-all-the-logos" transform="translate(-1295.000000, -41.000000)">
            <g id="Illinois-Wordmark-Horizontal-Reversed-Orange-RGB" transform="translate(1295.000000, 41.000000)">
                <polygon id="Fill-1" fill="#FFFFFE" points="22 15.0943913 24.880913 15.0943913 24.880913 2 22 2"></polygon>
                <polyline id="Fill-2" fill="#FFFFFE" points="28 15.0949565 28 2 30.880913 2 30.880913 12.4757391 37.4097391 12.4757391 37.4097391 15.0949565 28 15.0949565"></polyline>
                <polyline id="Fill-3" fill="#FFFFFE" points="40 15.0949565 40 2 42.880913 2 42.880913 12.4757391 49.4097391 12.4757391 49.4097391 15.0949565 40 15.0949565"></polyline>
                <polygon id="Fill-4" fill="#FFFFFE" points="52 15.0943913 54.880913 15.0943913 54.880913 2 52 2"></polygon>
                <polyline id="Fill-5" fill="#FFFFFE" points="67.1847826 15.0949565 60.8430435 6.77043478 60.8430435 15.0949565 58 15.0949565 58 2 60.6565217 2 66.7919565 10.0622609 66.7919565 2 69.6355652 2 69.6355652 15.0949565 67.1847826 15.0949565"></polyline>
                <path d="M82.9058696,8.77186957 C82.9058696,6.5273913 81.2599565,4.65652174 78.9403043,4.65652174 C76.6206522,4.65652174 75.0114783,6.48952174 75.0114783,8.73456522 L75.0114783,8.77186957 C75.0114783,11.016913 76.6579565,12.8872174 78.9776087,12.8872174 C81.2972609,12.8872174 82.9058696,11.0542174 82.9058696,8.80917391 L82.9058696,8.77186957 Z M78.9403043,15.5437391 C74.8995652,15.5437391 72,12.5316957 72,8.80917391 L72,8.77186957 C72,5.04934783 74.9368696,2 78.9776087,2 C83.0183478,2 85.9173478,5.01204348 85.9173478,8.73456522 L85.9173478,8.77186957 C85.9173478,12.4949565 82.9810435,15.5437391 78.9403043,15.5437391 Z" id="Fill-6" fill="#FFFFFE"></path>
                <polygon id="Fill-7" fill="#FFFFFE" points="88 15.0943913 90.8814783 15.0943913 90.8814783 2 88 2"></polygon>
                <g id="Group-11" fill="#FFFFFE">
                    <path d="M99.556087,15.4685652 C97.5727391,15.4685652 95.5713043,14.7761739 94,13.3733043 L95.7024348,11.334 C96.880913,12.3067391 98.1153478,12.9245217 99.6120435,12.9245217 C100.790522,12.9245217 101.501565,12.457087 101.501565,11.6895217 L101.501565,11.6522174 C101.501565,10.9225217 101.052783,10.548913 98.8642609,9.98765217 C96.2263913,9.31391304 94.5239565,8.58421739 94.5239565,5.98421739 L94.5239565,5.94691304 C94.5239565,3.57130435 96.4321304,2 99.1067391,2 C101.014913,2 102.642739,2.598 103.971,3.66456522 L102.473739,5.83443478 C101.314478,5.03013043 100.173304,4.54404348 99.0694348,4.54404348 C97.9661304,4.54404348 97.3856522,5.04878261 97.3856522,5.68465217 L97.3856522,5.72252174 C97.3856522,6.58278261 97.9474783,6.86313043 100.210609,7.4436087 C102.86713,8.13543478 104.363826,9.08952174 104.363826,11.3718696 L104.363826,11.4091739 C104.363826,14.0091739 102.380478,15.4685652 99.556087,15.4685652" id="Fill-8"></path>
                    <path d="M9.65278261,13.7896087 L11.720913,13.7896087 L11.720913,17.2368696 L0.689,17.2368696 L0.689,13.7896087 L2.75769565,13.7896087 C3.13808696,13.7896087 3.44726087,13.4804348 3.44726087,13.0994783 L3.44726087,4.8263913 C3.44726087,4.44543478 3.13808696,4.13682609 2.75769565,4.13682609 L0.689,4.13682609 L0.689,0.689565217 L11.720913,0.689565217 L11.720913,4.13682609 L9.65278261,4.13682609 C9.27182609,4.13682609 8.96321739,4.44543478 8.96321739,4.8263913 L8.96321739,13.0994783 C8.96321739,13.4804348 9.27182609,13.7896087 9.65278261,13.7896087 M12.4110435,4.8263913 L12.4110435,0 L0,0 L0,4.8263913 L2.75769565,4.8263913 L2.75769565,13.0994783 L0,13.0994783 L0,17.9264348 L12.4110435,17.9264348 L12.4110435,13.0994783 L9.65278261,13.0994783 L9.65278261,4.8263913 L12.4110435,4.8263913" id="Fill-10"></path>
                </g>
                <path d="M9.96378261,4.44726087 L12.031913,4.44726087 L12.031913,1 L1,1 L1,4.44726087 L3.06869565,4.44726087 C3.44908696,4.44726087 3.75826087,4.75586957 3.75826087,5.13682609 L3.75826087,13.4104783 C3.75826087,13.7908696 3.44908696,14.1000435 3.06869565,14.1000435 L1,14.1000435 L1,17.5473043 L12.031913,17.5473043 L12.031913,14.1000435 L9.96378261,14.1000435 C9.58282609,14.1000435 9.27421739,13.7908696 9.27421739,13.4104783 L9.27421739,5.13682609 C9.27421739,4.75586957 9.58282609,4.44726087 9.96378261,4.44726087" id="Fill-12" fill="#D6472C"></path>
            </g>
        </g>
    </g>
</svg>