<?xml version="1.0" encoding="UTF-8"?>
<svg width="81px" height="30px" viewBox="0 0 81 30" version="1.1" xmlns="http://www.w3.org/2000/svg" xmlns:xlink="http://www.w3.org/1999/xlink">
    <!-- Generator: Sketch 51.2 (57519) - http://www.bohemiancoding.com/sketch -->
    <title>ibm logo</title>
    <desc>Created with Sketch.</desc>
    <defs>
        <polygon id="path-1" points="0.142552941 0.297882353 3.92643706 0.297882353 3.92643706 4.10512952 0.142552941 4.10512952"></polygon>
        <polygon id="path-3" points="0.137011765 0.301835294 10.3821882 0.301835294 10.3821882 2.11764706 0.137011765 2.11764706"></polygon>
    </defs>
    <g id="Symbols" stroke="none" stroke-width="1" fill="none" fill-rule="evenodd">
        <g id="ibm-logo">
            <g>
                <g id="Group-3" transform="translate(76.235294, 0.055200)">
                    <mask id="mask-2" fill="white">
                        <use xlink:href="#path-1"></use>
                    </mask>
                    <g id="Clip-2"></g>
                    <path d="M1.98949412,2.0736 C2.29125882,2.07854118 2.72608235,2.12971765 2.72572941,1.69771765 C2.73172941,1.36736471 2.45996471,1.32677647 2.20055294,1.32254118 L1.59596471,1.32748235 L1.59772941,2.07501176 L1.98949412,2.0736 Z M2.98267059,3.25595294 L2.67631765,3.26301176 L2.06714118,2.28324706 L1.59490588,2.27795294 L1.59561176,3.26054118 L1.33372941,3.25842353 L1.33302353,1.13407059 L2.25702353,1.13901176 C2.82031765,1.13407059 3.00737647,1.34442353 3.00702353,1.70477647 C3.00561176,2.11701176 2.71761176,2.27336471 2.34490588,2.27936471 L2.98267059,3.25595294 Z M3.62714118,2.20242353 C3.62396471,1.26677647 2.95725882,0.549247059 2.04172941,0.546070588 C1.11596471,0.544305882 0.4422,1.27877647 0.441494118,2.19642353 C0.440435294,3.13030588 1.11384706,3.85454118 2.03925882,3.85065882 C2.96325882,3.85736471 3.62678824,3.12889412 3.62714118,2.20242353 Z M0.142552941,2.19712941 C0.142552941,1.15454118 0.995611765,0.301482353 2.04172941,0.2976 C3.08008235,0.294776471 3.92678824,1.15207059 3.92643529,2.19642353 C3.92784706,3.25242353 3.08396471,4.10548235 2.03714118,4.10512941 C0.9882,4.10301176 0.143964706,3.25312941 0.142552941,2.19712941 Z" id="Fill-1" fill="#FFFFFF" mask="url(#mask-2)"></path>
                </g>
                <polygon id="Fill-4" fill="#FFFFFF" points="14.3060824 2.29612941 0.0109058824 2.29471765 0.00667058824 0.482717647 14.3043176 0.481658824"></polygon>
                <polygon id="Fill-6" fill="#FFFFFF" points="14.3035059 6.20950588 0.00938823529 6.21303529 0.00797647059 4.39750588 14.3035059 4.39397647"></polygon>
                <polygon id="Fill-8" fill="#FFFFFF" points="14.3007529 25.7801647 0.00698823529 25.7844 0.00592941176 23.9664 14.3046353 23.9667529"></polygon>
                <polygon id="Fill-10" fill="#FFFFFF" points="10.2202235 21.8695765 4.09175294 21.8727529 4.09316471 20.0526353 10.2198706 20.0491059"></polygon>
                <polygon id="Fill-12" fill="#FFFFFF" points="10.2207176 17.9511882 4.09577647 17.9547176 4.09754118 16.1353059 10.2203647 16.1356588"></polygon>
                <polygon id="Fill-14" fill="#FFFFFF" points="10.2207176 14.0366118 4.09401176 14.0401412 4.0926 12.2239059 10.2203647 12.2210824"></polygon>
                <polygon id="Fill-16" fill="#FFFFFF" points="10.2208941 10.1225647 4.10018824 10.1232706 4.09207059 8.30950588 10.2191294 8.31091765"></polygon>
                <polygon id="Fill-18" fill="#FFFFFF" points="14.3052353 29.7011294 0.00617647059 29.6983059 0.000176470588 27.8831294 14.3006471 27.8838353"></polygon>
                <polygon id="Fill-20" fill="#FFFFFF" points="51.3876706 21.8695765 45.2433176 21.8664 45.2415529 20.0554588 51.3841412 20.0572235"></polygon>
                <polygon id="Fill-22" fill="#FFFFFF" points="54.5889529 21.8700706 60.4608353 21.8700706 61.0918941 20.0594824 53.9617765 20.0559529"></polygon>
                <polygon id="Fill-24" fill="#FFFFFF" points="51.3861176 17.9549647 45.2410588 17.9563765 45.2407059 16.1355529 51.3822353 16.1426118"></polygon>
                <polygon id="Fill-26" fill="#FFFFFF" points="53.2514471 17.9558471 61.7979176 17.9565529 62.4332118 16.1360824 52.6186235 16.1396118"></polygon>
                <polygon id="Fill-28" fill="#FFFFFF" points="56.6800588 12.2289882 45.2398235 12.2261647 45.2437059 14.0452235 51.3841765 14.0409882 51.3820588 12.5431059 51.9022941 14.0409882 57.297 14.0459294"></polygon>
                <polygon id="Fill-30" fill="#FFFFFF" points="58.3732588 12.2245059 57.7545529 14.0393294 63.1400824 14.0414471 63.6673765 12.5301529 63.6691412 14.0393294 69.8134941 14.0428588 69.8145529 12.2322706"></polygon>
                <polygon id="Fill-32" fill="#FFFFFF" points="55.3573765 8.31458824 45.2406706 8.31141176 45.2403176 10.1269412 55.9789059 10.1290588"></polygon>
                <polygon id="Fill-34" fill="#FFFFFF" points="69.8148706 21.8721529 63.6691059 21.8728588 63.6673412 20.0566235 69.8127529 20.0573294"></polygon>
                <polygon id="Fill-36" fill="#FFFFFF" points="69.8124706 17.9613529 63.6698824 17.9588824 63.6681176 16.1394706 69.8156471 16.1433529"></polygon>
                <polygon id="Fill-38" fill="#FFFFFF" points="59.6964353 8.31476471 59.0745529 10.1281765 69.8163176 10.1306471 69.8163176 8.31405882"></polygon>
                <g id="Group-42" transform="translate(63.529412, 27.584612)">
                    <mask id="mask-4" fill="white">
                        <use xlink:href="#path-3"></use>
                    </mask>
                    <g id="Clip-41"></g>
                    <polygon id="Fill-40" fill="#FFFFFF" mask="url(#mask-4)" points="10.3821882 2.11771765 0.137011765 2.11630588 0.140894118 0.301835294 10.3793647 0.302188235"></polygon>
                </g>
                <polygon id="Fill-43" fill="#FFFFFF" points="51.3885176 29.6938941 41.1461647 29.6981294 41.1440471 27.8815412 51.3853412 27.8822471"></polygon>
                <polygon id="Fill-45" fill="#FFFFFF" points="57.2723647 29.6978471 57.7686 29.6971412 58.4014235 27.8826706 56.6462471 27.8833765"></polygon>
                <polygon id="Fill-47" fill="#FFFFFF" points="73.9033412 25.7858471 63.6705176 25.7830235 63.6680471 23.9667882 73.9036941 23.9703176"></polygon>
                <polygon id="Fill-49" fill="#FFFFFF" points="51.3809294 25.7817176 41.1488118 25.7845412 41.1445765 23.9672471 51.3816353 23.9661882"></polygon>
                <polygon id="Fill-51" fill="#FFFFFF" points="55.9353882 25.7829176 59.1153882 25.7864471 59.7415059 23.9688 55.3064471 23.9680941"></polygon>
                <polygon id="Fill-53" fill="#FFFFFF" points="62.3391882 0.488858824 61.7257765 2.29909412 73.9086 2.30085882 73.9078941 0.489211765"></polygon>
                <polygon id="Fill-55" fill="#FFFFFF" points="52.7192824 0.485611765 41.1484588 0.487376471 41.1431647 2.30078824 53.3295176 2.29937647"></polygon>
                <polygon id="Fill-57" fill="#FFFFFF" points="61.0203176 4.40054118 60.3998471 6.21395294 73.9072588 6.21430588 73.9146706 4.40265882"></polygon>
                <polygon id="Fill-59" fill="#FFFFFF" points="54.0300706 4.39450588 41.1484235 4.40121176 41.1519529 6.20756471 54.6512471 6.21321176"></polygon>
                <polygon id="Fill-61" fill="#FFFFFF" points="26.6983412 10.1259882 20.5508118 10.1221059 20.5518706 8.30657647 26.7015176 8.31151765"></polygon>
                <polygon id="Fill-63" fill="#FFFFFF" points="26.6976353 21.8692235 20.5529294 21.8653412 20.5585765 20.0526353 26.6972824 20.0529882"></polygon>
                <path d="M16.4614941,2.2932 L36.6140824,2.29849412 C34.7950235,0.809082353 32.0936118,0.478376471 29.2693765,0.485435294 L28.7216118,0.481905882 L16.4569059,0.482964706 L16.4614941,2.2932 Z" id="Fill-65" fill="#FFFFFF"></path>
                <path d="M16.4588824,4.3962 L38.3345294,4.39408235 C38.5494706,4.74772941 38.9320588,5.57714118 39.0573529,6.21455294 L16.455,6.21067059 L16.4588824,4.3962 Z" id="Fill-67" fill="#FFFFFF"></path>
                <path d="M20.5489059,16.1392588 L36.2060824,16.1399647 C36.7820824,16.5006706 37.6182,17.3230235 38.0396118,17.9554941 L20.5524353,17.9516118 L20.5489059,16.1392588 Z" id="Fill-69" fill="#FFFFFF"></path>
                <path d="M32.8424118,8.30855294 L39.3164118,8.31243529 C39.3171176,8.98514118 39.1572353,9.69172941 39.0164118,10.1223176 L32.8406471,10.1276118 L32.8424118,8.30855294 Z" id="Fill-71" fill="#FFFFFF"></path>
                <path d="M32.8418824,20.0555647 L39.0444706,20.0566235 C39.2167059,20.4554471 39.3448235,21.1313294 39.36,21.8682706 L32.8415294,21.8672118 L32.8418824,20.0555647 Z" id="Fill-73" fill="#FFFFFF"></path>
                <path d="M16.4539059,23.9663647 L39.1854353,23.9653059 C39.1017882,24.4347176 38.6436706,25.5186 38.4435529,25.7776588 L16.4539059,25.7818941 L16.4539059,23.9663647 Z" id="Fill-75" fill="#FFFFFF"></path>
                <path d="M16.4523529,27.8842235 L36.6356471,27.8814 C34.8610588,29.2846941 32.4257647,29.6997529 29.6047059,29.6965765 L28.716,29.6976353 L16.4558824,29.6965765 L16.4523529,27.8842235 Z" id="Fill-77" fill="#FFFFFF"></path>
                <path d="M20.5508118,14.0362588 L36.2122235,14.0380235 C36.9032824,13.5393176 37.5054,12.9262588 38.0228118,12.2239059 L20.5504588,12.2207294 L20.5508118,14.0362588 Z" id="Fill-79" fill="#FFFFFF"></path>
            </g>
        </g>
    </g>
</svg>